<?xml version="1.0" encoding="UTF-8"?>
<!DOCTYPE svg PUBLIC "-//W3C//DTD SVG 1.1//EN" "http://www.w3.org/Graphics/SVG/1.1/DTD/svg11.dtd">
<!-- Creator: CorelDRAW X7 -->
<svg xmlns="http://www.w3.org/2000/svg" xml:space="preserve" width="146mm" height="128mm" version="1.1" style="shape-rendering:geometricPrecision; text-rendering:geometricPrecision; image-rendering:optimizeQuality; fill-rule:evenodd; clip-rule:evenodd"
viewBox="0 0 14600 12800"
 xmlns:xlink="http://www.w3.org/1999/xlink">
 <defs>
  <style type="text/css">
   <![CDATA[
    .str1 {stroke:#2B2A29;stroke-width:70.56}
    .str0 {stroke:#2B2A29;stroke-width:17.64}
    .fil6 {fill:none}
    .fil1 {fill:#FEFEFE}
    .fil4 {fill:#2B2A29}
    .fil0 {fill:#393185}
    .fil2 {fill:#EE1925}
    .fil3 {fill:#EE6228}
    .fil5 {fill:#2B2A29;fill-rule:nonzero}
    .fil7 {fill:#2E2F94;fill-rule:nonzero}
   ]]>
  </style>
   <clipPath id="id0">
    <rect x="2745" y="5824" width="974" height="279"/>
   </clipPath>
   <clipPath id="id1">
    <rect x="4506" y="5824" width="1185" height="279"/>
   </clipPath>
   <clipPath id="id2">
    <rect x="6724" y="5824" width="1245" height="279"/>
   </clipPath>
   <clipPath id="id3">
    <rect x="8672" y="5824" width="1346" height="279"/>
   </clipPath>
   <clipPath id="id4">
    <rect x="10890" y="5824" width="965" height="279"/>
   </clipPath>
 </defs>
 <g id="Слой_x0020_1">
  <metadata id="CorelCorpID_0Corel-Layer"/>
  <circle class="fil0 str0" cx="7300" cy="6400" r="6057"/>
  <circle class="fil1 str0" transform="matrix(1.09443 -0.0964808 0.0964808 1.09443 7285.52 6366.66)" r="5376"/>
  <circle class="fil1 str1" cx="7286" cy="6367" r="4854"/>
  <path class="fil2" d="M5684 5665l1075 -7 193 -112c41,-464 -42,-390 -525,-652 -42,-146 64,-211 61,-317 97,-22 109,-274 18,-238 1,-76 -7,-152 -7,-228 -85,-168 -162,-289 -495,-225 1,55 -7,110 -6,165 -95,23 -65,148 -65,284 -80,-13 -78,158 0,237 48,84 95,207 80,320 -499,258 -550,181 -516,668l187 105z"/>
  <path class="fil3" d="M5902 7871l634 -6c27,2 39,10 45,32 1,95 2,184 3,279 52,-2 143,-9 142,67 -5,187 -7,374 -15,561 -3,74 -91,150 -157,145 -225,-2 -450,-4 -675,-6 -82,-1 -138,-70 -141,-151l-14 -566c11,-62 100,-48 115,-51 0,-85 0,-170 1,-255 0,-53 14,-48 62,-49z"/>
  <g style="clip-path:url(#id0)">
   <image x="2745" y="5824" width="974" height="279" xlink:href="ATSF SVG_Images\ATSF SVG_ImgID1.png"/>
  </g>
  <path class="fil2" d="M7797 5665l1075 -7 193 -112c41,-464 -42,-390 -525,-652 -42,-146 64,-211 61,-317 97,-22 109,-274 19,-238 0,-76 -8,-152 -8,-228 -85,-168 -162,-289 -495,-225 1,55 -7,110 -6,165 -95,23 -65,148 -65,284 -80,-13 -78,158 0,237 48,84 95,207 80,320 -499,258 -550,181 -516,668l187 105z"/>
  <path class="fil3" d="M8015 7871l634 -6c27,2 39,10 45,32 1,95 2,184 3,279 52,-2 144,-9 142,67 -5,187 -6,374 -15,561 -3,74 -91,150 -157,145 -225,-2 -450,-4 -675,-6 -82,-1 -138,-70 -141,-151l-14 -566c11,-62 100,-48 115,-51 0,-85 1,-170 1,-255 0,-53 14,-48 62,-49z"/>
  <path class="fil2" d="M9919 5665l1074 -7 194 -112c41,-464 -43,-390 -525,-652 -43,-146 63,-211 60,-317 97,-22 109,-274 19,-238 1,-76 -8,-152 -7,-228 -85,-168 -163,-289 -495,-225 0,55 -7,110 -7,165 -94,23 -65,148 -64,284 -80,-13 -78,158 0,237 48,84 95,207 80,320 -500,258 -551,181 -517,668l188 105z"/>
  <path class="fil3" d="M10137 7871l633 -6c28,2 40,10 45,32 2,95 2,184 4,279 51,-2 143,-9 141,67 -5,187 -6,374 -14,561 -4,74 -92,150 -158,145 -224,-2 -449,-4 -674,-6 -82,-1 -139,-70 -141,-151l-14 -566c11,-62 100,-48 114,-51 1,-85 1,-170 1,-255 1,-53 15,-48 63,-49z"/>
  <path class="fil3" d="M3796 7871l634 -6c27,2 39,10 45,32 1,95 2,184 3,279 52,-2 144,-9 142,67 -5,187 -7,374 -15,561 -3,74 -91,150 -157,145 -225,-2 -450,-4 -675,-6 -82,-1 -138,-70 -141,-151l-14 -566c11,-62 100,-48 115,-51 0,-85 0,-170 1,-255 0,-53 14,-48 62,-49z"/>
  <path class="fil2" d="M3578 5665l1075 -7 193 -112c41,-464 -42,-390 -525,-652 -42,-146 64,-211 61,-317 97,-22 109,-274 19,-238 0,-76 -8,-152 -8,-228 -85,-168 -162,-289 -495,-225 1,55 -7,110 -6,165 -95,23 -65,148 -65,284 -80,-13 -78,158 0,237 48,84 95,207 80,320 -499,258 -550,181 -516,668l187 105z"/>
  <path class="fil1 str1" d="M6781 516c3250,-287 6117,2116 6403,5365 287,3250 -2116,6117 -5365,6403 -3250,287 -6117,-2116 -6403,-5365 -287,-3250 2116,-6117 5365,-6403zm519 1030c2681,0 4854,2173 4854,4854 0,2681 -2173,4854 -4854,4854 -2681,0 -4854,-2173 -4854,-4854 0,-2681 2173,-4854 4854,-4854z"/>
  <path class="fil4" d="M12569 7176l-48 -108c5,-10 17,-24 24,-33 13,-18 14,-14 44,-15 38,0 78,0 116,1 5,9 26,30 32,38 6,8 0,12 -8,30l-38 79c-6,14 -16,12 -33,13 -35,3 -57,-1 -89,-5zm190 -127c-12,-26 -40,-32 -30,-55l54 -136c4,-7 58,-26 66,-29l91 88c-1,45 -31,102 -51,131l-130 1zm-347 -220c12,1 68,15 72,23 7,12 19,56 25,71 8,24 15,47 24,71 5,15 -4,20 -11,30 -7,9 -14,18 -21,28 -27,2 -85,-5 -112,-7 -18,-1 -17,-1 -32,-30 -7,-14 -13,-28 -18,-43 -5,-13 -10,-32 -12,-47 -2,-14 6,-17 25,-35l60 -61zm9 -25c-6,-11 -26,-91 -31,-110 -5,-16 -1,-16 7,-25 22,-29 66,-61 99,-76 28,-14 21,-14 45,3 27,19 56,39 84,56l-1 75 -116 85c-10,7 -13,14 -25,11 -15,-4 -51,-13 -62,-19zm228 -148c4,-10 49,-37 58,-43 46,-29 36,-34 61,-22 22,11 42,24 59,38 35,27 27,27 49,47 0,17 -21,84 -26,103 -9,29 -2,24 -29,35 -15,5 -34,15 -47,17l-111 -91c-6,-5 -11,-8 -14,-15l0 -69zm216 -28l-44 -33c-42,-30 -84,-46 -136,-55 -55,-7 -105,-5 -161,14 -98,33 -189,120 -216,231 -70,278 196,485 432,404 83,-28 130,-74 170,-128 46,-62 67,-157 56,-235 -7,-57 -42,-141 -84,-178l-17 -20z"/>
  <path class="fil1" d="M12421 6804c11,6 47,15 62,19 12,3 15,-4 25,-11l116 -85 1 -75c-28,-17 -57,-37 -84,-56 -24,-17 -17,-17 -45,-3 -33,15 -77,47 -99,76 -8,9 -12,9 -7,25 5,19 25,99 31,110z"/>
  <path class="fil1" d="M12649 6656l0 69c3,7 8,10 14,15l111 91c13,-2 32,-12 47,-17 27,-11 20,-6 29,-35 5,-19 26,-86 26,-103 -22,-20 -14,-20 -49,-47 -17,-14 -37,-27 -59,-38 -25,-12 -15,-7 -61,22 -9,6 -54,33 -58,43z"/>
  <path class="fil1" d="M12352 6890c-19,18 -27,21 -25,35 2,15 7,34 12,47 5,15 11,29 18,43 15,29 14,29 32,30 27,2 85,9 112,7 7,-10 14,-19 21,-28 7,-10 16,-15 11,-30 -9,-24 -16,-47 -24,-71 -6,-15 -18,-59 -25,-71 -4,-8 -60,-22 -72,-23l-60 61z"/>
  <path class="fil1" d="M12759 7049l130 -1c20,-29 50,-86 51,-131l-91 -88c-8,3 -62,22 -66,29l-54 136c-10,23 18,29 30,55z"/>
  <path class="fil1" d="M12569 7176c32,4 54,8 89,5 17,-1 27,1 33,-13l38 -79c8,-18 14,-22 8,-30 -6,-8 -27,-29 -32,-38 -38,-1 -78,-1 -116,-1 -30,1 -31,-3 -44,15 -7,9 -19,23 -24,33l48 108z"/>
  <path class="fil5" d="M2219 4900l-21 85 -118 -30c-24,-6 -42,-3 -56,8 -13,12 -23,31 -31,60l-38 152 -70 -18 38 -151c6,-23 6,-41 0,-55 -5,-14 -15,-23 -30,-27 -16,-4 -29,-2 -39,6 -9,9 -17,26 -24,53l-31 125 -70 -18 31 -125c12,-49 31,-85 57,-107 26,-23 55,-30 87,-22 21,5 38,15 50,29 13,13 21,30 24,52 12,-22 28,-37 48,-45 21,-8 45,-9 73,-2l120 30zm164 -418c-12,12 -22,22 -32,30 -10,8 -19,14 -28,20 5,16 8,35 7,56 -2,20 -7,44 -17,71 -20,56 -48,92 -85,109 -36,17 -85,15 -147,-8l-238 -86 29 -82 227 82c35,13 61,20 77,20 16,0 30,-5 42,-14 11,-10 21,-25 28,-45 5,-12 8,-23 9,-33 2,-10 3,-19 2,-26 -5,5 -11,11 -17,17 -6,7 -13,14 -19,23l-61 -49c9,-9 17,-18 26,-25 8,-7 16,-13 24,-19 -8,-2 -16,-4 -25,-6 -9,-1 -18,-4 -27,-7l-226 -82 29 -81 238 86c17,5 32,12 46,19 14,7 27,15 38,25 7,-6 14,-12 21,-19 7,-8 15,-16 22,-26l57 50zm99 -241c-26,54 -57,91 -94,109 -36,18 -76,17 -120,-1l29 -81c27,9 51,9 70,-1 20,-10 36,-29 49,-57 13,-28 18,-51 15,-70 -3,-19 -15,-33 -34,-42 -17,-8 -33,-7 -49,3 -16,11 -31,29 -43,55l-80 167 -65 -31 79 -167c10,-20 13,-38 10,-53 -3,-15 -12,-26 -28,-34 -16,-8 -30,-7 -42,1 -13,8 -24,22 -33,41 -11,23 -15,42 -11,55 3,14 14,26 31,36l-44 75c-35,-18 -56,-45 -63,-79 -6,-35 1,-74 22,-118 21,-44 47,-75 78,-92 31,-17 63,-17 98,-1 19,9 33,23 42,41 10,18 13,36 10,55 15,-21 35,-34 59,-41 24,-6 47,-4 69,6 39,19 63,48 71,87 8,38 0,84 -26,137zm294 -554c-14,10 -26,18 -37,24 -10,6 -21,12 -30,16 3,17 3,35 -2,56 -4,20 -13,43 -26,68 -29,52 -62,84 -101,96 -38,11 -86,1 -144,-30l-223 -121 42 -76 211 114c34,18 58,29 74,31 16,2 30,0 43,-8 13,-7 24,-21 35,-40 6,-11 11,-22 14,-31 3,-9 5,-18 5,-26 -6,5 -12,9 -19,15 -7,6 -15,12 -23,20l-52 -57c10,-9 20,-16 29,-21 9,-6 18,-11 26,-15 -7,-4 -15,-7 -24,-10 -8,-3 -16,-7 -25,-11l-211 -115 41 -76 223 120c15,8 29,17 42,26 13,9 24,19 33,30 8,-4 16,-10 24,-16 8,-6 17,-13 26,-21l49 58zm25 -385l-204 -138 48 -72 210 141c56,38 88,76 95,115 7,38 -5,82 -38,130 -33,49 -69,77 -107,85 -39,7 -86,-8 -142,-45l-210 -142 49 -72 204 138c30,20 52,31 67,35 14,4 28,3 41,-3 13,-5 26,-17 39,-36 12,-18 18,-34 19,-48 0,-15 -5,-28 -14,-40 -9,-13 -28,-29 -57,-48zm182 -193c24,15 46,22 66,19 19,-2 38,-15 56,-37 18,-21 27,-40 28,-58 1,-17 -5,-32 -20,-44 -10,-8 -21,-11 -34,-8 -13,3 -35,15 -66,37l-31 23c-35,26 -67,40 -95,43 -28,2 -55,-7 -80,-27 -28,-23 -41,-53 -40,-89 1,-36 17,-72 47,-108 33,-40 67,-63 103,-71 36,-8 70,1 103,27l-52 69c-19,-12 -35,-17 -51,-13 -16,4 -32,15 -48,34 -14,18 -23,34 -26,48 -2,15 2,26 12,35 10,8 23,10 37,4 15,-6 35,-18 61,-38 26,-20 50,-36 73,-48 22,-12 46,-18 69,-17 24,0 47,10 69,28 34,28 51,62 50,100 -1,39 -19,79 -53,121 -35,42 -72,67 -110,74 -38,7 -77,-3 -117,-31l49 -73zm584 -423c-16,7 -29,12 -42,15 -12,4 -23,6 -33,8 -1,17 -6,35 -15,54 -9,19 -23,39 -42,60 -40,44 -80,67 -120,68 -40,2 -85,-19 -134,-63l-187 -171 59 -64 178 162c28,26 49,41 64,47 15,7 29,8 44,3 14,-4 28,-14 43,-30 9,-10 16,-19 21,-27 5,-9 9,-16 12,-24 -7,3 -15,6 -23,10 -8,4 -17,8 -26,14l-38 -68c12,-6 23,-11 33,-14 10,-3 20,-6 30,-8 -7,-5 -14,-10 -21,-15 -8,-5 -15,-11 -22,-17l-178 -162 59 -64 187 170c13,12 24,23 35,35 10,12 18,25 25,37 9,-2 17,-5 27,-9 9,-4 19,-9 30,-15l34 68zm12 -274c22,24 41,41 55,49 14,8 28,11 42,8 14,-2 29,-11 46,-26 16,-14 26,-29 30,-42 4,-14 2,-28 -5,-43 -6,-15 -21,-35 -43,-59l-9 -10 65 -58 13 14c45,50 67,94 65,134 -2,39 -25,78 -68,117 -44,40 -85,58 -124,57 -39,-2 -82,-28 -127,-78l-121 -134 -54 49 -49 -53 118 -108 166 183zm355 -247l83 111 -70 52 -257 -344 70 -52 77 104c6,-13 14,-24 23,-35 8,-10 20,-21 34,-31 47,-35 89,-50 128,-45 39,6 79,35 119,90l15 20 -69 52 -12 -15c-21,-28 -38,-47 -50,-55 -13,-8 -27,-12 -41,-11 -14,1 -30,8 -48,21 -17,13 -28,25 -33,38 -5,13 -6,26 -3,40 4,14 15,34 34,60zm607 -466l-129 -210 75 -45 131 216c35,57 48,105 39,143 -10,39 -40,73 -90,103 -50,31 -94,41 -132,32 -38,-9 -75,-42 -110,-100l-131 -216 74 -45 128 210c18,30 34,50 46,60 11,9 24,14 39,15 14,0 30,-5 49,-17 19,-11 32,-23 38,-36 6,-13 7,-27 5,-42 -3,-15 -14,-37 -32,-68zm394 -211l79 -38 5 12c29,59 36,106 23,143 -13,37 -46,68 -99,94 -52,25 -97,32 -135,19 -37,-13 -70,-50 -99,-110l-110 -228 78 -38 51 106 241 -116 32 65 -241 117 24 50c15,31 29,53 40,64 11,10 23,17 37,18 14,2 32,-2 51,-12 20,-9 34,-20 41,-32 8,-12 11,-25 9,-40 -1,-15 -9,-38 -24,-68l-3 -6zm363 -226c-13,-31 -25,-52 -36,-65 -11,-13 -23,-20 -37,-22 -14,-2 -32,1 -52,10 -20,8 -34,18 -43,30 -8,12 -11,26 -10,42 2,17 9,40 22,70l5 12 -80 34 -8 -17c-26,-63 -32,-112 -17,-148 15,-36 49,-66 103,-89 54,-23 99,-27 136,-12 36,14 68,52 94,115l71 166 66 -29 29 67 -147 62 -96 -226zm639 61c-17,-2 -31,-5 -43,-8 -12,-3 -23,-6 -33,-10 -10,15 -23,28 -40,39 -18,12 -40,22 -67,31 -57,18 -103,17 -138,-2 -36,-18 -64,-59 -83,-122l-76 -241 83 -26 72 229c11,37 22,61 32,74 9,13 21,21 36,24 14,4 32,2 53,-4 12,-4 23,-9 32,-13 8,-5 16,-9 21,-14 -7,-2 -15,-3 -24,-4 -9,0 -19,-1 -30,-1l2 -78c13,1 25,3 36,5 10,2 20,5 29,8 -3,-8 -6,-15 -10,-24 -4,-8 -8,-16 -11,-25l-72 -230 83 -26 76 242c5,16 9,32 12,48 3,15 4,30 3,45 9,2 19,4 29,5 10,2 21,2 33,3l-5 75zm148 -235c7,32 14,56 23,70 8,15 19,24 32,29 13,5 31,5 52,1 22,-5 38,-12 48,-22 10,-9 16,-23 18,-39 2,-17 -1,-41 -8,-73l-2 -13 85 -18 4 19c14,66 10,116 -12,148 -21,33 -61,55 -118,67 -58,12 -103,8 -135,-14 -33,-21 -57,-65 -71,-131l-37 -176 -71 15 -15 -71 157 -33 50 241zm424 -34l22 137 -86 14 -67 -425 86 -13 20 128c11,-9 23,-15 36,-21 13,-5 28,-9 45,-11 58,-10 103,-3 134,20 32,23 53,68 64,135l4 25 -86 13 -3 -18c-5,-35 -12,-59 -19,-72 -8,-14 -18,-23 -31,-29 -13,-6 -30,-7 -52,-4 -21,3 -37,10 -47,18 -11,9 -18,21 -21,35 -4,14 -3,37 1,68zm583 -81c0,2 0,4 0,7 0,28 7,49 20,62 13,13 36,21 68,24l-1 -173c-45,0 -80,-9 -103,-25 -24,-16 -36,-39 -37,-69 0,-29 12,-52 37,-68 24,-16 58,-25 102,-25l87 -1 1 121c58,1 102,15 132,42 31,26 46,64 46,112 1,54 -18,94 -55,122 -37,28 -92,42 -164,42 -72,1 -128,-13 -166,-40 -37,-28 -56,-68 -57,-121 0,-5 0,-10 1,-15 0,-5 0,-10 1,-14l88 19zm175 92c34,-3 57,-12 70,-25 12,-13 18,-33 18,-59 0,-26 -7,-45 -21,-58 -13,-13 -36,-21 -68,-24l1 166zm-88 -241l-1 -54c-26,0 -43,3 -50,8 -8,5 -11,12 -11,21 0,9 5,15 15,19 10,4 26,6 47,6zm447 70l-24 245 -86 -8 24 -252c6,-67 24,-113 55,-138 30,-25 74,-35 133,-29 58,5 100,23 125,53 25,30 34,79 28,146l-24 252 -86 -8 23 -245c3,-35 3,-60 -1,-75 -4,-15 -11,-26 -22,-35 -11,-9 -28,-15 -50,-17 -22,-2 -40,0 -52,7 -13,7 -22,17 -29,30 -6,14 -11,39 -14,74zm442 54l-35 237 -86 -13 62 -425 86 13 -17 117 184 26 -11 72 -183 -27zm291 140c-1,29 3,51 15,67 11,16 31,27 59,33 27,5 49,4 65,-3 16,-8 26,-21 29,-39 3,-12 -1,-23 -9,-34 -9,-10 -30,-24 -65,-40l-34 -17c-39,-19 -67,-40 -83,-63 -15,-24 -20,-51 -14,-83 7,-36 27,-62 59,-77 32,-16 72,-20 118,-10 51,10 87,29 111,56 24,28 32,63 26,104l-87 -13c3,-22 -1,-39 -12,-51 -11,-13 -29,-21 -53,-26 -22,-4 -41,-4 -54,0 -14,5 -23,14 -25,27 -3,13 2,24 14,35 12,10 33,22 62,35 30,13 55,27 77,41 21,14 37,32 48,53 11,21 13,46 8,74 -9,43 -31,74 -65,91 -34,18 -78,22 -131,11 -54,-10 -93,-31 -117,-61 -25,-31 -34,-70 -29,-118l87 8zm455 6l-21 67 256 78 -21 70 -256 -78 -30 98 -84 -25 74 -242c20,-65 47,-106 82,-124 35,-19 80,-19 136,-2 56,17 94,43 112,77 19,35 18,84 -2,149l-7 24 -83 -25 5 -18c11,-34 15,-58 15,-74 -1,-15 -6,-28 -15,-39 -9,-11 -25,-20 -46,-26 -21,-6 -38,-8 -52,-4 -14,4 -25,12 -34,25 -9,12 -19,35 -29,69zm420 137l-83 232 -82 -30 86 -238c23,-63 52,-103 88,-120 35,-16 81,-15 136,5 55,20 91,48 108,83 17,36 13,85 -10,149l-86 238 -81 -30 83 -232c12,-33 18,-57 18,-72 0,-15 -4,-28 -12,-40 -9,-11 -24,-21 -45,-29 -20,-7 -38,-9 -52,-6 -14,4 -25,11 -35,23 -10,11 -21,34 -33,67zm238 360l186 -387 78 37 -154 322 194 93 -31 66 -273 -131zm456 74l-66 121 -76 -41 204 -378 76 42 -61 113c14,1 27,3 41,6 13,4 27,10 42,18 52,28 83,61 95,98 11,37 1,86 -31,145l-12 23 -77 -42 9 -16c17,-31 26,-54 28,-69 3,-15 1,-29 -6,-42 -7,-12 -20,-24 -40,-34 -18,-10 -34,-15 -48,-14 -14,0 -27,5 -38,14 -11,9 -24,28 -40,56zm513 286c-1,1 -2,3 -4,5 -17,23 -24,43 -21,62 2,18 16,38 40,60l103 -138c-36,-28 -58,-56 -67,-83 -10,-27 -6,-53 12,-77 18,-23 42,-34 71,-33 29,2 61,16 96,43l70 52 -72 96c45,36 72,74 80,114 8,39 -2,78 -31,117 -32,43 -71,64 -118,64 -46,-1 -98,-22 -156,-65 -58,-44 -94,-88 -107,-133 -14,-45 -5,-88 27,-130 3,-4 6,-8 9,-12 3,-4 7,-8 10,-11l58 69zm84 179c30,18 53,25 71,22 18,-3 34,-15 50,-36 16,-21 22,-41 19,-59 -3,-19 -16,-39 -40,-60l-100 133zm75 -246l33 -43c-21,-16 -37,-24 -45,-24 -9,-1 -16,3 -22,10 -5,7 -5,15 1,25 5,9 17,20 33,32zm398 484l64 58 -9 10c-44,49 -86,74 -125,75 -39,2 -80,-17 -123,-57 -44,-39 -66,-78 -68,-118 -2,-39 19,-84 65,-133l170 -188 64 59 -79 87 198 180 -49 54 -198 -180 -37 41c-24,26 -39,46 -45,61 -6,14 -7,28 -3,42 3,13 13,28 30,42 16,15 31,24 45,26 14,3 28,1 41,-6 13,-7 31,-23 54,-48l5 -5zm346 251c23,-24 38,-43 46,-58 8,-14 10,-29 7,-43 -4,-13 -13,-28 -29,-44 -15,-15 -30,-25 -44,-28 -14,-3 -28,-1 -43,6 -14,8 -33,23 -57,47l-9 9 -61 -62 13 -13c48,-48 91,-72 131,-72 39,1 79,21 121,63 41,41 62,82 62,121 0,39 -24,83 -71,131l-55 54 51 51 -51 52 -51 -52 -73 73 -62 -61 175 -174zm269 403l55 67 -10 9c-50,41 -95,60 -134,56 -39,-4 -77,-29 -114,-74 -38,-45 -54,-87 -51,-126 4,-39 32,-80 84,-123l195 -161 55 67 -91 75 170 206 -56 47 -170 -207 -43 35c-27,23 -44,41 -52,54 -8,13 -12,27 -10,41 2,14 10,30 24,47 14,17 27,27 41,32 13,4 27,4 41,-1 14,-5 35,-18 61,-39l5 -5zm220 188l-205 138 -48 -72 209 -142c56,-37 104,-52 142,-45 39,8 74,36 107,84 33,49 46,93 38,131 -7,39 -38,77 -95,115l-20 14 -49 -72 15 -11c30,-20 49,-36 58,-48 9,-12 13,-25 13,-40 0,-14 -7,-30 -19,-49 -12,-18 -25,-30 -38,-35 -14,-6 -28,-7 -42,-3 -15,4 -37,15 -66,35zm154 727c-2,-16 -3,-31 -3,-43 0,-13 1,-25 2,-35 -16,-6 -32,-15 -48,-29 -15,-14 -30,-33 -45,-58 -31,-51 -42,-96 -32,-135 10,-38 43,-75 99,-109l216 -132 45 75 -205 125c-33,19 -54,35 -64,48 -10,12 -15,26 -15,41 0,15 6,31 17,50 7,11 13,21 20,28 6,7 13,13 19,18 -1,-8 -1,-16 -3,-25 -1,-9 -3,-18 -6,-29l76 -16c2,12 4,24 4,35 0,11 0,21 -1,31 7,-5 14,-10 21,-16 7,-6 14,-11 22,-16l206 -125 45 74 -216 131c-15,9 -30,17 -44,24 -14,6 -29,11 -43,14 0,9 1,18 2,28 1,10 3,21 5,33l-74 13zm480 236c-19,9 -38,11 -58,8 -21,-4 -37,-13 -49,-27 6,24 4,48 -6,71 -10,23 -26,39 -47,50 -40,19 -77,19 -112,2 -36,-18 -66,-53 -92,-106 -26,-54 -35,-101 -26,-141 9,-40 34,-71 76,-94l46 73c-25,16 -40,34 -44,56 -4,21 1,46 14,74 14,28 29,46 45,55 17,9 35,9 55,0 16,-8 26,-22 28,-41 2,-19 -4,-42 -17,-68l-80 -166 65 -32 23 47c3,-11 8,-21 15,-30 7,-8 15,-15 25,-20 34,-16 66,-16 97,2 32,17 58,47 79,91 21,44 29,84 23,119 -6,35 -26,60 -60,77zm-122 -120c10,20 22,34 36,41 14,7 29,7 44,0 15,-8 24,-18 26,-32 2,-14 -1,-32 -12,-54 -9,-20 -21,-34 -33,-41 -12,-8 -27,-8 -42,-1 -16,8 -26,19 -29,34 -3,15 1,33 10,53zm38 390l-130 48 -30 -81 403 -149 30 81 -121 45c10,10 19,20 27,32 7,11 14,25 20,41 20,55 22,100 6,136 -16,36 -56,65 -119,89l-24 8 -30 -81 17 -7c33,-12 56,-23 67,-33 12,-9 19,-21 23,-35 3,-14 1,-32 -7,-52 -7,-20 -16,-34 -27,-43 -11,-9 -24,-13 -38,-14 -14,0 -37,5 -67,15zm77 706c1,-17 4,-31 7,-43 3,-12 7,-23 10,-33 -14,-9 -27,-23 -39,-40 -11,-17 -22,-39 -30,-67 -18,-56 -18,-103 1,-138 19,-36 59,-63 122,-83l242 -76 26 83 -230 72c-36,12 -60,22 -73,32 -13,10 -21,22 -25,36 -3,14 -2,32 5,53 4,12 8,23 13,32 4,8 9,16 14,22 1,-8 2,-16 3,-25 1,-9 1,-19 1,-30l78 3c-1,13 -3,24 -5,35 -2,10 -5,20 -8,29 8,-2 16,-6 24,-10 8,-4 17,-7 25,-10l230 -73 26 83 -241 76c-17,6 -33,10 -48,12 -16,3 -31,4 -45,4 -2,8 -4,18 -6,28 -1,10 -2,21 -2,34l-75 -6z"/>
  <circle class="fil6" transform="matrix(1.23829 0.149184 -0.149184 1.23829 7339.96 6449.72)" r="4262"/>
  <path class="fil5" d="M11954 8930l44 -83 103 13 81 -152 -70 -78 43 -81 302 348 -43 81 -460 -48zm225 -61l168 21 -113 -125 -55 104zm-245 103l359 236 -101 153c-25,38 -47,64 -65,77 -17,13 -38,19 -61,19 -24,-1 -46,-8 -67,-22 -27,-17 -44,-40 -51,-67 -7,-28 -3,-58 13,-93 -19,10 -38,16 -55,19 -18,3 -46,4 -86,3l-98 -3 57 -86 112 0c40,-1 66,-2 78,-4 12,-2 21,-6 29,-12 8,-6 17,-17 28,-34l10 -15 -150 -99 48 -72zm159 209l-35 53c-23,35 -36,58 -39,68 -2,11 -2,21 2,31 4,9 12,18 22,25 12,8 24,11 36,9 12,-1 22,-7 32,-18 5,-5 17,-22 36,-52l37 -56 -91 -60zm-398 151l347 253 -76 105 -282 -110 192 234 -77 105 -347 -253 47 -65 273 199 -223 -267 49 -68 323 131 -273 -199 47 -65zm-305 396l321 285 -211 238 -55 -48 154 -173 -72 -63 -142 160 -54 -48 142 -160 -87 -78 -159 179 -54 -48 217 -244zm-268 297l292 315 -62 57 -325 -90 196 211 -59 54 -292 -314 63 -59 320 88 -192 -207 59 -55zm-318 290l277 329 -67 56 -276 -329 66 -56zm-437 345l75 -57 88 55 137 -104 -31 -100 73 -56 128 443 -73 56 -397 -237zm230 39l144 90 -51 -162 -93 72zm-269 -14l226 365 -72 45 -301 -152 151 245 -69 42 -225 -366 74 -45 296 148 -148 -240 68 -42zm-639 408l157 321 114 -56 32 65 -306 149 -32 -65 114 -55 -157 -321 78 -38zm-559 249l87 -37 72 75 158 -67 -5 -104 84 -36 16 460 -85 36 -327 -327zm213 94l118 123 -9 -169 -109 46zm-130 327l-164 51c-32,10 -57,17 -74,19 -17,2 -33,1 -48,-4 -15,-4 -29,-12 -42,-24 -13,-11 -22,-26 -28,-44 -5,-19 -6,-38 -1,-57 6,-20 16,-36 31,-49 -27,0 -50,-6 -69,-20 -19,-13 -32,-32 -39,-55 -6,-19 -7,-39 -4,-59 3,-20 10,-38 22,-53 12,-16 28,-28 49,-37 14,-6 47,-17 99,-34l140 -44 128 410zm-104 -42l-30 -95 -54 17c-32,10 -52,17 -59,21 -14,6 -24,14 -29,25 -6,10 -7,22 -2,35 3,13 10,22 20,28 9,6 21,7 35,4 9,-1 32,-8 71,-20l48 -15zm-51 -163l-34 -110 -77 24c-30,10 -49,16 -56,21 -12,6 -20,14 -25,25 -5,12 -5,24 -1,39 4,12 10,22 19,29 9,6 19,10 32,10 12,1 37,-5 75,-17l67 -21zm-390 -80l106 412 -84 22 -88 -342 -209 54 -18 -71 293 -75zm-354 85l65 425 -315 48 -11 -72 229 -35 -15 -94 -212 32 -11 -71 212 -33 -17 -115 -237 36 -11 -72 323 -49zm-532 215l-84 13c-6,-28 -17,-48 -34,-61 -16,-12 -37,-18 -63,-16 -28,1 -49,8 -62,20 -14,13 -20,27 -19,43 0,10 4,18 10,25 6,7 17,13 32,17 10,3 34,8 70,15 47,10 80,22 99,38 28,23 42,51 44,85 1,22 -4,43 -15,62 -12,20 -29,35 -51,46 -23,12 -51,18 -84,20 -53,2 -95,-8 -123,-30 -28,-23 -44,-54 -47,-93l86 -8c5,22 14,38 26,47 13,9 31,13 56,12 25,-2 44,-8 57,-19 9,-7 13,-16 13,-27 -1,-10 -5,-19 -14,-26 -12,-8 -39,-17 -81,-25 -43,-7 -74,-16 -95,-26 -21,-9 -37,-23 -49,-41 -13,-18 -20,-40 -21,-67 -1,-25 4,-48 17,-70 13,-23 31,-40 56,-51 24,-12 55,-19 92,-21 54,-2 97,8 127,32 30,23 49,59 57,106zm-422 100c-2,44 -10,80 -25,110 -11,21 -25,40 -43,56 -18,17 -37,29 -57,36 -27,10 -59,15 -94,13 -63,-3 -112,-26 -148,-67 -36,-41 -53,-96 -49,-166 3,-70 25,-123 64,-160 40,-38 91,-55 154,-52 64,3 114,25 150,66 35,41 52,96 48,164zm-89 -1c2,-49 -7,-86 -28,-113 -22,-26 -50,-40 -84,-41 -35,-2 -64,9 -87,33 -24,23 -37,60 -39,110 -2,49 6,87 27,112 20,25 48,39 84,40 36,2 65,-9 88,-32 24,-23 36,-60 39,-109zm-673 -105l-81 -34c17,-46 42,-79 74,-99 33,-20 72,-27 117,-23 57,6 102,30 135,72 32,43 45,98 39,165 -8,71 -31,125 -72,160 -41,36 -91,51 -151,45 -52,-5 -93,-25 -123,-59 -17,-20 -29,-48 -36,-83l88 -12c3,22 11,41 26,55 15,15 34,23 57,25 31,4 58,-5 80,-26 22,-21 36,-57 41,-108 5,-53 -1,-93 -18,-118 -17,-25 -41,-39 -72,-42 -23,-2 -44,3 -62,16 -18,13 -32,35 -42,66zm-442 -79l-77 -41c22,-44 50,-74 84,-91 34,-17 73,-21 118,-11 56,11 98,39 127,85 28,45 36,101 22,167 -14,70 -43,121 -87,153 -44,31 -95,41 -154,29 -52,-10 -90,-34 -116,-71 -16,-22 -25,-50 -28,-86l88 -3c1,23 8,42 21,58 13,16 31,26 54,30 31,6 59,0 83,-18 24,-19 41,-53 51,-103 10,-53 8,-93 -6,-119 -15,-27 -38,-43 -68,-49 -23,-5 -44,-2 -63,10 -19,11 -36,31 -49,60zm-125 -184l-125 411 -304 -93 21 -69 221 67 28 -91 -205 -63 21 -69 205 62 34 -111 -229 -70 21 -69 312 95zm-383 -116l-144 404 -172 -61c-43,-16 -73,-31 -90,-45 -17,-14 -28,-33 -34,-56 -5,-22 -3,-46 5,-70 11,-30 29,-52 54,-65 25,-14 56,-17 93,-9 -14,-17 -24,-33 -31,-50 -7,-16 -15,-43 -23,-82l-21 -96 97 35 27 109c10,39 17,64 22,75 5,10 11,19 19,25 8,6 21,13 40,19l16 6 61 -169 81 30zm-165 204l-60 -22c-39,-14 -64,-21 -75,-21 -11,0 -21,3 -29,9 -9,6 -15,15 -20,27 -4,14 -5,26 0,37 4,11 12,20 25,27 6,3 26,11 59,23l63 22 37 -102zm-392 -425l-182 389 -268 -126 31 -65 189 88 43 -92 -163 -77 31 -65 163 76 77 -165 79 37zm-329 -161l-219 369 -273 -162 37 -62 199 117 48 -82 -185 -109 37 -63 185 110 59 -100 -205 -122 36 -63 281 167zm-600 146l-127 -93c-29,-21 -50,-39 -61,-55 -16,-20 -26,-44 -29,-70 -4,-26 -1,-52 8,-80 8,-28 24,-58 48,-90 21,-29 42,-51 65,-66 27,-19 54,-31 81,-35 21,-3 44,0 70,8 19,7 41,19 67,38l131 96 -253 347zm-27 -110l167 -229 -52 -38c-19,-15 -34,-24 -44,-28 -14,-5 -27,-7 -39,-6 -12,1 -27,8 -43,20 -16,12 -34,32 -53,59 -20,26 -32,49 -38,66 -6,18 -7,34 -5,48 3,15 10,28 21,40 8,10 26,25 55,45l31 23zm-69 -492l-270 334 -247 -199 45 -57 180 145 60 -74 -167 -135 45 -56 167 134 73 -90 -186 -150 46 -57 254 205zm-311 -253l-300 307 -130 -127c-33,-32 -54,-59 -64,-79 -9,-20 -12,-41 -7,-64 5,-23 16,-43 34,-61 23,-24 48,-36 76,-38 28,-2 58,9 88,31 -5,-21 -8,-40 -8,-58 1,-18 5,-46 14,-84l21 -97 74 73 -21 110c-7,40 -11,65 -11,77 0,12 2,22 6,31 5,9 14,20 28,34l13 13 125 -129 62 61zm-235 116l-46 -44c-30,-29 -49,-46 -59,-51 -10,-5 -20,-6 -30,-4 -11,2 -20,8 -29,17 -10,10 -16,21 -16,33 -1,12 3,24 11,35 5,6 19,21 44,45l49 48 76 -79zm-335 -704l63 68 -46 94 117 126 96 -40 63 67 -428 170 -63 -67 198 -418zm-17 232l-76 152 156 -66 -80 -86zm-38 -315l-283 216 77 101 -58 44 -207 -271 58 -44 77 101 284 -217 52 70zm-159 -214l-354 243 -50 -71 354 -244 50 72zm-269 -12c-37,23 -72,37 -104,41 -24,4 -48,2 -72,-3 -23,-5 -44,-14 -62,-27 -23,-16 -45,-40 -63,-69 -33,-54 -43,-108 -30,-161 14,-53 50,-98 110,-135 59,-36 115,-49 169,-37 53,11 96,44 129,98 34,54 44,108 30,160 -13,53 -49,97 -107,133zm-50 -74c42,-26 67,-55 77,-87 9,-33 5,-64 -13,-93 -18,-30 -44,-47 -77,-53 -33,-6 -70,4 -113,31 -42,26 -67,54 -76,85 -10,31 -5,62 14,93 19,30 44,48 77,54 32,6 69,-4 111,-30zm-21 -452l-386 189 -37 -76 181 -285 -259 126 -35 -72 386 -188 38 78 -177 280 253 -124 36 72z"/>
  <circle class="fil6" transform="matrix(-1.21527 0.280579 -0.280579 -1.21527 7306.66 6340.8)" r="4262"/>
  <path class="fil4" d="M1844 7176l-49 -108c5,-10 18,-24 25,-33 13,-18 14,-14 43,-15 39,0 79,0 117,1 5,9 26,30 31,38 7,8 1,12 -7,30l-38 79c-7,14 -16,12 -33,13 -35,3 -57,-1 -89,-5zm189 -127c-11,-26 -39,-32 -30,-55l55 -136c4,-7 58,-26 66,-29l91 88c-1,45 -32,102 -51,131l-131 1zm-346 -220c12,1 67,15 72,23 7,12 19,56 25,71 8,24 15,47 24,71 5,15 -4,20 -11,30 -7,9 -14,18 -21,28 -27,2 -85,-5 -112,-7 -18,-1 -17,-1 -32,-30 -7,-14 -13,-28 -18,-43 -5,-13 -10,-32 -12,-47 -2,-14 6,-17 25,-35l60 -61zm9 -25c-7,-11 -26,-91 -32,-110 -4,-16 0,-16 7,-25 22,-29 67,-61 100,-76 28,-14 21,-14 45,3 27,19 55,39 83,56l0 75 -116 85c-10,7 -13,14 -26,11 -14,-4 -50,-13 -61,-19zm228 -148c4,-10 49,-37 58,-43 46,-29 36,-34 60,-22 23,11 43,24 60,38 35,27 27,27 49,47 0,17 -21,84 -27,103 -8,29 -1,24 -28,35 -15,5 -34,15 -47,17l-111 -91c-6,-5 -11,-8 -14,-15l0 -69zm216 -28l-44 -33c-42,-30 -84,-46 -136,-55 -55,-7 -106,-5 -161,14 -98,33 -189,120 -217,231 -69,278 196,485 433,404 83,-28 130,-74 170,-128 45,-62 66,-157 56,-235 -8,-57 -42,-141 -84,-178l-17 -20z"/>
  <path class="fil1" d="M1696 6804c11,6 47,15 61,19 13,3 16,-4 26,-11l116 -85 0 -75c-28,-17 -56,-37 -83,-56 -24,-17 -17,-17 -45,-3 -33,15 -78,47 -100,76 -7,9 -11,9 -7,25 6,19 25,99 32,110z"/>
  <path class="fil1" d="M1924 6656l0 69c3,7 8,10 14,15l111 91c13,-2 32,-12 47,-17 27,-11 20,-6 28,-35 6,-19 27,-86 27,-103 -22,-20 -14,-20 -49,-47 -17,-14 -37,-27 -60,-38 -24,-12 -14,-7 -60,22 -9,6 -54,33 -58,43z"/>
  <path class="fil1" d="M1627 6890c-19,18 -27,21 -25,35 2,15 7,34 12,47 5,15 11,29 18,43 15,29 14,29 32,30 27,2 85,9 112,7 7,-10 14,-19 21,-28 7,-10 16,-15 11,-30 -9,-24 -16,-47 -24,-71 -6,-15 -18,-59 -25,-71 -5,-8 -60,-22 -72,-23l-60 61z"/>
  <path class="fil1" d="M2033 7049l131 -1c19,-29 50,-86 51,-131l-91 -88c-8,3 -62,22 -66,29l-55 136c-9,23 19,29 30,55z"/>
  <path class="fil1" d="M1844 7176c32,4 54,8 89,5 17,-1 26,1 33,-13l38 -79c8,-18 14,-22 7,-30 -5,-8 -26,-29 -31,-38 -38,-1 -78,-1 -117,-1 -29,1 -30,-3 -43,15 -7,9 -20,23 -25,33l49 108z"/>
  <g style="clip-path:url(#id1)">
   <image x="4506" y="5824" width="1185" height="279" xlink:href="ATSF SVG_Images\ATSF SVG_ImgID2.png"/>
  </g>
  <polygon class="fil7" points="10087,5749 10816,5749 10816,6156 10519,6156 10519,6545 10783,6545 10783,6931 10519,6931 10519,7786 10087,7786 "/>
  <path class="fil7" d="M8772 6380l-381 0 0 -145c0,-68 -5,-111 -15,-130 -9,-18 -25,-27 -48,-27 -25,0 -43,12 -56,37 -13,25 -19,63 -19,114 0,65 7,114 22,147 14,33 52,73 116,120 182,136 297,247 344,333 48,87 71,226 71,418 0,140 -13,243 -39,310 -26,66 -77,122 -153,166 -75,45 -163,68 -263,68 -110,0 -203,-26 -281,-78 -78,-52 -128,-117 -153,-197 -24,-81 -36,-194 -36,-341l0 -129 382 0 0 239c0,73 5,121 16,142 11,21 30,31 57,31 27,0 48,-13 61,-40 13,-27 20,-66 20,-118 0,-116 -13,-192 -38,-227 -26,-35 -90,-95 -192,-179 -102,-84 -169,-145 -203,-183 -33,-38 -60,-91 -82,-158 -22,-67 -33,-152 -33,-257 0,-150 16,-260 47,-329 31,-70 80,-124 149,-163 69,-40 152,-59 250,-59 106,0 197,21 272,64 75,43 125,97 149,162 24,65 36,176 36,332l0 77z"/>
  <polygon class="fil7" points="6660,5749 6660,6156 6416,6156 6416,7786 6002,7786 6002,6156 5756,6156 5756,5749 "/>
  <path class="fil7" d="M4426 5749l248 2037 -443 0 -23 -365 -156 0 -24 365 -448 0 220 -2037 626 0zm-230 1311c-20,-231 -42,-517 -65,-858 -43,392 -70,677 -82,858l147 0z"/>
  <g style="clip-path:url(#id2)">
   <image x="6724" y="5824" width="1245" height="279" xlink:href="ATSF SVG_Images\ATSF SVG_ImgID3.png"/>
  </g>
  <g style="clip-path:url(#id3)">
   <image x="8672" y="5824" width="1346" height="279" xlink:href="ATSF SVG_Images\ATSF SVG_ImgID4.png"/>
  </g>
  <g style="clip-path:url(#id4)">
   <image x="10890" y="5824" width="965" height="279" xlink:href="ATSF SVG_Images\ATSF SVG_ImgID5.png"/>
  </g>
 </g>
</svg>
