<?xml version="1.0" encoding="utf-8"?>
<!-- Generator: Adobe Illustrator 25.0.0, SVG Export Plug-In . SVG Version: 6.00 Build 0)  -->
<svg version="1.1" id="Слой_1" xmlns="http://www.w3.org/2000/svg" xmlns:xlink="http://www.w3.org/1999/xlink" x="0px" y="0px"
	 viewBox="0 0 1440 324" style="enable-background:new 0 0 1440 324;" xml:space="preserve">
<style type="text/css">
	.st0{fill-rule:evenodd;clip-rule:evenodd;fill:url(#SVGID_1_);}
	.st1{opacity:0.3;fill-rule:evenodd;clip-rule:evenodd;fill:url(#SVGID_2_);}
	.st2{opacity:0.3;fill-rule:evenodd;clip-rule:evenodd;fill:url(#SVGID_3_);}
	.st3{fill-rule:evenodd;clip-rule:evenodd;fill:url(#SVGID_4_);}
	.st4{fill-rule:evenodd;clip-rule:evenodd;fill:url(#SVGID_5_);}
	.st5{fill-rule:evenodd;clip-rule:evenodd;fill:url(#SVGID_6_);}
	.st6{fill:url(#SVGID_7_);}
</style>
<linearGradient id="SVGID_1_" gradientUnits="userSpaceOnUse" x1="598.0847" y1="0.615" x2="598.0847" y2="1.3196" gradientTransform="matrix(1440 0 0 439 -860522 -269.9925)">
	<stop  offset="0" style="stop-color:#535FD7;stop-opacity:8.000000e-02"/>
	<stop  offset="1" style="stop-color:#F9F9F9;stop-opacity:0"/>
</linearGradient>
<path class="st0" d="M0,0h1440v439H0V0z"/>
<linearGradient id="SVGID_2_" gradientUnits="userSpaceOnUse" x1="597.6761" y1="1.3838" x2="596.6984" y2="1.3838" gradientTransform="matrix(455.55 0 0 305.4938 -271458.9062 -415.9926)">
	<stop  offset="0" style="stop-color:#FFFFFF"/>
	<stop  offset="1" style="stop-color:#FFFFFF;stop-opacity:0"/>
</linearGradient>
<path class="st1" d="M501,132C523.7,72.2,629.2,25.9,817.5-7C657.7-99.7,552.2-146,501-146c-76.8,0-139,62.2-139,139
	S466.9,221.7,501,132z"/>
<linearGradient id="SVGID_3_" gradientUnits="userSpaceOnUse" x1="600.5057" y1="-0.8632" x2="599.5279" y2="-0.8632" gradientTransform="matrix(-317.1268 -90.9346 85.8055 -299.2395 190497.2812 54281.0078)">
	<stop  offset="0" style="stop-color:#FFFFFF"/>
	<stop  offset="1" style="stop-color:#FFFFFF;stop-opacity:0"/>
</linearGradient>
<path class="st2" d="M200.5-133.5c12.4-111.4-317.5-2.5-172,95.3c145.6,97.9,21.5,150.8,95.3,172s150.8-21.5,171.9-95.3
	C316.9-35.3,188-22,200.5-133.5z"/>
<linearGradient id="SVGID_4_" gradientUnits="userSpaceOnUse" x1="597.11" y1="0.6171" x2="597.11" y2="1.6171" gradientTransform="matrix(430.2328 0 0 437.5003 -255521.4531 -383.0009)">
	<stop  offset="0" style="stop-color:#93F4FE"/>
	<stop  offset="0.3808" style="stop-color:#5ECCF4"/>
	<stop  offset="1" style="stop-color:#535FD7"/>
</linearGradient>
<path class="st3" d="M1380,307c185.3,72,210-94,210-210s-94-210-210-210S1207-12,1170,97S1194.7,235,1380,307z"/>
<linearGradient id="SVGID_5_" gradientUnits="userSpaceOnUse" x1="597.0533" y1="1.0922" x2="597.2438" y2="1.6128" gradientTransform="matrix(430.2329 0 0 437.5003 -255330.2812 -490.9852)">
	<stop  offset="0" style="stop-color:#212880"/>
	<stop  offset="1" style="stop-color:#212880;stop-opacity:0"/>
</linearGradient>
<path class="st4" d="M1571.2,249c185.3,72,210-94,210-210s-94-210-210-210s-173,101-210,210C1324.3,148,1385.9,177,1571.2,249z"/>
<linearGradient id="SVGID_6_" gradientUnits="userSpaceOnUse" x1="596.9946" y1="1.1411" x2="596.9946" y2="2.1411" gradientTransform="matrix(470.368 0 0 236.6788 -279810.0625 -464.9872)">
	<stop  offset="0" style="stop-color:#535FD7"/>
	<stop  offset="1" style="stop-color:#535FD7;stop-opacity:0.24"/>
</linearGradient>
<path class="st5" d="M904.2,30.6c-0.9,0.4-2,0.7-3.1,1c-1.2,0.3-2.4,0.5-3.6,0.7c-2.5,0.4-5.1,0.6-7.5,0.7c-2.4,0.1-4.6,0-6.2-0.1
	c-0.3-1.3,0.5-1.2,1.1-1.3c0.6-0.1,1.2-0.3,0.4-2.2c1.3,0.8,1.4,4.2,3.7,2.7c0-2.3-1.2-1.9-2.2-1.9c1-2.1,2.3-1.3,3.7-0.5
	c1.3,0.7,2.6,1.4,3.6-0.2c0.1-0.1,0.2-0.3,0.3-0.5c-0.1,0.2-0.2,0.3-0.3,0.5c-0.7,1.4,0.9,1.2,3.5,0.5c2.8-0.8,6.8-2.2,10.2-2.5
	C907.4,28.8,906,29.8,904.2,30.6 M826.9-0.9c-0.5,0.5-2.2,0.4-3.5-1.6c-0.8,0.7-1.8,0.7-2.9,0.4c0.4-0.8,0.9-0.9,1.2-1.9
	c-0.5-0.3-0.7,0.2-0.9,0.9c-1.6-3.3,3.3-1.8,2.6,0.7C826.7-2.4,827.4-1.4,826.9-0.9 M817.4,1.5c1.2-2,5,0.2,5.4,1.4
	C820.9,4.4,820.2,2.4,817.4,1.5 M1231.9-128.5c-0.4-3.3-0.9-6.4-1.7-9.6c-0.2-0.8-0.4-1.6-0.6-2.3c-0.2-0.8-0.4-1.5-0.7-2.3
	c-0.5-1.5-1-3.1-1.5-4.5c-0.6-1.5-1.1-3-1.8-4.4c-0.6-1.5-1.3-2.9-2.1-4.3c-1.5-2.9-3.1-5.6-5-8.3c-3.9-5.7-8.5-10.9-13.7-15.4
	c-1.7-1.5-3.4-2.8-5.2-4.1l-0.7-0.5l-0.6-0.4l-1.2-0.8c-0.8-0.5-1.7-1-2.5-1.5c-3.2-1.8-6.6-3.4-10.1-4.6
	c-6.8-2.4-13.4-3.3-19.5-3.4c-6.1-0.1-11.8,0.6-16.9,1.7c-5.1,1.1-9.8,2.4-14,3.7c-1.1,0.3-2.1,0.7-3.2,1.1c-1,0.4-2,0.9-3,1.4
	c-1.9,1-3.8,2.2-5.6,3.4c-3.6,2.4-7.1,5.3-10.3,8.2c-6.4,5.8-12,11.8-16.9,15.5c-0.6,0.4-1.2-1.7-2.3-1.1c-2.8,1.5-5.7,5-8.4,8.6
	c-2.7,3.7-5.2,7.4-7.3,9.2c-2.5-0.4-3.7,2.3-4.9,4.5c-1.2,2.1-2.2,3.7-4.6,0.8c-0.9,1.8-1.9,3.5-3,5.2c-1.1,1.6-2.1,3.1-3.3,4.4
	c-1.1,1.4-2.3,2.6-3.5,3.8c-1.1,1.1-2.3,2.2-3.6,3.3c-0.6,0.5-1.2,1-1.8,1.4c-0.6,0.5-1.2,0.9-1.8,1.4c-1.2,0.9-2.4,1.7-3.6,2.5
	s-2.4,1.6-3.5,2.3l-3.3,2.2c0.2,2.7,2.5,4.7,1.5,5.1c-1.4,1-2.2-3.3-3.6-2.2c0.1,2.5,2.3,3.5,1.3,4.1c-0.6-1.1-1.2-2.2-1.9-2.8
	c0.4,1.8,1.5,2.4,1,3.1c-0.4,0.1-0.2,1-0.5,1.3c-0.8-0.4-1.4-3.9-2.2-3.8c0.7,2.2,0.2,2-0.4,1.9c-0.6-0.2-1.2-0.3-0.7,1.9
	c0.7-0.3,1.4,0.4,2,1.6c-2.8,0.9-5.6,3.4-8.1,6c-0.6,0.6-1.2,1.2-1.9,1.8c-0.6,0.6-1.2,1.1-1.8,1.6c-1.2,0.9-2.4,1.6-3.6,1.7
	c0.2,2.5-0.5,3.2-1.4,3.9c-0.4,0.3-0.9,0.6-1.4,1c-0.4,0.4-0.8,1-1,1.9c-1.7-4-2.5-2.2-2.5-1.1c0.5-0.1,1.1-0.2,1.8,1.5
	c-0.2,2.2-1.5,2.4-2.9,2.4c-1.4-0.1-3-0.5-3.7,0.1c-0.8,0.7,0.3,5.7-1.2,5.7c-1.7,0-2.7,1.1-3.6,2.4c-0.9,1.3-1.6,2.9-2.7,4.2
	c-1.6,1.9-3.4,3.6-5.2,5.3c-1.9,1.8-3.9,3.4-6.1,5.1c-4.3,3.4-8.9,6.7-13.6,9.9l-3.5,2.4l-3.4,2.4c-2.3,1.6-4.4,3.2-6.5,4.8
	c-1,0.8-2,1.6-3,2.4c-0.9,0.8-1.9,1.6-2.8,2.4c-1.7,1.6-3.3,3.2-4.6,4.9c-1.6-0.6-3.3-0.4-4.9,0.2c-1.6,0.6-3.2,1.6-4.7,2.8
	c-1.5,1.1-2.9,2.3-4.1,3.2c-1.2,0.9-2.2,1.5-2.8,1.6c-1.9,0.1-1.2,2.7-4.3,4.1c-5.5,2.4-9.6,4.7-14.2-0.6c-1,1.7-2.5,2.8-4.1,3.5
	s-3.4,1-5.1,1.2c-0.9,0.1-1.7,0.2-2.5,0.4c-0.8,0.1-1.5,0.3-2.2,0.5c-1.4,0.5-2.5,1.2-3.1,2.5c1.1,0.4,2.3,0,3.2,1.4
	c-1.3,0.3-2.5,0.6-3.8,0.9l-1-4.2c-1.5,0.6-3,0.9-4.5,1.1c-1.5,0.2-3,0.3-4.4,0.4c-1.4,0.1-2.8,0.4-4.2,0.8c-1.4,0.4-2.7,1.1-3.9,2
	c0.6,0.2,1.6,1.5,0.9,2c-1.7-0.1-4.1,1.8-4.7-1.5c1.2-1.4,3.1,2.9,3.3-0.5c-1.3-0.7-2.4-1.9-4.1-1.6c0.1,1.6,0.7,3.9,0,4.3
	c-3.6-0.7-6.8-0.3-9.8,0.4c-1.4,0.3-2.8,0.7-4.2,1.2c-1.3,0.4-2.6,0.7-3.7,0.9c0.2-0.7,1.3-4.2-0.1-4.3c-2.8,3.8-7.2,2.8-11.3,1.5
	c-4.2-1.2-8.1-2.7-11,0.7c-0.1-2.8-1.4-3.7-2.9-3.4c-1.5,0.2-3.2,1.6-4.2,3.4c0.4-2.3,0-3.6-0.9-4.3s-2.3-0.9-3.8-1
	c-1.4,0,0.3,3-2,2.8c-0.8-0.7-1.6-1.4-2.4-2.1c-0.8-0.6-1.6-1.1-2.5-1.5c-1.7-0.9-3.5-1.5-5.4-2.2s-3.9-1.3-5.9-2.2
	c-2.1-0.9-4.2-2-6.4-3.6c-1.9,1.8-0.2,4.3-1.9,3.9c-2,0.3-3.9-0.9-5.5-2.4s-2.8-3.2-3.7-3.9c0.9,0.8-1.2,1.5-0.6-0.3
	c1.6-1.6,2-0.6,2.7,0.4c0.6,1,1.4,2.1,3.4,0.7c-0.8-0.5-2.2-2.3-3.7-3.7c-1.5-1.4-3.1-2.4-4.5-1.3c-0.9,1.5,0.2,1.3,1.1,1.2
	c0.9-0.1,1.6-0.1-0.1,2c-0.9-0.2-1.6-0.4-2.2-0.7c-0.6-0.3-1.1-0.8-1.6-1.3s-1.1-1.1-1.8-1.7c-0.9-0.8-1.9-1.6-2.9-2.2
	c1-1,2-1.1,3.1-3c-1.7,1.2-3.2,1.2-4.8,1.1c-1.6-0.2-3.5-0.5-6-0.1c0.6,1.3,1.4,2.4,2.2,3.4c0.4,0.5,0.8,1,1.2,1.5s0.9,0.9,1.3,1.4
	c0.9,0.9,1.9,1.8,2.9,2.6c1,0.8,2,1.6,3.1,2.4c4.2,3.1,8.7,6,13.1,10.8c-6.1-3.1-10.7-5.8-14.7-8.7c-1-0.7-2-1.5-2.9-2.2
	c-0.9-0.8-1.8-1.6-2.7-2.5c-1.8-1.7-3.4-3.7-5.1-5.9c-0.9,0.9-1.9,2.4-2.6,2c1.2-2,0.4-3.6-0.9-4.8c-1.3-1.2-3.1-2.2-4.3-2.9
	c2.8,3.3-0.4,0.4-2,1c0.9,0.3,1.1,2,1.1,3.3c-0.1,1.3-0.4,2.3-0.7,1.6c0.7,1.7,2.4,3,4,4.3c1.7,1.3,3.4,2.4,3.9,4
	c0.2,0.7-2.2,2-1.4,3c-0.1-0.1,2-2.5,2.6-2.1c1.4,1.1,0.8,4.2,2.2,5.7c1.4,1.4,4.6,1.7,6.1,2.9c7.5,5.6,15.9,11.7,25.5,16.8
	c9.7,5.2,20.1,9.2,29.9,11.3c6.6,1.4,13.1,2.1,19.5,2.5c6.3,0.3,12.4,0.2,18.3,0.1c5.9-0.1,11.5-0.4,16.9-0.3s10.8,0.3,16.3,1
	c-2.3,0.1-4.5,0.2-6.8,0.5c-2.3,0.2-4.7,0.6-7.1,1c-4.8,0.8-10,1.7-15.4,2.4c-5.4,0.7-11.2,1.1-17.1,0.9c-5.9-0.2-11.9-1.1-17.6-2.9
	c-1.4,3.5-3-0.9-4,2.8c6.1,0.6,13.7,1.2,20.8,1.6c7.2,0.4,14.1,0.7,19.2,1.5c0.8,2.9-3.2-0.4-2.5,2.4c1.6,0.6,5-2.5,5,1.7
	c-11.3,0.7-24.4,0.3-38-1.4c-6.9-0.8-13.7-2-20.5-3.4c-1.7-0.3-3.4-0.7-5-1.1c-1.7-0.4-3.3-0.8-5-1.2l-2.4-0.6l-2.4-0.6
	c-1.6-0.4-3.2-0.8-4.7-1.2c2.1,1.6,4.3,2.9,6.7,4.1c2.3,1.2,4.8,2.3,7.4,3.2c2.6,1,5.4,1.8,8.4,2.8l4.6,1.3c1.6,0.5,3.2,0.9,4.9,1.3
	c7.2,2,14.9,3.1,22.5,3.7c7.6,0.5,15,0.4,22,0.1l2.6-0.1l2.5-0.2c1.7-0.1,3.3-0.2,4.9-0.3l9.3-0.7c6-0.4,11.4-0.9,16.3-0.8
	c1.3-1.6,5.8-3.2,10.5-4.3c2.3-0.6,4.7-1,6.8-1.2s3.9-0.1,5,0.3c6.8-2.3,13.9-5.1,21-8.3s14.3-6.7,21.2-10.2
	c3.5-1.8,6.8-3.6,10.1-5.3c3.1-1.7,6.3-3.3,9.1-4.7l2.2-1.1l2.1-1c1.3-0.6,2.7-1.2,4-1.8c0.6-0.3,1.3-0.5,1.9-0.8
	c0.6-0.3,1.2-0.5,1.9-0.7c1.2-0.5,2.4-0.9,3.6-1.2c-0.2,0.4-0.9,0.6-0.3,1.5c1.9-0.7,3.8-1.6,5.6-2.5c1.8-1,3.5-2.1,5.1-3.3
	c1.5-1.2,2.9-2.5,4-3.9s1.9-2.8,2.4-4.4c-2-1.8-2.8,2.7-4.8,0.7c0.7-0.9,1.4-2,2.4-2.8c0.5-0.4,1.1-0.8,1.7-1
	c0.7-0.3,1.5-0.4,2.3-0.4c0.7,1.2,0.4,1.5,1.4,2.9l1.2-0.9l1.1-0.8l2.3-1.6l2.1-1.4c0.7-0.5,1.4-0.9,2-1.3l1.9-1.2
	c0.3-0.2,0.6-0.4,0.9-0.6l0.9-0.5l0.9-0.5c0.3-0.2,0.6-0.4,0.8-0.5c0.5-0.3,1.1-0.6,1.6-0.9s1-0.6,1.5-0.9s0.9-0.6,1.4-0.9
	c0.9-0.5,1.8-1.1,2.6-1.8c0.9-0.6,1.9-1.3,2.7-2c1-0.7,1.9-1.5,2.8-2.3c2.7-2.4,5.6-5.2,8.7-8.4c0.8-0.8,1.6-1.6,2.4-2.4l1.2-1.3
	l1.3-1.3l5.3-5.6c3.7-3.8,7.7-8.1,12-12.5c2.2-2.3,4.5-4.5,6.8-6.9l3.6-3.5c1.2-1.2,2.5-2.5,3.8-3.6c0.9-0.9,1.9-1.8,2.9-2.7
	l1.5-1.3l1.5-1.3c1.9-1.7,3.8-3.2,5.3-4.4c2.5-2,4.6-3.1,6.7-4.1s4.1-1.9,6.5-3.4c3.1-1.9,6.6-4.8,10.8-7.2c2.1-1.2,4.4-2.3,6.9-3
	c1.2-0.4,2.5-0.7,3.7-0.8c1.2-0.1,2.6-0.2,3.8-0.2c2.2,0.1,4.6,0.8,7.1,1.9s5,2.7,7.4,4.6s4.7,4.1,6.9,6.3c0.5,0.5,1,1.1,1.6,1.6
	c0.5,0.5,1.1,1.1,1.6,1.6s1,1,1.5,1.5c0.3,0.2,0.5,0.5,0.8,0.7c0.2,0.2,0.5,0.4,0.8,0.7c1.1,0.9,2.2,1.8,3.4,2.5
	c1.1,0.8,2.2,1.4,3.3,2c2.2,1.2,4.5,1.9,6.8,2.1s4.7,0,7-0.8c2.4-0.8,4.7-2,7-3.7c2.3-1.6,4.4-3.7,6.4-5.9c1-1.1,1.9-2.2,2.9-3.4
	c0.9-1.2,1.8-2.3,2.6-3.5l2.4-3.3c0.7-1,1.5-1.9,2.2-2.9c1.5-1.7,2.8-3.1,4.3-3.7C1232.6-115.1,1232.6-122,1231.9-128.5"/>
<linearGradient id="SVGID_7_" gradientUnits="userSpaceOnUse" x1="869.907" y1="-650.8182" x2="1163.665" y2="-650.8182" gradientTransform="matrix(-0.5258 0.8506 0.8506 0.5258 2477.1047 -423.9569)">
	<stop  offset="0" style="stop-color:#FE7E1F;stop-opacity:0"/>
	<stop  offset="1" style="stop-color:#FE7E1F"/>
</linearGradient>
<path class="st6" d="M1320.5,229.1c-5.5-3.4-11.1-6.8-16.6-10.3c-1.6-1.3-3.3-2.6-4.9-3.8c-15.6-12.3-28.7-26.9-38.2-44.4
	c-22.7-41.9-25-85-7.2-129.2c1.5-3.8,3.3-7.5,4.9-11.2c3.5-5.7,7-11.4,10.6-17.1c2.2-2.7,4.3-5.5,6.6-8.2
	c18.7-22.3,41.8-38.4,69.7-46.5c52.5-15.2,100.1-5,141.4,30.9c29.1,25.2,44.9,57.9,48.3,96.1c3.7,40.8-7.9,77.3-34.5,108.6
	c-24.2,28.5-55.2,44.9-92.2,50.2c-25.4,3.6-50,0.5-73.9-9.1C1329.9,233.3,1325.3,231.2,1320.5,229.1z M1460.8,135.9
	c5.1,3.2,10.2,6.4,15.4,9.4c1,0.6,2.8,0.8,3.9,0.4c12.9-5.1,25.7-10.4,38.5-15.7c0.9-0.4,1.9-1.4,2.1-2.3
	c6.3-29.4,3.2-57.9-9.2-85.3c-0.4-0.8-1.4-1.5-2.3-1.7c-12.6-3.3-25.3-6.5-38-9.6c-1.1-0.3-2.7,0.1-3.5,0.8
	c-9.2,7.6-18.3,15.2-27.3,23c-1,0.8-1.7,2.6-1.6,3.8c1.5,21.3,3.1,42.7,4.7,64c0.1,1.8,0.7,2.9,2.3,3.9
	C1450.7,129.6,1455.7,132.8,1460.8,135.9z M1454.4,146.4c-5.1-3.2-10.2-6.4-15.4-9.4c-1.1-0.6-3-0.8-4.1-0.3
	c-19.8,8-39.6,16.1-59.4,24.3c-1.1,0.4-2.2,1.8-2.5,2.9c-2.9,11.6-5.6,23.3-8.5,35c-0.4,1.7-0.1,2.8,1,4.1
	c8.3,9.6,16.5,19.2,24.9,28.7c0.8,1,2.5,1.7,3.8,1.7c29.6-1.3,56.2-11,79.3-29.7c0.8-0.7,1.5-2.2,1.4-3.3
	c-0.9-13.7-1.9-27.4-3.1-41.1c-0.1-1.2-1-2.7-2-3.3C1464.7,152.7,1459.6,149.6,1454.4,146.4z M1332.7,66.5
	c5.8-9.4,11.7-18.9,17.5-28.3c0.6-1,1.1-2.4,0.9-3.4c-2.9-12.7-5.9-25.3-8.9-38c-0.2-0.9-1-1.9-1.8-2.3c-7.1-3.1-14.3-5.9-21.4-9
	c-1.6-0.7-2.7-0.4-4.1,0.5c-19.4,12.9-34.5,29.6-45.3,50.3c-7.5,14.4-12.2,29.5-14.3,45.6c-0.2,1.6-0.1,2.7,1.4,3.9
	c7,5.8,13.7,11.9,20.6,17.7c0.9,0.8,2.6,1.1,3.8,0.9c10.4-2.3,20.7-4.8,31-7.3c1.2-0.3,2.5-1.3,3.2-2.3
	C1321.1,85.4,1326.9,75.9,1332.7,66.5z M1353.9-7.9c0,0.5,0,1.5,0.2,2.4c2.6,11.3,5.3,22.5,7.9,33.8c0.4,1.6,0.9,2.4,2.6,2.8
	c21.2,5.1,42.4,10.3,63.6,15.4c1.2,0.3,3.1-0.1,4-0.9c9.2-7.5,18.3-15.2,27.4-22.9c0.9-0.8,1.6-2.4,1.5-3.5
	c-0.6-11.2-1.4-22.5-2.3-33.7c-0.1-1.1-1-2.5-1.9-3c-3.8-2.2-7.7-4.2-11.7-6.1c-19.3-9-39.6-12.8-60.8-12.4
	c-4.6,0.1-7.9,1.3-10.9,5.1C1367.4-23.2,1360.7-15.9,1353.9-7.9z M1314.1,210.9c1.7,2.2,4,1.6,6.6,0.5c9.6-4.2,19.3-8.2,29.1-12.2
	c1.9-0.8,2.8-1.9,3.3-3.8c2.6-11.3,5.4-22.6,8-33.9c0.3-1.1-0.2-2.8-0.9-3.7c-13.4-16-26.9-31.9-40.3-47.8c-1.1-1.3-2-1.6-3.6-1.2
	c-10.5,2.6-21,5.1-31.5,7.4c-2.3,0.5-3.4,1.6-4.2,3.6c-4.4,10.8-8.8,21.5-13.4,32.2c-0.7,1.7-0.5,3,0.2,4.5
	C1277.7,178.7,1293.3,196.7,1314.1,210.9z"/>
</svg>
