<?xml version="1.0" encoding="utf-8"?>
<!-- Generator: Adobe Illustrator 25.0.0, SVG Export Plug-In . SVG Version: 6.00 Build 0)  -->
<svg version="1.1" id="Слой_1" xmlns="http://www.w3.org/2000/svg" xmlns:xlink="http://www.w3.org/1999/xlink" x="0px" y="0px"
	 viewBox="0 0 595 420" style="enable-background:new 0 0 595 420;" xml:space="preserve">
<style type="text/css">
	.st0{fill-rule:evenodd;clip-rule:evenodd;fill:#FFFFFF;}
	.st1{fill:#CCCCCC;}
</style>
<path class="st0" d="M0,0h595v420H0V0z"/>
<path class="st1" d="M0,420h595V0H0V420z M5.7,4c1.6,0,3.2,0,4.7,0.1c8.4,2.1,22.9,4.1,40.2,6c16.9-0.4,32.4-0.9,45.9-1.6
	c72.6,2.1,109.4-2.9,184.5-1.9c66.8-0.1,114.1-1.1,178.3-0.1c8-1.8,28.2-2.1,52.7-2c12.3,0.1,25.6,0.3,39.1,0.4
	c6.7,0.1,13.5,0.1,20.1,0.2c4.7,0,9.3,0.1,13.8,0.1c0,1.9,0,3.8,0.1,5.7c0,3.7,0.1,7.3,0.2,10.8c0.2,6.9,0.4,13.3,0.8,18.9
	c0.6,32,2.4,49.4,3.2,24.9c0.2,44.2-1.9,32.9-1,69.8l-1.6-12.5c-0.4,12.2-1.2,25.6-0.9,41.6l1.6,18c-1.8,44,1.4,68.9,0.3,116.6
	c0.5-13.8,0.8-12.5,1-7.2c-0.2,15.4-0.2,31.1,0.1,46.1c-0.1,0.3-0.2-0.3-0.2-1.9c-0.2,14.6,0.1,28.8,0.4,42c0.1,6.6,0.3,13,0.4,19.1
	c0,2.9,0.1,5.8,0.1,8.6c0,2.5,0,4.9,0,7.2c-1.6,0-3.2,0-4.7-0.1c-8.4-2.1-22.9-4.1-40.2-6c-16.9,0.4-32.4,0.9-45.9,1.6
	c-72.6-2.1-109.4,2.9-184.5,1.9c-66.8,0.1-114.1,1.1-178.3,0.1c-8,1.8-28.2,2.1-52.7,2c-12.3-0.1-25.6-0.3-39.1-0.4
	c-6.7-0.1-13.5-0.1-20.1-0.2c-4.7,0-9.3-0.1-13.8-0.1c0-1.9,0-3.8-0.1-5.7c0-3.7-0.1-7.3-0.2-10.8C9.6,388.4,9.3,382,9,376.4
	c-0.6-32-2.4-49.4-3.2-24.9c-0.2-44.2,1.9-32.9,1-69.8l1.6,12.5c0.4-12.2,1.2-25.6,0.9-41.6l-1.6-18c1.8-44-1.4-68.9-0.3-116.6
	c-0.5,13.8-0.8,12.5-1,7.2C6.7,109.7,6.6,94,6.4,79c0.1-0.3,0.2,0.3,0.2,1.9c0.2-14.6-0.1-28.8-0.4-42c-0.1-6.6-0.3-13-0.4-19.1
	c0-2.9-0.1-5.8-0.1-8.6C5.7,8.8,5.7,6.4,5.7,4z"/>
</svg>
