<?xml version="1.0" encoding="utf-8"?>
<!-- Generator: Adobe Illustrator 25.0.0, SVG Export Plug-In . SVG Version: 6.00 Build 0)  -->
<svg version="1.1" id="Слой_1" xmlns="http://www.w3.org/2000/svg" xmlns:xlink="http://www.w3.org/1999/xlink" x="0px" y="0px"
	 viewBox="0 0 1100.5 662.7" style="enable-background:new 0 0 1100.5 662.7;" xml:space="preserve">
<style type="text/css">
	.st0{fill-rule:evenodd;clip-rule:evenodd;fill:url(#SVGID_1_);}
	.st1{fill-rule:evenodd;clip-rule:evenodd;fill:url(#SVGID_2_);}
	.st2{fill-rule:evenodd;clip-rule:evenodd;fill:url(#SVGID_3_);}
	.st3{fill-rule:evenodd;clip-rule:evenodd;fill:#FFFFFF;}
	.st4{fill-rule:evenodd;clip-rule:evenodd;fill:#FFFFFF;fill-opacity:0.32;}
	.st5{fill-rule:evenodd;clip-rule:evenodd;fill:#FFFFFF;fill-opacity:0.64;}
	.st6{fill-rule:evenodd;clip-rule:evenodd;fill:#61EFFD;}
	.st7{fill-rule:evenodd;clip-rule:evenodd;fill:#2FEAFC;fill-opacity:0.64;}
	.st8{fill-rule:evenodd;clip-rule:evenodd;fill:#FFFFFF;fill-opacity:0.48;}
	.st9{fill:url(#SVGID_4_);}
	.st10{fill:url(#SVGID_5_);}
	.st11{fill:url(#SVGID_6_);}
</style>
<g>
	
		<linearGradient id="SVGID_1_" gradientUnits="userSpaceOnUse" x1="-53.188" y1="670.9846" x2="-53.9095" y2="670.9948" gradientTransform="matrix(731.9224 76.9281 39.146 -372.4493 13347.5117 254244.7812)">
		<stop  offset="0" style="stop-color:#61EFFD;stop-opacity:0"/>
		<stop  offset="0.5193" style="stop-color:#61EFFD"/>
		<stop  offset="1" style="stop-color:#535FD7"/>
	</linearGradient>
	<path class="st0" d="M163.8,26C96.6-58,408.9,86.5,621.2,135.7c141.6,32.8,227.7,37.5,258.3,14.2
		C668.3,258.6,535,304.4,479.7,287.1c-55.3-17.3-90.9,19.7-106.9,110.8c36.9-188.3,12.1-258.4-74.4-210.1
		C168.6,260.2,231,110,163.8,26L163.8,26z"/>
	
		<linearGradient id="SVGID_2_" gradientUnits="userSpaceOnUse" x1="-53.3101" y1="670.4168" x2="-54.0292" y2="670.4419" gradientTransform="matrix(-744.7748 78.9206 43.2236 407.9019 -68221.4141 -268757.5)">
		<stop  offset="0" style="stop-color:#61EFFD;stop-opacity:0"/>
		<stop  offset="1" style="stop-color:#61EFFD"/>
	</linearGradient>
	<path class="st1" d="M1004,634c-59,92.3-293.8-84-511.7-87.8c-145.3-2.5-214.8,22.5-208.6,75.2L336,356.9
		c82.6,72.9,177.4,62.4,284.3-31.4c160.4-140.7,29,64,208.8,21.6C1009,304.7,1063,541.7,1004,634z"/>
	
		<linearGradient id="SVGID_3_" gradientUnits="userSpaceOnUse" x1="349.5775" y1="376.8162" x2="475.3424" y2="341.5532" gradientTransform="matrix(0.9429 0.333 -0.333 0.9429 147.6643 -81.8612)">
		<stop  offset="0" style="stop-color:#2FEAFC"/>
		<stop  offset="1" style="stop-color:#FFFFFF;stop-opacity:0.48"/>
	</linearGradient>
	<path class="st2" d="M422.7,388.3c0-0.3,0.5-0.5,0.5-0.8c0.7,0.1,0.8,0,1.7-0.6C425,387.6,423.6,387.5,422.7,388.3z M421.8,387.9
		c-1,0.3-2.2,1.9-3.4,1.4c1.6-0.8,2.2-1.1,2.4-1.8c0.5,0,0.8,0.2,1.8-0.4c-0.2,0.4-0.8,0.7-0.7,1.1
		C421.5,388.2,421.6,388,421.8,387.9L421.8,387.9z M432.5,382.4c-1.3-0.4,1.7-1,2.8-1.8c-0.1,0.3-0.7,0.5-0.4,0.8
		C434.1,381.6,432.5,381.7,432.5,382.4L432.5,382.4z M559.3,368.5c-3.9-1.9-7.6-5.1-11.7-6.8c1,0.1,3.1,1.2,5.4,2.6
		C555.2,365.7,557.6,367.5,559.3,368.5L559.3,368.5z M372.4,407.2c-0.6,0-1.1-0.1-0.9-0.4c-2.6-0.2-3.5,0.4-6,0
		c0.1,0.4,0.3,0.8,1.3,1.1c0.9-0.3,2.5-0.9,3.8-0.1c0.1-0.3,0.3-0.5,1-0.6C371.5,407.3,372.3,407.4,372.4,407.2z M365.1,406.8
		c-2-0.5-1.5,0.9-0.1,0.7c0,0.2,0.1,0.4,0.9,0.5C366,407.5,364.8,407.2,365.1,406.8z M386.2,405.2c0.8,0.1,3.4-0.7,3.4-1.3
		c-0.4,0.3-1.2,0.4-1.9,0.6C386.9,404.7,386.3,404.9,386.2,405.2z M391.2,403.5c1.7-0.5,5.2-1.7,4.3-2.1
		C394.1,402.1,391.9,402.7,391.2,403.5z M386.2,403.2c-0.4,0.5-1.1,0.9-2,1.2c-0.5,0.2-1,0.3-1.5,0.4c-0.5,0.1-1.2,0.2-1.7,0.4
		c-1.2,0.2-2.3,0.4-3.1,0.6c-0.8,0.2-1.4,0.5-1.4,0.9c2-0.4,1.7-0.4,3.6-0.3c-0.4-1,1.6-0.4,2.1-1.2c0.6-0.1,0.4,0.2,0.9,0.2
		c1.2-0.5,1-0.9,3.1-0.9c0.1-0.5,0.8-0.6,1.6-0.8c0.8-0.2,1.8-0.4,2.5-0.8l-0.1-0.3c-0.2,0-0.5,0.1-0.4-0.1c-1,0.4-1.2,1-2.5,1.3
		C387.1,403.4,386,403.7,386.2,403.2L386.2,403.2z M403.7,397c-0.2-0.5-1-0.4-1.4-0.6c-0.6,0.2-1.2,0.4-1.8,0.6
		c0.1,0.5-1.1,0.9-1.9,1.4c-0.2-0.4-0.9-0.5-0.3-1c-0.6,0.8-1.6,1.8-0.6,1.9c-0.8-0.1-0.8,0.5-1.4,0.8c0.5,0,4.4-1.4,1.7-0.9
		C400.6,398.6,401.5,397.6,403.7,397z M518.1,444.9c-0.4,0.6,2.9,0.3,3.1,0C519.7,444.9,520,444.9,518.1,444.9L518.1,444.9z
		 M462,359l-2.6,0.6c0.3,0.1,1.8-0.2,3.3-0.6c1.5-0.4,3-0.8,3.1-1.1C463.8,358.4,462.8,358.7,462,359z M493,352
		c2.5,0.6,8.8,0.3,11.5,0.1c-1.9-0.1-3.8-0.2-5.7-0.1l-2.8,0C495,352.1,494,352.1,493,352L493,352z M518.3,353.3
		c-0.9-0.2-4.1-0.9-5.5-0.4c0.5,0,1.4,0.1,2.3,0.2l2.9,0.4C519.6,353.6,520.5,353.7,518.3,353.3L518.3,353.3z M468.3,439.5
		c-1.6-0.9-4.5-2.1-7.3-3.8c-1.4-0.8-2.8-1.8-4.1-2.7c-1.1-0.9-2.2-1.8-3.2-2.9c1.3,1,2.3,1.9,3.4,2.6c1.1,0.7,2.1,1.5,3.2,2.1
		c1.1,0.6,2.2,1.3,3.4,1.9c1.2,0.6,2.5,1.2,4.1,1.9c0.1-0.4-1.6-0.7-2.2-1.2c4.6,2.1,8.9,3.4,13,4.5c4.1,1,7.9,1.7,11.6,2.2
		c7.4,1,14.3,1.4,22.2,1.5c1.2-0.1,0.7-0.6,1.1-0.7c2.7,0,5.4-0.1,8-0.3c-0.4,0.9,1.2,0.8,2,1.1c1.1,0-0.4-0.8,0.7-0.8
		c-0.1-0.4-1-0.3-2-0.2c5.2-0.6,11.8-1.5,18.8-4c3.4-1.2,7-2.9,10.4-5c3.3-2.1,6.5-4.7,9.2-7.7c-0.1-0.4,1.7-1.8,1-1.9
		c2.4-2,4.1-4.5,5.4-7.3c1.3-2.8,2.1-5.9,2.9-9.2c-0.7,0.8,0.3-1.6-0.2-3.1c0-1.1,0.2-0.5,0.4-0.4c0.3-6.2-1.3-12.4-4.1-17.7
		c-2.8-5.3-6.6-9.8-10.9-13.3c-4.3-3.5-8.9-6-13.3-7.7c-4.4-1.8-8.6-2.9-12.3-3.7c-2.9-1.1-6.2-1.8-10.3-2.1c-6.6-1.2-14-2.1-20.1-1
		c-0.1-0.3,0.3-0.3,0.8-0.3c-3-0.3-8.2-0.3-11.9,0.3c-0.8,0.1,0.5,0.4,0,0.9c-0.8,0.1-2.4-0.1-2.6,0.3c-1.7-0.5,2.1-0.2,1.4-0.8
		c-2.5-0.2-5.1,0.4-7.3,1.2c-5.6,0.3-11.7,1.6-17.2,3.3c-5.5,1.7-10.5,3.8-14.4,5.3c-0.5,0.7,1.6-0.2,0.5,0.4
		c-0.6,0.1-0.6,0.4-0.6,0.6c-1.3,0.4,0-0.5-1-0.6c-6.3,3-9.3,4.3-13.3,7c0.5-0.9-0.6,0.2-1.1,0.1c-1.1,1-1.6,2.1-3.8,3.1
		c-0.3-0.5,2-1.3,2.6-2.2c-4.6,2.1-8.7,3.9-13,7.6c0.6,0.5,1.9-1.1,2.2-0.4c-2.1,1.7-3.8,2.7-6.2,3.3c0-0.2,0.6-0.4,0.5-0.6
		c0,0.3-3.7,1.9-3.3,2.7c-1.8,0.2-3.1,1.1-3.1,2.2c-1,0.2-2.4,0.8-3,0.5c-0.3,0.3,0.2,0.4-0.9,0.9c1.7,0.2,2.6-0.4,5.4-1.7
		c0.5-0.6-0.3-0.2-0.3-0.8c1.6-0.5,0.5,0.5,2.1,0.1c2.6-1.3,2.5-1.8,5.2-3c-0.2,1.5-3.5,2.4-5.4,3.5c-0.4,0.5-2.2,1.8-2.1,1.8
		c-0.4,0.5-0.8,0.1-0.5-0.3c-3.2,1.5-3,2.3-3.3,3.1c-1.1,0.2-1.4-0.1-1.1-0.7c-0.7,0.4-1.5,0.7-2.3,1.1c-0.8,0.4-1.7,0.7-2.5,1
		c-1.6,0.7-2.8,1.5-2.9,2.5c-0.4,0-0.5-0.3-1.2,0c-0.4,1-3.1,0.7-3.5,2.1c-1.7-0.4-4.1,1.2-5.8,1.7l-0.2-0.9c-1.1,0.3-2.1,0.6-3.2,1
		c-1.1,0.3-2.2,0.7-3.4,0.9c0.7,0.4,1.8,0.1,3-0.3c1.1-0.4,2.2-0.9,3.3-1.1c-2.7,1.3-6.2,2.3-9.6,2.8c-3.5,0.5-7.1,0.8-11.3,0.5
		l3.7-0.1c1.2-0.1,2.3-0.1,3.5-0.2c1.1-0.1,2.3-0.2,3.4-0.4c0.6-0.1,1.2-0.2,1.8-0.3l1.8-0.4c-1.1-0.3-2.3,0.6-3.2,0
		c-1.3,0.5-3.6,0.8-5.8,0.9c-1.1,0-2.2,0-3.2-0.1c-1-0.1-1.7-0.2-2.2-0.5c-1.8,0.6-6.3-0.3-11.1-2c-1.7-1.2,1.7,0.4,1.9,0.2
		c0.1-0.6-2.7-0.8-1.9-1.3c2.4,1.2,2.3,0.9,2.9,1.8c0.3-0.7,1.4,0.4,1.8-0.2c1.1,0.3,0.9,0.6,0.8,0.9c0.5-0.4,0.9-0.8,2.7,0.1
		c0.1-0.5-1-0.9-2.2-1.2c-1.2-0.3-2.5-0.5-2.8-0.3c-0.6-0.3-1.3-0.6-1.9-1c-0.7-0.4-1.4-0.7-2.1-1.1c-1.4-0.8-2.8-1.6-4.1-2.4
		c-1-0.9-0.7-1.2-0.4-1.5c-0.1,0-0.5-0.2-0.8-0.5c-0.4-0.4-0.7-0.9-0.9-1.4c-0.5-1-0.8-1.8-0.1-1.5c-0.5-0.9-0.9-1.6-1.2-2.2
		c-0.3-0.6-0.6-1.1-0.8-1.6c-0.4-1-0.9-2-1.2-3.6c1.1,1.5,0-0.5,1.2,0.8c0.2-0.6-0.2-2.4-0.2-3.5c0.6-0.6,1.2,1.5,1.8,1.7
		c-0.6-2.2,0.9,0.5-0.2-2.6c0.6,0.7,1.3,2,0.9-0.2c0.5-0.5,0.9,1.7,1.4,1.6c0.6-0.3,0.4-1.5,1-1.7c0.4-0.3,0.6,0.6,1,0.2l0.8,1.2
		c0.3,0.4,0.6,0.7,0.9,1.1c0.3,0.3,0.6,0.7,1,1l1.1,0.9c1.5,1.2,3.1,2.1,4.9,2.7c0.9,0.4,1.8,0.6,2.7,0.8c0.5,0.1,1,0.2,1.4,0.3
		c0.5,0.1,1,0.2,1.4,0.2c1.9,0.3,3.9,0.3,5.9,0.3c3.1-0.1,6.3-0.5,9.3-1.3l1.1-0.3l1.2-0.4l2.4-0.8c1.6-0.5,3.2-1.2,4.8-1.7
		c6.4-2.5,12.7-5.6,19.1-8.9c7.7-4,16.7-8.9,25.4-13.1c7.4-3.5,14.3-6.5,21.2-8.7c6.7-2.2,13.5-3.9,20.4-5.1
		c6.9-1.2,14.1-2,22.2-2.1c8-0.1,16.9,0.4,26.9,2.1c8,1.4,17.3,3.6,26.5,8.3c2.3,1.2,4.5,2.5,6.7,4c1.1,0.7,2.1,1.5,3.2,2.4
		c1.1,0.9,2.1,1.7,3.1,2.7c2,1.8,3.8,3.8,5.4,6c1.6,2.1,3,4.3,4.3,6.6c1.1,2.1,1.5,3.2,1.6,3.4c0.1,0.3-0.2-0.2-0.6-1.1
		c-0.4-0.8-1.1-1.9-1.6-2.9l-1.4-2.3c-2.9-4.3-6.1-7.9-9.8-11c-3.6-3.1-7.4-5.5-11.2-7.5c-7.7-4-15.7-6.3-24.2-7.7
		c1.9,0.6,5.7,1.5,8.3,2.1c-3.7-0.8-7.3-1.4-11-2c-1.9-0.3-3.8-0.6-5.7-0.8c-1.9-0.3-3.9-0.4-5.8-0.6c-7.8-0.7-15.7-0.8-22.8-0.3
		c0.5-0.5,1.4-0.2,3.1-0.5c-5.5-0.3-9.7,0.8-16.1,1.4c0.9,0.3,2,0.1,3.2-0.1c1.3-0.2,2.8-0.6,4.6-0.5c0.6,0,1.5-0.2,1.6,0.1
		l-1.6,0.1c-6.5,1-13.2,2.2-19.5,3.8c-6.3,1.6-12.4,3.7-17.8,6.1c4-1.5,8.5-2.8,13.1-4.2c4.7-1.3,9.5-2.5,14.5-3.8
		c-0.2,0.2-0.4,0.4,0.1,0.3c8.8-1.6,17.3-2.1,25.3-2.2c-10.7,0.5-21.9,1.5-33.1,4.5c5.6-0.7,11.5-2.4,18.8-2.8
		c0.8,0,0.7-0.3,0.7-0.6c5.1,0.2,10.2-0.2,15.2,0c4.6,0.1,9.2,0.5,13.8,1c4.5,0.6,8.9,1.3,13.4,2.2c8.9,2,18,4.9,26.5,10.6
		c2.1,1.4,4.2,3,6.1,4.8c2,1.8,3.8,3.8,5.5,5.9c3.4,4.3,6.1,9.3,7.8,15c0.9,2.9,1.3,6,1.5,9c0.1,3.1-0.1,6.4-0.9,9.5
		c-0.7,3.1-1.8,6.2-3.3,9c-1.5,2.8-3.2,5.5-5.3,8c-1.4,1.6-2.8,3-4.8,5c-0.4,0.4-0.8,0.7-1.3,1.1c-0.5,0.3-0.9,0.6-1.4,1
		c-1,0.7-2,1.2-2.9,1.8c-2.4,1.6-4.8,3.3-7.3,4.5c-2.5,1.2-4.9,2.1-7.1,2.2c-1.4,0.6-5,1.3-3.3,0.8c3.2-1.1,6.3-2.2,9.2-3.4
		c3-1.3,5.6-2.7,7.9-4.2c4.8-3.3,9-7.3,12.4-12.1c1.7-2.4,3.2-5,4.3-7.8c1.2-2.8,2-5.7,2.5-8.7c0.9-6,0.2-12.1-1.6-17.4
		c-0.9-2.6-2-5.1-3.4-7.5c-1.3-2.3-2.9-4.4-4.5-6.4c2.6,3.6,5,7.4,6.7,11.7c0.9,2.1,1.5,4.4,2.1,6.7c0.5,2.3,0.8,4.7,0.9,7.1
		c0.2,4.8-0.8,9.6-2.5,13.9c-1.6,4-3.8,7.8-6.7,11c-2.5,2.9-5.5,5.7-8.8,8c-3.2,2.3-6.8,4.2-9.8,5.4c-6.9,2.7-14,4.1-21,4.8
		c-6.9,0.7-13.7,0.7-20.3,0.5c-6.7-0.2-13.5-0.8-20.3-2.1c-6.8-1.3-13.7-3.5-20.1-7.1C466.3,438.8,467.5,439.3,468.3,439.5
		L468.3,439.5z M403,398.4c0.6-0.3,1,0.7-0.1,0.8c0-0.2,0.3-0.3,0.2-0.5c-1.7,0.3-0.2,0.9-1.6,1.1c0.7-1-0.9,0.3-2.3,0.6
		C400.5,399.5,401.9,399,403,398.4L403,398.4z M424,385.7c0.7,0,1.3-0.8,2.7-1.2c-0.8,1.1-2.2,1.5-2.6,2.3
		C423.1,387.1,423.9,386,424,385.7z M430.1,383.2c0.3-0.2,0.3-0.1,0.4,0c0.4-0.5,0.2-1.4,1.4-1.4c0.2,0.4-1.3,0.8-0.6,1.2
		C430.6,383.4,430.2,383.5,430.1,383.2L430.1,383.2z M428.8,383.9c-0.8,0.1,1.1-1.6,1.7-1.5C430.7,382.9,429.2,383.4,428.8,383.9z
		 M434,380.4l0.2,0.5c-0.6,0.2-1.6,0.9-1.5,0.3C433.4,380.9,433.4,380.7,434,380.4L434,380.4z M442,376.8c0.4-0.1,0.4,0.2,0.8,0.1
		c-0.3,0.5-2,0.9-2.1,1.4c-1,0,0.6-1.2,1.5-1.2L442,376.8L442,376.8z M439.7,378.1c-0.6,0.1-3.2,1.3-3.1,1.9c-0.7-0.1-0.8,0-1.7,0.6
		c-0.4-0.3,0.5-0.6,0.4-0.9C437.2,379.4,438.9,377.3,439.7,378.1L439.7,378.1z M463.2,368.9c1.3-0.5,0.6,0.7,1,1
		C463.1,370.1,462.8,369.2,463.2,368.9z M476.5,365.2c-0.5,0.3-1.3,0.6-2.5,0.7C474.2,365.5,476,365.1,476.5,365.2z M450.1,371.7
		c-0.1,0.2-0.3,0.4-0.2,0.6c-0.9-0.5-4.2,2.7-3.9,0.9c0.7,0.2,1.4-0.3,2.1-0.7C448.8,372,449.4,371.6,450.1,371.7L450.1,371.7z
		 M480.8,364.5c-0.8,0.5-2.7,0.7-4.2,1.4c0.5-0.3,1.2-0.6,1.3-1.1C479.3,364.9,480,364.3,480.8,364.5z M453.7,370.1
		c0.3,0,0.6,0,1.1-0.2c0.4,0.4-0.6,0.6-0.5,0.9C453.7,370.8,453.3,370.5,453.7,370.1L453.7,370.1z M451.4,371
		c-0.2-0.3,1.2-0.5,1.7-0.7c0,0.4-0.6,0.7-0.4,1.1C451.5,371.6,451.8,371,451.4,371z M504.5,363.2c-0.5,0.6-3.2,0-4.4,0.3
		C501,362.7,502.4,363.4,504.5,363.2z M506.1,361c-0.3,0.1-0.4,0.4-0.4,0.7c-0.7-0.1-1.5-0.1-2.2-0.1
		C503.8,360.7,505,361.4,506.1,361L506.1,361z M495.4,444.2c3.5-0.3,9.6,0.9,17,0.7C508.9,445.3,500.7,444.7,495.4,444.2z
		 M511.2,448.9c2.1-0.2,3.4-0.2,3.6-0.1C514.8,448.9,513.7,449,511.2,448.9z M524.6,448.4c1.9-0.4,3.3-0.6,3.5-0.5
		C528.3,447.9,527.3,448.3,524.6,448.4z M516.8,354.9c0.4-0.7,3.6,0.4,5.1,0.5c0.9,0.3-0.2,0.1-1.6-0.1
		C518.9,355,517.2,354.7,516.8,354.9L516.8,354.9z M540.4,358.7c-0.5,0.1-1.6-0.3-2.6-0.8c-1.1-0.4-2.2-0.8-2.6-0.7
		c-0.4-0.4,0.8-0.2,2.2,0.3C538.7,357.9,540.2,358.5,540.4,358.7z M542.9,359.3c0.4,0.1,0.3,0.2,0.3,0.3
		C549.2,361.8,542.9,360.5,542.9,359.3z M573.5,386c-1.3-2-2.1-3.4-2.1-3.7C571.3,382.1,572.1,383,573.5,386z M569.1,379
		c-0.5-0.7-1.2-1.5-2-2.3c-0.8-0.8-1.6-1.8-2.5-2.6c-1.7-1.7-3.4-3.3-4.3-4.6c1.7,1.4,3.4,3.2,5,4.9
		C567,376.1,568.3,377.8,569.1,379z M555.9,441.8c-1.6,1.1-1.2,0.9-0.1,0.2c1.1-0.6,2.7-1.8,3.7-2.6c2.7-1.9,5.5-4.7,5.9-5.7
		c-0.6,0.6-1.3,1.3-2.1,2c-0.8,0.7-1.6,1.5-2.5,2.2C559.2,439.3,557.6,440.6,555.9,441.8L555.9,441.8z"/>
	<g>
		<path class="st3" d="M566.7,574l1.8,0.8l0.5,1.8l-0.6,1.7l-1.7,0.7l-1.6-0.8l-1.1-1.6l0.8-1.8L566.7,574z"/>
		<path class="st4" d="M640.7,516l1.8,0.8l0.5,1.8l-0.6,1.7l-1.7,0.7l-1.6-0.8l-1.1-1.6l0.8-1.8L640.7,516z"/>
		<path class="st3" d="M583.7,555l1.8,0.8l0.5,1.8l-0.6,1.7l-1.7,0.7l-1.6-0.8l-1.1-1.6l0.8-1.8L583.7,555z"/>
		<path class="st5" d="M606.3,311l2.9,1.3l0.8,2.8l-0.9,2.7l-2.8,1.2l-2.6-1.3l-1.7-2.5l1.3-2.9L606.3,311z"/>
		<path class="st3" d="M589.7,289l1.8,0.8l0.5,1.8l-0.6,1.7l-1.7,0.7l-1.6-0.8l-1.1-1.6l0.8-1.8L589.7,289z M561.7,307l1.8,0.8
			l0.5,1.8l-0.6,1.7l-1.7,0.7l-1.6-0.8l-1.1-1.6l0.8-1.8L561.7,307z M545.6,575l1.1,0.5l0.3,1.1l-0.3,1l-1,0.4l-1-0.5l-0.6-1
			l0.5-1.1L545.6,575z"/>
		<path class="st6" d="M525.2,404c0.2-0.4,0.5-0.7,0.6-1.1c0.1-0.4,0.3-0.8,0.4-1.2c0.1-0.4-0.3-1-0.2-1.4c0.1-0.4-0.3-1-0.3-1.5
			c0-0.4,0.2-0.8,0.2-1.3c0-0.4,0.1-0.9,0.1-1.3c0-0.4,0.6-0.7,0.6-1.1c0-0.4-0.7-1.2-0.6-1.6c0-0.4,0.4-0.7,0.5-1.2
			c0.1-0.5,0.2-1,0.3-1.4c0.2-0.5,0.7-0.7,0.9-1.2c0.2-0.4,0.3-0.9,0.5-1.4c0.2-0.4,0.1-1,0.3-1.5c0.1-0.5,0.6-0.8,0.8-1.2
			c0.2-0.4,0-1,0.3-1.4c0.2-0.4,0.3-0.9,0.5-1.3c0.3-0.4,1.1-0.5,1.4-0.9c0.3-0.3-0.1-1,0.3-1.3c0.3-0.3,1.3-0.3,1.7-0.5
			c0.4-0.3,0.1-0.9,0.4-1.2c0.4-0.3,1-0.4,1.4-0.7c0.4-0.3,1-0.4,1.4-0.7c0.1-0.1,0.7,0.2,0.6,0.3c-0.3,0.4-0.3,0.9-0.5,1.3
			c-0.2,0.4-1,0.5-1.2,1c-0.2,0.4,0.2,1.1,0.1,1.6c-0.1,0.5-0.4,0.8-0.5,1.3c-0.1,0.5,0,1-0.1,1.5c-0.1,0.5,0,1-0.1,1.5
			c-0.1,0.5-0.4,0.8-0.5,1.3c-0.1,0.5-0.4,0.8-0.6,1.2c-0.1,0.4,0.1,1.1-0.1,1.5c-0.2,0.4-0.3,0.9-0.6,1.3c-0.3,0.4-0.5,0.8-0.8,1.2
			c-0.4,0.3-1,0.6-1.5,0.9c-0.5,0.3-0.8,0.7-1.1,1.1c-0.3,0.4-1,0.6-1.2,1c-0.2,0.4-0.3,0.9-0.4,1.4c-0.1,0.5-0.1,1-0.2,1.5
			c-0.1,0.4-0.2,0.8-0.3,1.2c-0.1,0.4-0.2,0.8-0.3,1.2c-0.1,0.4-0.2,0.8-0.4,1.2s-0.6,0.7-0.8,1c-0.2,0.4-0.4,0.7-0.7,1.1
			C525.5,404.2,525.2,404,525.2,404"/>
		<path class="st7" d="M556.1,335.5c0.3,0,0.7,0.1,1.1,0c0.3-0.1,0.7-0.1,1-0.3c0.3-0.2,0.5-0.8,0.8-1c0.3-0.2,0.5-0.8,0.8-1.1
			c0.3-0.2,0.6-0.3,0.9-0.6c0.3-0.2,0.6-0.4,0.8-0.7c0.3-0.3,0.7,0.1,1-0.2c0.3-0.3,0.3-1.2,0.5-1.5c0.3-0.2,0.7-0.1,0.9-0.4
			c0.3-0.3,0.6-0.5,1-0.6c0.3-0.2,0.8,0,1.2-0.1c0.3-0.1,0.6-0.4,1-0.6c0.3-0.2,0.6-0.6,0.9-0.8c0.3-0.2,0.8-0.1,1.1-0.3
			c0.3-0.2,0.5-0.7,0.8-0.8c0.3-0.1,0.6-0.5,0.9-0.6c0.4-0.1,1,0.4,1.4,0.3c0.3-0.1,0.4-0.7,0.7-0.8c0.4,0,1.1,0.6,1.5,0.6
			s0.4-0.7,0.8-0.7c0.4,0,1,0.3,1.3,0.3c0.4,0,1,0.3,1.3,0.2c0.1,0,0.5,0.6,0.4,0.6c-0.4,0.1-0.6,0.6-0.9,0.8
			c-0.3,0.2-1-0.2-1.3,0.1s-0.3,1-0.6,1.3c-0.3,0.3-0.7,0.4-1,0.7c-0.3,0.3-0.5,0.8-0.8,1.1c-0.3,0.3-0.5,0.7-0.8,1
			c-0.3,0.3-0.7,0.3-1,0.6c-0.3,0.3-0.7,0.3-1.1,0.5c-0.3,0.2-0.5,0.8-0.9,1c-0.4,0.2-0.7,0.4-1.1,0.5c-0.4,0.1-0.8,0.2-1.2,0.2
			c-0.4,0-1-0.3-1.5-0.5c-0.5-0.2-0.9-0.1-1.3-0.1c-0.4,0-1-0.4-1.3-0.3c-0.4,0.1-0.7,0.3-1.1,0.5c-0.3,0.2-0.6,0.5-1,0.7
			c-0.3,0.2-0.6,0.3-1,0.5c-0.3,0.2-0.6,0.3-1,0.4c-0.3,0.1-0.7,0.3-1,0.3c-0.4,0.1-0.7-0.1-1.1-0.1c-0.4,0-0.7,0.1-1.1,0
			C556.1,335.8,556.1,335.5,556.1,335.5"/>
		<path class="st8" d="M480.2,422.6c0.5,0.2,0.9,0.6,1.5,0.8c0.5,0.2,1,0.4,1.6,0.5c0.5,0.1,1.2-0.2,1.8-0.1
			c0.6,0.1,1.3-0.3,1.8-0.2c0.6,0.1,1.1,0.2,1.6,0.3c0.6,0,1.1,0.2,1.7,0.2c0.6,0,0.9,0.6,1.5,0.7c0.6,0,1.4-0.6,1.9-0.6
			c0.6,0.1,1,0.5,1.5,0.5c0.6,0.1,1.2,0.2,1.8,0.4c0.6,0.2,1.1,0.7,1.6,0.9c0.6,0.2,1.2,0.3,1.8,0.5s1.3,0.1,1.9,0.3
			c0.6,0.1,1.1,0.6,1.7,0.8c0.6,0.2,1.3,0,1.8,0.2c0.6,0.2,1.2,0.3,1.8,0.5c0.5,0.3,0.9,1.2,1.4,1.5c0.5,0.3,1.2-0.1,1.7,0.3
			c0.5,0.3,0.7,1.4,1.1,1.8c0.5,0.4,1.2,0,1.6,0.4c0.5,0.4,0.8,1.1,1.2,1.4c0.5,0.4,0.8,1.1,1.3,1.4c0.1,0.1-0.1,0.8-0.2,0.7
			c-0.5-0.3-1.2-0.2-1.8-0.5c-0.6-0.2-0.9-1-1.5-1.2c-0.6-0.2-1.4,0.3-2,0.1c-0.6-0.1-1.2-0.4-1.8-0.5c-0.6-0.1-1.3,0-1.9,0
			c-0.6-0.1-1.3,0-1.9-0.1c-0.6-0.1-1.1-0.4-1.8-0.6s-1.1-0.5-1.7-0.6c-0.6-0.1-1.3,0.1-1.9-0.1c-0.6-0.2-1.2-0.3-1.8-0.6
			c-0.6-0.3-1.1-0.5-1.7-0.9s-0.9-1.1-1.4-1.6c-0.5-0.5-1-0.8-1.5-1.2c-0.5-0.3-0.9-1.1-1.5-1.3c-0.6-0.2-1.2-0.3-1.8-0.5
			c-0.6-0.1-1.3-0.1-1.9-0.2c-0.5-0.1-1.1-0.3-1.6-0.4s-1.1-0.2-1.6-0.4c-0.5-0.2-1.1-0.3-1.6-0.5c-0.5-0.2-0.9-0.6-1.4-0.9
			c-0.5-0.3-1-0.5-1.5-0.8C480.1,422.9,480.2,422.5,480.2,422.6"/>
		<path class="st3" d="M482.1,532.3c-0.3-0.5-0.4-1-0.7-1.5c-0.3-0.4-0.6-0.9-0.9-1.3c-0.4-0.4-1.1-0.5-1.5-0.9
			c-0.4-0.4-1.2-0.5-1.6-0.8c-0.4-0.4-0.7-0.8-1.1-1.1c-0.4-0.3-0.8-0.7-1.2-1.1c-0.4-0.3-0.4-1-0.8-1.4c-0.4-0.3-1.5-0.2-1.9-0.5
			c-0.4-0.3-0.5-0.9-1-1.2c-0.5-0.4-0.9-0.8-1.3-1.2c-0.4-0.4-0.5-1.1-0.9-1.6c-0.4-0.5-0.9-0.8-1.3-1.3c-0.4-0.5-1-0.7-1.4-1.1
			c-0.4-0.4-0.6-1-1-1.5c-0.4-0.4-1.1-0.6-1.4-1.1c-0.4-0.5-0.9-0.8-1.2-1.2c-0.3-0.5-0.2-1.4-0.5-1.9c-0.3-0.5-1.1-0.5-1.3-0.9
			c-0.2-0.5,0.1-1.5-0.2-2c-0.2-0.5-1-0.5-1.2-1c-0.2-0.5-0.2-1.3-0.5-1.8c-0.2-0.5-0.2-1.3-0.5-1.7c-0.1-0.1,0.4-0.6,0.5-0.5
			c0.4,0.5,1,0.7,1.4,1.1c0.4,0.4,0.4,1.3,0.8,1.7c0.5,0.4,1.3,0.3,1.8,0.7c0.5,0.4,0.8,0.8,1.3,1.2c0.5,0.4,1.2,0.6,1.7,0.9
			c0.5,0.4,1.1,0.6,1.6,1c0.5,0.4,0.8,0.9,1.3,1.3c0.5,0.4,0.8,0.9,1.2,1.4c0.4,0.4,1.2,0.6,1.6,1.1c0.4,0.5,0.8,0.9,1.2,1.4
			c0.3,0.5,0.7,1,0.9,1.6c0.2,0.6,0.2,1.4,0.3,2.1c0.1,0.7,0.4,1.2,0.7,1.8c0.2,0.6,0.2,1.4,0.5,1.9c0.4,0.5,0.8,0.9,1.2,1.4
			c0.4,0.4,1,0.8,1.4,1.2c0.4,0.4,0.7,0.8,1.1,1.2c0.4,0.4,0.7,0.8,1.1,1.3c0.3,0.4,0.7,0.9,1,1.3c0.3,0.5,0.4,1.1,0.6,1.6
			c0.2,0.5,0.5,1,0.6,1.5C482.5,532.2,482.2,532.4,482.1,532.3 M487.8,501.6c0.1,0,0.3,0,0.4,0c0.1-0.1,0.2-0.1,0.2-0.2
			c0-0.1-0.2-0.6-0.2-0.8c0-0.2-0.3-0.7-0.3-0.8c0-0.2,0.1-0.2,0.1-0.4s0-0.3,0-0.5c0-0.2,0.4,0.1,0.3-0.1c0-0.2-0.5-1-0.5-1.1
			c0-0.2,0.2-0.1,0.2-0.2c0-0.2,0.1-0.3,0.1-0.4c0.1-0.1,0.4,0.1,0.5,0c0.1-0.1,0.1-0.3,0.2-0.4c0.1-0.1,0-0.4,0.1-0.5
			c0.1-0.1,0.3,0,0.4-0.1c0.1-0.1-0.1-0.5,0-0.5c0.1-0.1,0.1-0.3,0.2-0.3c0.1,0,0.7,0.5,0.9,0.5c0.2,0-0.1-0.5,0.1-0.5
			c0.2,0.1,0.9,0.7,1.1,0.8c0.2,0.1-0.1-0.4,0.2-0.3c0.2,0.1,0.6,0.4,0.8,0.5c0.2,0.1,0.6,0.4,0.8,0.5c0.1,0,0.5,0.5,0.5,0.6
			c-0.2,0-0.1,0.3-0.2,0.4c-0.1,0.1-0.6-0.3-0.7-0.2c-0.1,0.1,0.3,0.7,0.2,0.9c0,0.2-0.2,0.2-0.2,0.4c0,0.2,0.1,0.5,0.1,0.7
			c0,0.2,0.1,0.5,0,0.6c0,0.2-0.2,0.1-0.2,0.3c0,0.2-0.2,0.1-0.3,0.3c-0.1,0.1,0.1,0.6,0,0.7c-0.1,0.1-0.1,0.2-0.3,0.3
			c-0.1,0-0.3,0.1-0.5,0c-0.2-0.1-0.6-0.4-0.9-0.5c-0.3-0.2-0.5-0.2-0.7-0.2c-0.2,0-0.6-0.4-0.8-0.3c-0.1,0.1-0.1,0.2-0.2,0.4
			c-0.1,0.1,0,0.4,0,0.6c0,0.1-0.1,0.2-0.2,0.3s-0.1,0.3-0.2,0.3c-0.1,0.1-0.1,0.2-0.2,0.3c-0.1,0-0.3-0.1-0.5-0.1
			c-0.2,0-0.2,0.1-0.5,0C487.9,501.8,487.8,501.7,487.8,501.6"/>
	</g>
</g>
<linearGradient id="SVGID_4_" gradientUnits="userSpaceOnUse" x1="-12.9977" y1="331.4709" x2="740.4323" y2="331.4709" gradientTransform="matrix(1 1.422018e-03 -1.422018e-03 1 3.636 2.4603)">
	<stop  offset="0" style="stop-color:#61EFFD;stop-opacity:0"/>
	<stop  offset="0.5193" style="stop-color:#61EFFD"/>
	<stop  offset="1" style="stop-color:#535FD7"/>
</linearGradient>
<path class="st9" d="M742.8,352.1c-41.7-15.2-103.7-39.3-145.6-53.2c8.4-21.9,23.5-52.6-5.6-66c-7.6-3.2-15.5-6.1-18.9-13.7
	c-0.2-13.6,12.9-21.2,20-31c3.9-12.7,13.8-25.7,6.3-39.6c-3.1-4.3-5.1-11.3-11.6-12.7c0.2-0.8-0.8-2.1-1.2-0.8
	c-17.2-13.5-44.4,1.9-45.9,22.5c-6.9,15.3,4.9,40.9-11.2,51.4c0.9,3.8-3,6.3-1.8,1.1c0.4-3.5-2.7-1.2-4.4-1.9
	c-2.4-1.3-5.3-2.2-7.9-1.9c0,0,0,0,0,0c-19.5-8.7-39.9,5.2-42.6,25.6c-3.5,8.2-9.2,20.3,3,22.5c1.4,1.2,3.3,1.3,4.7,2.5
	c0,0,0.1,0,0.1,0c-0.3,1.3-0.6,1.5,0.8,2.2c-0.1,0.9-0.3,1.8-0.7,2.5c-1.3-0.4-1.9,1.4-0.6,1.9c-0.4,1.5-0.9,2.9-1.3,4.4
	c-3.4-0.3-3.2-6.3-6.9-4.9c-3.5,2.3-7.1-2.5-9.6,2.1c-13.7-5-28.7-10.2-43.2-14.7c-47.6-15.7-97.6-35.7-144.9-47.8l-1.2-0.2
	c-6.2-6.2-19.2-6.7-27.7-10.8c-12.2-3.3-25.2-10.7-37.2-11.6c-1.3-0.1-2.5-0.4-3.7-1c0-3.9-7-1.9-9.1-3.1c-0.2-3.8-5-0.4-6.8-2.2
	c0.4-1.2-0.6-1.7-1.6-1.8l0.4-1.7c-2.8-1-5.6-2.5-8.5-2.7c-47.6-15.7-97.6-35.7-144.9-47.8c-0.4-0.1-0.8-0.1-1.2-0.2
	c-6.2-6.2-19.2-6.7-27.7-10.8c-12.2-3.3,4.1,8.6-5,5.2l-8.7,35.7C2.4,153.7,95,177,177.8,206l0-0.2c89.7,31.1,179.1,61.7,268.8,92.8
	c3.3,2.2,0,8.1-0.3,11.4c-0.1,9.4,19.2,3.4,17.2,13.9c-2.5,13.6-8.5,26.4-10.4,40c0.6,6.3,2.3,12.2-1.2,18.5
	c-7,31.9-18,61.1-24.8,93.3c0.2,2.9-7.1,2.2-2.6,5c2.9-1.1,2.3-4.1,5.4-0.2c5,7.2,15,7.3,22.7,10.5c9.8,1.6,18.7,8.7,28.2,9.6
	c0,0,0,0,0,0c7.7,2.6,24.9,7.9,4.8,7.8c-15.7-5.3-30.4-12.2-46.2-15.9c-3.3-4.3-9.8-2.9-14.4-5.7c-2.8-2.6-4.8-1.6-8,0
	c-1.8,0.5-1.6,3.1-3.4,3.6c-2.8,0.7-0.2,5-3.5,4.7c-1.6-0.1-1.4-2.3-2.6-3c-3.3-1.2,0,4-2.1,4.8c-18.4,40.4-8.3,35.2,27.4,47.6
	c0.1,0.4,0.4,0.4,0.6,0.2c1.2,0.5,2.4,1,3.6,1.5c0,0.5,0.3,0.5,0.6,0.2c13,4.5,26.6,9.4,39.5,13.6c5.3,1.6,11.2-2.8,12.1-8.3
	c2.8-2.7,1.7-7.7,3-11.2c3.6-8.7,19.1-36.1,1.4-38.4c-4.7-6.9,13.4-39,17.6-48.7c7.5-18.3,13-38.8,23.4-56.5l0,0
	c13.5-8.4,13.7-30.4,21.9-43.8c3.4-3.8,11.1,2.2,15.5,3.1c6.8,2.9,7-6.7,9.1-10.9c44,14,107.3,39.3,150.7,55l11.8-48.1
	C743.3,352.2,743.1,352.1,742.8,352.1z"/>
<linearGradient id="SVGID_5_" gradientUnits="userSpaceOnUse" x1="-319.8223" y1="513.2185" x2="-229.9055" y2="513.2185" gradientTransform="matrix(-0.5661 0.8244 -0.8244 -0.5661 583.2349 1011.6517)">
	<stop  offset="0" style="stop-color:#61EFFD;stop-opacity:0"/>
	<stop  offset="0.5193" style="stop-color:#61EFFD"/>
	<stop  offset="1" style="stop-color:#535FD7"/>
</linearGradient>
<path class="st10" d="M292.9,533.4c-1.6-1.1-3.3-2.3-4.9-3.4c-0.5-0.4-1-0.8-1.4-1.2c-4.6-4-8.4-8.6-11-14.1
	c-6.3-13.1-6.4-26.4-0.3-39.6c0.5-1.1,1.1-2.2,1.7-3.4c1.2-1.7,2.3-3.4,3.5-5.1c0.7-0.8,1.4-1.6,2.1-2.4c6.1-6.5,13.3-11.1,22-13.2
	c16.3-3.9,30.7,0,42.8,11.5c8.5,8.1,12.9,18.4,13.4,30.1c0.5,12.5-3.6,23.5-12.2,32.7c-7.8,8.4-17.6,12.9-28.9,14
	c-7.8,0.7-15.3-0.6-22.5-3.9C295.7,534.8,294.3,534.1,292.9,533.4z M337.1,507c1.5,1,3,2.1,4.6,3.1c0.3,0.2,0.8,0.3,1.2,0.2
	c4-1.4,8-2.8,12-4.2c0.3-0.1,0.6-0.4,0.7-0.7c2.4-8.9,1.8-17.7-1.6-26.2c-0.1-0.2-0.4-0.5-0.7-0.6c-3.8-1.2-7.6-2.4-11.5-3.5
	c-0.3-0.1-0.8,0-1.1,0.2c-2.9,2.2-5.8,4.4-8.7,6.6c-0.3,0.2-0.6,0.8-0.6,1.1c0.1,6.6,0.3,13.1,0.5,19.6c0,0.6,0.2,0.9,0.7,1.2
	C334.2,504.9,335.6,505.9,337.1,507z M335.1,510.1c-1.5-1-3-2.1-4.6-3.1c-0.3-0.2-0.9-0.3-1.3-0.2c-6.2,2.2-12.4,4.3-18.5,6.6
	c-0.3,0.1-0.7,0.5-0.8,0.9c-1.1,3.5-2.1,7-3.1,10.6c-0.2,0.5-0.1,0.9,0.3,1.3c2.4,3,4.8,6.1,7.2,9.2c0.2,0.3,0.7,0.6,1.1,0.6
	c9.1,0,17.3-2.5,24.7-7.9c0.3-0.2,0.5-0.7,0.5-1c-0.1-4.2-0.2-8.4-0.3-12.6c0-0.4-0.3-0.8-0.6-1
	C338.1,512.1,336.6,511.1,335.1,510.1z M299,483.8c1.9-2.8,3.9-5.6,5.8-8.4c0.2-0.3,0.4-0.7,0.3-1c-0.7-3.9-1.4-7.8-2.2-11.7
	c-0.1-0.3-0.3-0.6-0.5-0.7c-2.1-1-4.3-2-6.4-3.1c-0.5-0.2-0.8-0.2-1.3,0.1c-6.1,3.7-11,8.5-14.6,14.7c-2.5,4.3-4.2,8.9-5.1,13.7
	c-0.1,0.5-0.1,0.8,0.4,1.2c2,1.9,4,3.8,6.1,5.7c0.3,0.2,0.8,0.4,1.1,0.3c3.2-0.6,6.4-1.1,9.6-1.8c0.4-0.1,0.8-0.4,1-0.7
	C295.2,489.4,297.1,486.6,299,483.8z M306.6,461.4c0,0.2,0,0.5,0,0.8c0.6,3.5,1.3,7,1.9,10.4c0.1,0.5,0.3,0.7,0.8,0.9
	c6.4,1.9,12.8,3.8,19.2,5.6c0.4,0.1,0.9,0,1.2-0.2c2.9-2.2,5.8-4.4,8.7-6.6c0.3-0.2,0.5-0.7,0.5-1.1c0-3.4-0.1-6.9-0.2-10.3
	c0-0.3-0.3-0.8-0.5-0.9c-1.1-0.7-2.3-1.4-3.5-2c-5.8-3-11.9-4.5-18.4-4.7c-1.4,0-2.4,0.3-3.4,1.4C310.9,456.9,308.8,459,306.6,461.4
	z M291.2,527.7c0.5,0.7,1.2,0.6,2,0.3c3-1.1,6-2.2,9.1-3.3c0.6-0.2,0.9-0.5,1.1-1.1c1-3.4,2-6.8,3-10.3c0.1-0.3,0-0.9-0.2-1.2
	c-3.9-5.1-7.8-10.1-11.6-15.2c-0.3-0.4-0.6-0.5-1.1-0.4c-3.2,0.6-6.5,1.2-9.8,1.8c-0.7,0.1-1.1,0.5-1.3,1c-1.5,3.2-3,6.5-4.6,9.7
	c-0.3,0.5-0.2,0.9,0,1.4C280.5,517.3,285,523.1,291.2,527.7z"/>
<linearGradient id="SVGID_6_" gradientUnits="userSpaceOnUse" x1="80.6927" y1="134.7209" x2="170.4355" y2="134.7209" gradientTransform="matrix(0.2289 -0.9734 0.9734 0.2289 -93.578 139.4827)">
	<stop  offset="0" style="stop-color:#FE7E1F"/>
	<stop  offset="0.3435" style="stop-color:#F19435"/>
	<stop  offset="0.7267" style="stop-color:#E7A647"/>
	<stop  offset="1" style="stop-color:#E3AD4E"/>
</linearGradient>
<path class="st11" d="M73.5,3.7c1.9,0.5,3.9,0.9,5.8,1.4c0.6,0.2,1.2,0.4,1.8,0.6c5.7,2.1,10.9,5,15.4,9.2
	c10.6,9.9,15.5,22.2,14.6,36.7c-0.1,1.2-0.2,2.5-0.3,3.7c-0.5,2-0.9,4-1.4,6c-0.4,1-0.7,2-1.1,3c-3.3,8.3-8.4,15.2-15.7,20.2
	C78.8,94,64,95.7,48.5,89.3c-10.9-4.5-18.6-12.4-23.3-23.2c-5-11.5-5.2-23.2-0.5-34.8C29,20.7,36.4,12.9,46.6,7.8
	c7-3.5,14.5-5,22.3-4.5C70.4,3.4,72,3.6,73.5,3.7z M41.9,44.3c-1.8-0.4-3.6-0.9-5.4-1.2c-0.4-0.1-0.9,0-1.2,0.3
	c-3.2,2.7-6.4,5.5-9.6,8.3c-0.2,0.2-0.4,0.6-0.4,0.9c1,9.1,4.7,17.1,10.9,23.8c0.2,0.2,0.6,0.3,0.8,0.3c4-0.3,8-0.6,11.9-0.9
	c0.3,0,0.8-0.3,0.9-0.6c1.9-3.1,3.8-6.2,5.7-9.3c0.2-0.3,0.2-0.9,0.1-1.3c-2.5-6-5-12.1-7.6-18.1c-0.2-0.5-0.5-0.8-1-0.9
	C45.4,45.1,43.7,44.7,41.9,44.3z M42.7,40.6c1.8,0.4,3.6,0.9,5.4,1.2c0.4,0.1,0.9-0.1,1.2-0.3c5-4.2,9.9-8.5,14.8-12.8
	c0.3-0.2,0.5-0.7,0.4-1.1c-0.3-3.7-0.6-7.3-0.9-11c0-0.5-0.3-0.8-0.7-1.1c-3.3-2-6.6-4-10-5.9c-0.3-0.2-0.9-0.3-1.3-0.1
	c-8.5,3.2-15.2,8.6-20.1,16.3c-0.2,0.3-0.2,0.8-0.1,1.1c1.6,3.9,3.2,7.8,4.9,11.6c0.1,0.3,0.6,0.7,0.9,0.8
	C39.1,39.8,40.9,40.2,42.7,40.6z M85.7,52c-0.8,3.3-1.6,6.6-2.3,9.9c-0.1,0.3-0.1,0.8,0.1,1.1c2.1,3.4,4.2,6.8,6.3,10.1
	c0.1,0.2,0.5,0.5,0.7,0.5c2.4,0.2,4.7,0.3,7.1,0.5c0.5,0,0.8-0.1,1.1-0.6c4.4-5.6,7.1-11.9,8.3-19c0.8-4.9,0.7-9.7-0.3-14.6
	c-0.1-0.5-0.2-0.8-0.8-1c-2.6-1-5.1-2.1-7.7-3.1c-0.3-0.1-0.9-0.1-1.2,0.1c-2.8,1.7-5.5,3.4-8.3,5.1c-0.3,0.2-0.6,0.6-0.7,1
	C87.3,45.4,86.5,48.7,85.7,52z M86.8,75.6c-0.1-0.1-0.1-0.4-0.3-0.7c-1.9-3-3.7-6-5.6-9c-0.3-0.4-0.5-0.6-1-0.6
	c-6.6,0.6-13.3,1.1-19.9,1.7c-0.4,0-0.9,0.3-1.1,0.7c-1.9,3.1-3.8,6.2-5.7,9.3c-0.2,0.3-0.2,0.8-0.1,1.2c1.3,3.2,2.6,6.4,3.9,9.6
	c0.1,0.3,0.5,0.6,0.9,0.7c1.3,0.3,2.6,0.5,4,0.6c6.5,0.7,12.7-0.1,18.8-2.3c1.3-0.5,2.2-1.1,2.7-2.5C84.4,81.4,85.6,78.6,86.8,75.6z
	 M77.2,8.4c-0.7-0.5-1.3-0.1-2,0.5c-2.4,2.1-4.8,4.3-7.2,6.3c-0.5,0.4-0.6,0.8-0.6,1.4c0.3,3.5,0.6,7.1,1,10.6c0,0.4,0.3,0.8,0.6,1
	c5.4,3.3,10.9,6.6,16.3,10c0.4,0.3,0.7,0.3,1.2,0c2.8-1.8,5.6-3.5,8.4-5.2c0.6-0.4,0.8-0.8,0.9-1.5c0.2-3.5,0.5-7.1,0.8-10.6
	c0-0.6-0.1-0.9-0.5-1.3C90.8,14.2,84.6,10.4,77.2,8.4z"/>
</svg>
