<?xml version="1.0" encoding="utf-8"?>
<!-- Generator: Adobe Illustrator 25.0.0, SVG Export Plug-In . SVG Version: 6.00 Build 0)  -->
<svg version="1.1" id="Слой_1" xmlns="http://www.w3.org/2000/svg" xmlns:xlink="http://www.w3.org/1999/xlink" x="0px" y="0px"
	 viewBox="0 0 106 32" style="enable-background:new 0 0 106 32;" xml:space="preserve">
<style type="text/css">
	.st0{fill:#3C5A98;}
</style>
<g>
	<g>
		<g>
			<path class="st0" d="M6.7,24.9L6.7,24.9H3.2h0c-0.2,0-0.7,0-0.7,0.6c0,0.3,0,0.7,0,1C2.1,26.7,2,27,1.9,27.2c0,0,0,0,0,0.1
				l-0.3,3.1c0,0.7,0.5,1.2,1.1,1.2h0.4h4l0,0c0.6,0,1.2-0.6,1.2-1.2c0-0.7-0.3-2.7-0.3-3.1c0-0.3-0.1-0.4-0.2-0.5
				c-0.2-0.2-0.4-0.2-0.6-0.2v-0.4v-0.8v-0.1C7.3,25.2,7.2,24.9,6.7,24.9C6.8,24.9,6.8,24.9,6.7,24.9L6.7,24.9z"/>
			<path class="st0" d="M4.7,0.4c-0.3,0-0.6,0-0.9,0.1c-0.2,0-0.3,0.2-0.3,0.4c0,0.1,0,0.3,0,0.4c0,0.1,0,0.1,0,0.2
				C3,1.8,3.1,2.4,3.1,2.9V3C3,3.1,2.9,3.2,2.8,3.4c-0.2,0.4,0,1.1,0.3,1.5c0.1,0.2,0.4,0.7,0.4,1.3c-0.4,0.2-0.7,0.3-1,0.5
				c-1.8,0.9-2,1.1-1.9,3.4c0,0.1,0.1,0.2,0.2,0.3l1,0.6c0,0,0.1,0,0.2,0l0,0h5.9C8,11,8,11,8.1,11l1.1-0.6c0.1-0.1,0.2-0.2,0.2-0.3
				c0.2-2.2-0.2-2.5-1.8-3.3C7.3,6.5,7,6.3,6.6,6.1c0-0.2,0-0.4,0.2-0.7C6.9,5.2,7,5.1,7,4.8C7.3,4.6,7.4,4,7.4,3.6
				C7.3,3.3,7.2,3.1,7,3c0-0.1,0-0.2,0-0.3c0-0.2,0-0.4,0-0.6c0,0,0-0.1,0-0.2C6.6,1.2,6.1,0.4,4.7,0.4L4.7,0.4L4.7,0.4L4.7,0.4z"/>
			<path class="st0" d="M6,12.6c0-0.1-0.1-0.2-0.3-0.2H4.4c-0.1,0-0.2,0.1-0.3,0.2L1.8,23.1c0,0.1,0,0.2,0,0.2
				c0,0.1,0.1,0.1,0.2,0.1h1.5c0.1,0,0.2-0.1,0.3-0.2l0.4-2h1.6l0.4,2c0,0.1,0.1,0.2,0.3,0.2H8c0.1,0,0.2,0,0.2-0.1s0.1-0.2,0-0.2
				L6,12.6z M5.7,19.4H4.5l0.6-3.1L5.7,19.4z"/>
		</g>
		<g>
			<path class="st0" d="M15,0.4c-0.3,0-0.6,0-0.9,0.1c-0.2,0-0.3,0.2-0.3,0.4c0,0.1,0,0.3,0,0.4c0,0.1,0,0.1,0,0.2
				c-0.4,0.3-0.4,0.9-0.4,1.4V3c-0.1,0.1-0.2,0.2-0.2,0.3c-0.2,0.4,0,1.1,0.3,1.5c0.1,0.2,0.4,0.7,0.4,1.3c-0.4,0.2-0.7,0.3-1,0.5
				c-1.8,0.9-2,1.1-1.9,3.4c0,0.1,0.1,0.2,0.2,0.3l1,0.6c0,0,0.1,0,0.2,0l0,0h5.9c0.1,0,0.1,0,0.2,0l1.1-0.6
				c0.1-0.1,0.2-0.2,0.2-0.3C20,7.8,19.6,7.5,18,6.7c-0.3-0.2-0.7-0.3-1.1-0.6c0-0.2,0-0.4,0.2-0.7c0.1-0.2,0.2-0.3,0.2-0.6
				c0.4-0.3,0.5-0.9,0.4-1.2c0-0.3-0.2-0.5-0.3-0.6c0-0.1,0-0.2,0-0.4s0-0.4,0-0.6c0,0,0-0.1,0-0.2C16.8,1.2,16.4,0.4,15,0.4L15,0.4
				L15,0.4L15,0.4z"/>
			<path class="st0" d="M17,24.9L17,24.9h-3.5h-0.1c-0.2,0-0.7,0-0.7,0.6c0,0.3,0,0.7,0,1c-0.4,0.1-0.6,0.3-0.6,0.6c0,0,0,0,0,0.1
				l-0.3,3.1c0,0.7,0.5,1.2,1.1,1.2H13h4.4l0,0c0.6,0,1.2-0.6,1.2-1.2c0-0.7-0.3-2.7-0.3-3.1c0-0.3-0.1-0.4-0.2-0.5
				c-0.2-0.2-0.4-0.2-0.6-0.2v-0.4v-0.8v-0.1C17.6,25.2,17.4,24.9,17,24.9L17,24.9L17,24.9z"/>
			<path class="st0" d="M17.8,12.4h-5c-0.2,0-0.3,0.1-0.3,0.3v1.4c0,0.2,0.1,0.3,0.3,0.3h1.5v8.8c0,0.2,0.1,0.3,0.3,0.3h1.5
				c0.2,0,0.3-0.1,0.3-0.3v-8.8h1.5c0.2,0,0.3-0.1,0.3-0.3v-1.4C18.1,12.5,18,12.4,17.8,12.4z"/>
		</g>
		<g>
			<path class="st0" d="M25.2,0.4c-0.3,0-0.6,0-0.9,0.1c-0.2,0-0.3,0.2-0.3,0.4c0,0.1,0,0.3,0,0.4c0,0.1,0,0.1,0,0.2
				c-0.4,0.3-0.4,0.9-0.4,1.4V3c-0.1,0.1-0.2,0.2-0.2,0.3c-0.2,0.4,0,1.1,0.3,1.5C23.8,5.1,24,5.6,24,6.1c-0.4,0.2-0.7,0.3-1,0.5
				c-1.8,0.9-2,1.1-1.9,3.4c0,0.1,0.1,0.2,0.2,0.3l1,0.6c0,0,0.1,0,0.2,0l0,0h5.9c0.1,0,0.1,0,0.2,0l1.1-0.6
				c0.1-0.1,0.2-0.2,0.2-0.3c0.2-2.2-0.2-2.5-1.8-3.3c-0.3-0.2-0.7-0.3-1.1-0.6c0-0.2,0-0.4,0.2-0.7c0.1-0.2,0.2-0.3,0.2-0.6
				c0.4-0.3,0.5-0.9,0.4-1.3c0-0.3-0.2-0.5-0.3-0.6c0-0.1,0-0.2,0-0.3c0-0.2,0-0.4,0-0.6c0,0,0-0.1,0-0.2C27,1.2,26.6,0.4,25.2,0.4
				L25.2,0.4L25.2,0.4L25.2,0.4z"/>
			<path class="st0" d="M27.2,24.9L27.2,24.9h-3.5h-0.1c-0.2,0-0.7,0-0.7,0.6c0,0.2,0,0.5,0,0.7c0,0.1,0,0.2,0,0.3
				c-0.4,0.1-0.6,0.3-0.6,0.6c0,0,0,0,0,0.1L22,30.3c0,0.7,0.5,1.2,1.1,1.2h4.4l0,0c0.6,0,1.2-0.6,1.2-1.2c0-0.7-0.3-2.7-0.3-3.1
				c0-0.3-0.1-0.4-0.2-0.5c-0.2-0.2-0.4-0.2-0.6-0.2v-0.4v-0.8v-0.1C27.8,25.2,27.6,24.9,27.2,24.9C27.3,24.9,27.3,24.9,27.2,24.9
				L27.2,24.9z"/>
			<path class="st0" d="M26.8,12.5c-0.3-0.2-0.7-0.2-1.1-0.2c-0.5,0-0.9,0.1-1.3,0.2c-0.4,0.2-0.7,0.4-0.9,0.7
				c-0.2,0.3-0.4,0.6-0.6,1c-0.1,0.4-0.2,0.8-0.2,1.2c0,0.7,0.1,1.3,0.4,1.8c0.2,0.5,0.7,0.9,1.5,1.2l1.1,0.4C25.8,19,26,19,26,19.1
				c0.1,0,0.1,0.1,0.2,0.2c0,0.1,0.1,0.2,0.1,0.3c0,0.2,0,0.4,0,0.6s0,0.4,0,0.6c0,0.1,0,0.3-0.1,0.4c0,0.1-0.1,0.2-0.2,0.2
				s-0.2,0.1-0.5,0.1s-0.5-0.1-0.6-0.2c-0.1-0.2-0.2-0.4-0.2-0.6v-0.5c0-0.2-0.1-0.3-0.3-0.3h-1.5c-0.2,0-0.3,0.1-0.3,0.3v0.6
				c0,0.4,0.1,0.8,0.2,1.1c0.1,0.3,0.4,0.6,0.6,0.9c0.2,0.2,0.6,0.4,0.9,0.6c0.4,0.1,0.7,0.2,1.1,0.2c0.5,0,1-0.1,1.4-0.3
				c0.4-0.2,0.7-0.4,0.9-0.7c0.2-0.3,0.4-0.7,0.5-1.1s0.1-0.8,0.1-1.3c0-0.4,0-0.7,0-1.1c0-0.3-0.1-0.6-0.2-0.9s-0.3-0.5-0.6-0.7
				c-0.2-0.2-0.5-0.4-0.9-0.5l-1.2-0.5c-0.2-0.1-0.3-0.1-0.4-0.2c-0.1,0-0.1-0.1-0.2-0.2c0-0.1-0.1-0.2-0.1-0.3s0-0.3,0-0.5
				s0-0.3,0-0.5c0-0.1,0.1-0.2,0.1-0.3s0.1-0.2,0.2-0.2s0.2-0.1,0.4-0.1c0.4,0,0.5,0.1,0.6,0.2c0.1,0.2,0.2,0.4,0.2,0.7v0.3
				c0,0.2,0.1,0.3,0.3,0.3H28c0.2,0,0.3-0.1,0.3-0.3v-0.7c0-0.7-0.2-1.3-0.8-1.8C27.4,12.9,27.1,12.7,26.8,12.5z"/>
		</g>
		<g>
			<path class="st0" d="M35.5,0.4c-0.3,0-0.6,0-0.9,0.1c-0.2,0-0.3,0.2-0.3,0.4c0,0.1,0,0.3,0,0.4c0,0.1,0,0.1,0,0.2
				c-0.4,0.3-0.4,0.9-0.4,1.4V3c-0.1,0.1-0.2,0.2-0.2,0.3c-0.2,0.4,0,1.1,0.3,1.5c0.1,0.2,0.4,0.7,0.4,1.3c-0.4,0.2-0.7,0.3-1,0.5
				c-1.8,0.9-2,1.1-1.9,3.4c0,0.1,0.1,0.2,0.2,0.3l1,0.6c0,0,0.1,0,0.2,0l0,0h5.9c0.1,0,0.1,0,0.2,0l1.1-0.6
				c0.1-0.1,0.2-0.2,0.2-0.3c0.2-2.2-0.2-2.5-1.8-3.3c-0.3-0.2-0.7-0.3-1.1-0.6c0-0.2,0-0.4,0.2-0.7c0.1-0.2,0.2-0.3,0.2-0.6
				C38,4.6,38.1,4,38.1,3.6c0-0.3-0.2-0.5-0.3-0.6c0-0.1,0-0.2,0-0.3c0-0.2,0-0.4,0-0.6c0,0,0-0.1,0-0.2C37.2,1.1,36.8,0.4,35.5,0.4
				L35.5,0.4L35.5,0.4L35.5,0.4z"/>
			<path class="st0" d="M37.5,24.9L37.5,24.9H34l0,0c-0.6,0-0.7,0.4-0.7,0.6c0,0.3,0,0.7,0,1c-0.3,0-0.6,0.2-0.6,0.6c0,0,0,0,0,0.1
				l-0.3,3.1c0,0.7,0.5,1.2,1.1,1.2h4.4l0,0c0.6,0,1.2-0.6,1.2-1.2c0-0.7-0.3-2.7-0.3-3.1c0-0.3-0.1-0.4-0.2-0.5
				c-0.2-0.2-0.4-0.2-0.6-0.2c0-0.1,0-0.2,0-0.4c0-0.2,0-0.5,0-0.8c0,0,0,0,0-0.1C38,25.2,37.9,24.9,37.5,24.9L37.5,24.9L37.5,24.9z
				"/>
			<path class="st0" d="M38.1,12.4h-4.5c-0.2,0-0.3,0.1-0.3,0.3v10.6c0,0.2,0.1,0.3,0.3,0.3h1.5c0.2,0,0.3-0.1,0.3-0.3V19h2.3
				c0.2,0,0.3-0.1,0.3-0.3v-1.4c0-0.2-0.1-0.3-0.3-0.3h-2.3v-2.6h2.7c0.2,0,0.3-0.1,0.3-0.3v-1.4C38.4,12.5,38.3,12.4,38.1,12.4z"/>
		</g>
	</g>
	<g>
		<path class="st0" d="M48.5,6h1.6l0.3,1.2H52l-1.8-5.9h-1.9l-1.8,5.9h1.6L48.5,6z M49.3,2.5L49.3,2.5c0.2,0.6,0.3,1.3,0.5,1.9
			l0.1,0.4h-1.1l0.1-0.4C49,3.8,49.1,3.1,49.3,2.5z"/>
		<path class="st0" d="M54.1,5.3h0.6l1,2h1.7L56.2,5c0.6-0.3,0.9-0.9,0.9-1.7c0-1.5-1.1-1.9-2.3-1.9h-2.2v5.9h1.5
			C54.1,7.3,54.1,5.3,54.1,5.3z M54.1,2.6h0.6c0.6,0,0.9,0.2,0.9,0.7s-0.3,0.8-0.9,0.8h-0.6V2.6z"/>
		<path class="st0" d="M62.7,3.4c-0.1,0.6-0.2,1.5-0.2,2.1v1.7h1.4V1.4h-1.7l-0.8,2.4c-0.1,0.3-0.2,0.7-0.3,1l0,0
			c-0.1-0.3-0.2-0.7-0.3-1l-0.9-2.4h-1.7v5.9h1.4V5.5c0-0.6-0.1-1.5-0.2-2.1l0,0l0.5,1.4l0.7,1.9h0.8l0.7-1.9L62.7,3.4L62.7,3.4z"/>
		<polygon class="st0" points="69,5.9 66.6,5.9 66.6,4.9 68.5,4.9 68.5,3.6 66.6,3.6 66.6,2.7 68.9,2.7 68.9,1.4 65.1,1.4 65.1,7.2 
			69,7.2 		"/>
		<path class="st0" d="M71.4,5.6c0-0.7-0.1-1.6-0.2-2.2l0,0l0.6,1.3l1.3,2.6h1.6V1.4h-1.5v1.7c0,0.7,0.1,1.6,0.2,2.2l0,0L72.8,4
			l-1.3-2.6h-1.6v5.9h1.5V5.6z"/>
		<rect x="75.8" y="1.4" class="st0" width="1.5" height="5.9"/>
		<path class="st0" d="M79.8,6h1.6l0.3,1.2h1.6l-1.8-5.9h-1.9L78,7.2h1.6L79.8,6z M80.6,2.5L80.6,2.5c0.2,0.6,0.3,1.3,0.5,1.9
			l0.1,0.4h-1.1l0.1-0.4C80.3,3.8,80.5,3.1,80.6,2.5z"/>
		<path class="st0" d="M85.4,5.6c0-0.7-0.1-1.6-0.2-2.2l0,0l0.6,1.3l1.3,2.6h1.6V1.4h-1.5v1.7c0,0.7,0.1,1.6,0.2,2.2l0,0L86.8,4
			l-1.3-2.6H84v5.9h1.5L85.4,5.6L85.4,5.6z"/>
		<polygon class="st0" points="48.4,18.9 50,18.9 50,14.3 51.5,14.3 51.5,13 46.9,13 46.9,14.3 48.4,14.3 		"/>
		<path class="st0" d="M52.8,13L51,18.9h1.6l0.3-1.2h1.6l0.3,1.2h1.6L54.7,13H52.8z M53.2,16.4l0.1-0.4c0.1-0.6,0.3-1.3,0.4-1.9l0,0
			c0.1,0.6,0.3,1.3,0.4,1.9l0.1,0.4H53.2z"/>
		<path class="st0" d="M61.3,14.5c0-1.2-1-1.5-2.2-1.5H57v5.9h2.3c1.3,0,2.3-0.5,2.3-1.7c0-0.8-0.5-1.2-1-1.4l0,0
			C61,15.6,61.3,15,61.3,14.5z M58.6,14.2h0.5c0.5,0,0.7,0.1,0.7,0.5s-0.2,0.6-0.7,0.6h-0.5V14.2z M59.2,17.7h-0.6v-1.2h0.6
			c0.6,0,0.9,0.2,0.9,0.6C60.1,17.5,59.8,17.7,59.2,17.7z"/>
		<polygon class="st0" points="66.2,17.6 64,17.6 64,13 62.5,13 62.5,18.9 66.2,18.9 		"/>
		<polygon class="st0" points="71.1,17.6 68.8,17.6 68.8,16.5 70.7,16.5 70.7,15.2 68.8,15.2 68.8,14.3 71,14.3 71,13 67.2,13 
			67.2,18.9 71.1,18.9 		"/>
		<path class="st0" d="M76,17.6c-0.4,0-1-0.2-1.4-0.6l-0.9,1.1c0.6,0.6,1.5,0.8,2.2,0.8c1.5,0,2.3-0.9,2.3-1.9
			c0-0.8-0.4-1.3-1.1-1.6l-0.7-0.3c-0.5-0.2-0.9-0.3-0.9-0.6s0.2-0.4,0.6-0.4s0.8,0.1,1.2,0.4l0.8-1c-0.5-0.5-1.3-0.8-1.9-0.8
			c-1.3,0-2.2,0.8-2.2,1.8c0,0.8,0.5,1.4,1.2,1.6l0.7,0.3c0.5,0.2,0.8,0.3,0.8,0.6C76.7,17.5,76.5,17.6,76,17.6z"/>
		<path class="st0" d="M78.9,15.9c0,1.9,1.1,3.1,2.7,3.1s2.7-1.1,2.7-3.1c0-1.9-1.1-3-2.7-3S78.9,14,78.9,15.9z M82.8,15.9
			c0,1.1-0.4,1.7-1.1,1.7s-1.1-0.7-1.1-1.7c0-1.1,0.4-1.7,1.1-1.7S82.8,14.9,82.8,15.9z"/>
		<path class="st0" d="M88,19c0.8,0,1.4-0.3,1.9-0.9l-0.8-1c-0.3,0.3-0.6,0.5-1.1,0.5c-0.8,0-1.3-0.6-1.3-1.7s0.6-1.7,1.3-1.7
			c0.4,0,0.7,0.2,1,0.4l0.8-1c-0.4-0.4-1-0.8-1.8-0.8c-1.5,0-2.8,1.1-2.8,3.1C85.2,18,86.5,19,88,19z"/>
		<path class="st0" d="M93,19c0.8,0,1.4-0.3,1.9-0.9l-0.8-1c-0.3,0.3-0.6,0.5-1.1,0.5c-0.8,0-1.3-0.6-1.3-1.7s0.6-1.7,1.3-1.7
			c0.4,0,0.7,0.2,1,0.4l0.8-1c-0.4-0.4-1-0.8-1.8-0.8c-1.5,0-2.8,1.1-2.8,3.1C90.2,18,91.5,19,93,19z"/>
		<polygon class="st0" points="97.2,16.5 99.1,16.5 99.1,15.2 97.2,15.2 97.2,14.3 99.4,14.3 99.4,13 95.6,13 95.6,18.9 99.5,18.9 
			99.5,17.6 97.2,17.6 		"/>
		<path class="st0" d="M105.4,18.9l-1.3-2.3c0.6-0.3,0.9-0.9,0.9-1.7c0-1.5-1.1-1.9-2.3-1.9h-2.2v5.9h1.5v-2h0.6l1,2
			C103.6,18.9,105.4,18.9,105.4,18.9z M102,14.2h0.6c0.6,0,0.9,0.2,0.9,0.7s-0.3,0.8-0.9,0.8H102V14.2z"/>
		<polygon class="st0" points="47.3,30.5 48.9,30.5 48.9,28.4 50.8,28.4 50.8,27.1 48.9,27.1 48.9,25.9 51.1,25.9 51.1,24.6 
			47.3,24.6 		"/>
		<polygon class="st0" points="53.7,28.2 55.6,28.2 55.6,26.9 53.7,26.9 53.7,25.9 55.9,25.9 55.9,24.6 52.1,24.6 52.1,30.5 
			56,30.5 56,29.2 53.7,29.2 		"/>
		<path class="st0" d="M58.7,24.6H57v5.9h1.8c1.7,0,2.9-0.9,2.9-3S60.5,24.6,58.7,24.6z M58.6,29.3L58.6,29.3l-0.1-3.4h0.1
			c0.8,0,1.5,0.3,1.5,1.7S59.5,29.3,58.6,29.3z"/>
		<polygon class="st0" points="64.2,28.2 66.1,28.2 66.1,26.9 64.2,26.9 64.2,25.9 66.5,25.9 66.5,24.6 62.7,24.6 62.7,30.5 
			66.6,30.5 66.6,29.2 64.2,29.2 		"/>
		<path class="st0" d="M72.1,26.5c0-1.5-1.1-1.9-2.3-1.9h-2.2v5.9h1.5v-2h0.6l1,2h1.7l-1.3-2.3C71.7,27.9,72.1,27.4,72.1,26.5z
			 M69.1,25.9h0.6c0.6,0,0.9,0.2,0.9,0.7s-0.3,0.8-0.9,0.8h-0.6V25.9z"/>
		<path class="st0" d="M74.6,24.6l-1.8,5.9h1.6l0.3-1.2h1.6l0.3,1.2h1.6l-1.8-5.9H74.6z M75,28.1l0.1-0.4c0.1-0.6,0.3-1.3,0.4-1.9
			l0,0c0.1,0.6,0.3,1.3,0.4,1.9l0.1,0.4H75z"/>
		<polygon class="st0" points="77.7,25.9 79.3,25.9 79.3,30.5 80.8,30.5 80.8,25.9 82.4,25.9 82.4,24.6 77.7,24.6 		"/>
		<rect x="83.1" y="24.6" class="st0" width="1.5" height="5.9"/>
		<path class="st0" d="M88.4,24.5c-1.6,0-2.7,1.1-2.7,3s1.1,3.1,2.7,3.1s2.7-1.1,2.7-3.1C91.1,25.6,90,24.5,88.4,24.5z M88.4,29.3
			c-0.7,0-1.1-0.7-1.1-1.7c0-1.1,0.4-1.7,1.1-1.7s1.1,0.6,1.1,1.7C89.5,28.6,89.1,29.3,88.4,29.3z"/>
		<path class="st0" d="M95.4,26.3c0,0.7,0.1,1.6,0.2,2.2l0,0L95,27.3l-1.3-2.6h-1.6v5.9h1.5v-1.7c0-0.7-0.1-1.6-0.2-2.2l0,0L94,28
			l1.3,2.6h1.6v-5.9h-1.5V26.3z"/>
	</g>
</g>
</svg>
