<?xml version="1.0" encoding="utf-8"?>
<!-- Generator: Adobe Illustrator 25.0.0, SVG Export Plug-In . SVG Version: 6.00 Build 0)  -->
<svg version="1.1" id="Слой_3" xmlns="http://www.w3.org/2000/svg" xmlns:xlink="http://www.w3.org/1999/xlink" x="0px" y="0px"
	 viewBox="0 0 550 550" style="enable-background:new 0 0 550 550;" xml:space="preserve">
<style type="text/css">
	.st0{fill:url(#SVGID_1_);}
	.st1{fill:#FFFFFF;}
</style>
<g>
	
		<linearGradient id="SVGID_1_" gradientUnits="userSpaceOnUse" x1="350.0352" y1="451.3478" x2="222.0354" y2="152.6985" gradientTransform="matrix(1 0 0 -1 0 551.2756)">
		<stop  offset="0" style="stop-color:#37AEE2"/>
		<stop  offset="1" style="stop-color:#1E96C8"/>
	</linearGradient>
	<path class="st0" d="M275,531c141.4,0,256-114.6,256-256S416.4,19,275,19S19,133.6,19,275S133.6,531,275,531z"/>
	<path class="st1" d="M114.3,287.5c29.9-16.5,63.3-30.2,94.5-44.1c53.7-22.6,107.6-44.9,162.1-65.6c10.6-3.5,29.6-7,31.5,8.7
		c-1,22.2-5.2,44.3-8.1,66.4c-7.3,48.6-15.8,97-24,145.4c-2.8,16.1-23.1,24.5-36,14.2c-31.1-21-62.4-41.8-93.1-63.3
		c-10-10.2-0.7-24.9,8.2-32.2c25.6-25.2,52.7-46.7,77-73.2c6.5-15.8-12.8-2.5-19.2,1.6c-35,24.1-69.2,49.8-106.2,71
		c-18.9,10.4-40.9,1.5-59.7-4.3C124.5,305.3,99.8,298.2,114.3,287.5L114.3,287.5z"/>
</g>
</svg>
