<?xml version="1.0" encoding="utf-8"?>
<!-- Generator: Adobe Illustrator 25.3.1, SVG Export Plug-In . SVG Version: 6.00 Build 0)  -->
<svg version="1.2" baseProfile="tiny" id="Layer_1" xmlns="http://www.w3.org/2000/svg" xmlns:xlink="http://www.w3.org/1999/xlink"
	 x="0px" y="0px" viewBox="0 0 275 127.6" overflow="visible" xml:space="preserve">
<g>
	<polygon fill="#FFFFFF" points="67.3,14.2 67.3,32.6 54.2,32.6 54.2,68.7 1.2,68.7 25.8,40.6 1.2,14.2 	"/>
	<polygon fill="#FFFFFF" points="249.1,40.6 273.8,68.7 220.7,68.7 220.7,32.6 208,32.6 208,14.2 273.8,14.2 	"/>
	<polygon fill="#FFFFFF" points="137.5,127.6 195.7,102.6 195.7,97.8 79.2,97.8 79.2,102.6 	"/>
	<path fill="#FFFFFF" d="M87.8,70.5h3.9c-0.6-4.6-1.2-10.3-1.7-17.2C88.8,61.1,88.1,66.8,87.8,70.5z"/>
	<path fill="#FFFFFF" d="M175.3,37.9v-5.4h-2.6l2.3-9.7l1-4.4h26.7v-4.2h-25.6l1.5-6.3h-7.2h-7.2l1.5,6.3h-22.5l1.5-6.1h-7.2h-7.2
		l1.5,6.1h-22.4l1.5-6.1h-7.2h-7.2l1.5,6.1H72.5v4.2h26.6l1.1,4.6l2.3,9.5h-2.6v5.4H59.5v54.5h155.9V37.9H175.3z M92.6,85L92,77.7
		h-4.1L87.2,85H75.5l5.8-40.8h16.4l6.5,40.8H92.6z M131.1,52.4h-7.9v7.7h7v7.8h-7V85h-11.4V44.2h19.2V52.4z M107.6,37.9v-5.4h-2.5
		l2.3-9.5l1.1-4.6h24.4L134,23l2.3,9.5h-2.6v5.4H107.6z M164.9,62h-11.4v-7.1c0-2.1-0.1-3.4-0.4-3.9c-0.2-0.5-0.8-0.8-1.6-0.8
		c-0.9,0-1.5,0.3-1.8,0.9c-0.3,0.6-0.4,2-0.4,4v19c0,2,0.1,3.3,0.4,3.9c0.3,0.6,0.8,0.9,1.7,0.9c0.8,0,1.4-0.3,1.7-0.9
		c0.3-0.6,0.4-2,0.4-4.3v-5.1h11.4v1.6c0,4.2-0.3,7.2-1,9c-0.6,1.8-2.1,3.3-4.2,4.6c-2.2,1.3-4.9,2-8.1,2c-3.3,0-6.1-0.6-8.2-1.7
		c-2.2-1.1-3.6-2.7-4.3-4.7c-0.7-2-1.1-5-1.1-9V58.6c0-2.9,0.1-5.1,0.3-6.6c0.2-1.5,0.9-2.9,1.9-4.3c1.1-1.4,2.6-2.4,4.5-3.2
		c1.9-0.8,4.1-1.2,6.5-1.2c3.3,0,6.1,0.6,8.3,1.8c2.2,1.2,3.6,2.7,4.3,4.5c0.7,1.8,1,4.6,1,8.4V62z M141.5,37.9v-5.4h-2.6l2.3-9.5
		l1.1-4.6h24.5l1,4.4l2.3,9.7h-2.6v5.4H141.5z M199.4,62.1H188V55c0-2.1-0.1-3.4-0.4-3.9c-0.2-0.5-0.8-0.8-1.6-0.8
		c-0.9,0-1.5,0.3-1.8,0.9c-0.3,0.6-0.4,2-0.4,4v19c0,2,0.1,3.3,0.4,3.9c0.3,0.6,0.8,0.9,1.7,0.9c0.8,0,1.4-0.3,1.7-0.9
		c0.3-0.6,0.4-2,0.4-4.3v-5.1h11.4v1.6c0,4.2-0.3,7.2-1,9c-0.6,1.8-2.1,3.3-4.2,4.6c-2.2,1.3-4.9,2-8.1,2c-3.3,0-6.1-0.6-8.2-1.7
		c-2.2-1.1-3.6-2.7-4.3-4.7c-0.7-2-1.1-5-1.1-9V58.8c0-2.9,0.1-5.1,0.3-6.6c0.2-1.5,0.9-2.9,1.9-4.3c1.1-1.4,2.6-2.4,4.5-3.2
		c1.9-0.8,4.1-1.2,6.5-1.2c3.3,0,6.1,0.6,8.3,1.8c2.2,1.2,3.6,2.7,4.3,4.5c0.7,1.8,1,4.6,1,8.4V62.1z"/>
	<path fill="#FFFFFF" d="M103.8,6.9c1.9,0,3.5-1.6,3.5-3.5c0-1.9-1.6-3.5-3.5-3.5s-3.5,1.6-3.5,3.5C100.3,5.4,101.9,6.9,103.8,6.9z"
		/>
	<path fill="#FFFFFF" d="M137.6,6.9c1.9,0,3.5-1.6,3.5-3.5c0-1.9-1.6-3.5-3.5-3.5c-1.9,0-3.5,1.6-3.5,3.5
		C134.1,5.4,135.7,6.9,137.6,6.9z"/>
	<path fill="#FFFFFF" d="M171.4,6.9c1.9,0,3.5-1.6,3.5-3.5c0-1.9-1.6-3.5-3.5-3.5c-1.9,0-3.5,1.6-3.5,3.5
		C167.9,5.4,169.4,6.9,171.4,6.9z"/>
</g>
<g>
</g>
<g>
</g>
<g>
</g>
<g>
</g>
<g>
</g>
<g>
</g>
</svg>
