<svg xmlns="http://www.w3.org/2000/svg" viewBox="0 0 164.67 130"><defs><style>.cls-1{fill:#fff;}</style></defs><g id="Layer_2" data-name="Layer 2"><g id="Layer_1-2" data-name="Layer 1"><path class="cls-1" d="M30.63,111.76a2.88,2.88,0,0,0-2.6-2.41c0-.09,0-4.34,0-4.34,0-2.71-1.83-2.74-2.66-2.74H10.51c-.84,0-2.69,0-2.67,2.74v4.34a2.89,2.89,0,0,0-2.6,2.41c-.52,2.79-2,12.79-2,12.79C3,127.34,6.29,130,8.91,130H27c2.62,0,5.91-2.69,5.69-5.45C32.66,124.55,31.19,114.58,30.63,111.76Z"/><path class="cls-1" d="M17.14,0A20.44,20.44,0,0,0,13.2.43,1.53,1.53,0,0,0,11.94,2a10.58,10.58,0,0,1-.09,1.68c0,.28-.09.57-.09.94-1.79,1.18-1.64,3.6-1.61,5.64v.58a2.54,2.54,0,0,0-1,1.22,6.44,6.44,0,0,0,1.29,6.2A11.2,11.2,0,0,1,12,23.49c-1.59.73-2.84,1.38-4,1.9C.44,28.87-.48,29.93.17,39.53A1.59,1.59,0,0,0,1,40.76l4.22,2.36a1.43,1.43,0,0,0,.83.21H30.52a2.12,2.12,0,0,0,.83-.21l4.42-2.47a1.82,1.82,0,0,0,.84-1.23c.88-9.17-.68-10.29-7.43-13.57-1.32-.66-2.81-1.41-4.59-2.32a4.62,4.62,0,0,1,.68-2.78,10.15,10.15,0,0,0,.85-2.29c1.58-1.1,2.09-3.6,1.9-5.2a3.16,3.16,0,0,0-1.4-2.5c0-.45-.08-.91-.07-1.32a23.77,23.77,0,0,1-.07-2.5,2.52,2.52,0,0,0-.16-.74C24.72,3.49,23,0,17.14,0Z"/><path class="cls-1" d="M22.12,50.52a1.25,1.25,0,0,0-1.21-1H15.67a1.23,1.23,0,0,0-1.2,1l-9.85,44a1.29,1.29,0,0,0,.2,1,1.2,1.2,0,0,0,1,.46H12.1a1.23,1.23,0,0,0,1.2-1L15,86.56h6.65L23.24,95a1.15,1.15,0,0,0,1.21,1h6.31a1.19,1.19,0,0,0,1-.46,1.31,1.31,0,0,0,.21-1Zm-1.26,28.3h-5l2.54-13Z"/><path class="cls-1" d="M71.5,49.58h-21a1.21,1.21,0,0,0-1.2,1.21v5.94a1.21,1.21,0,0,0,1.2,1.21h6.11V94.81A1.21,1.21,0,0,0,57.87,96h6.32a1.21,1.21,0,0,0,1.2-1.21V57.94H71.5a1.21,1.21,0,0,0,1.21-1.21v-6A1.17,1.17,0,0,0,71.5,49.58Z"/><path class="cls-1" d="M59.76,0a20.46,20.46,0,0,0-3.95.43A1.51,1.51,0,0,0,54.56,2a11.93,11.93,0,0,1-.1,1.68c0,.28-.09.57-.09.94-1.79,1.18-1.64,3.6-1.61,5.64v.58a2.54,2.54,0,0,0-1,1.22,6.47,6.47,0,0,0,1.29,6.2,11.2,11.2,0,0,1,1.55,5.21c-1.59.73-2.83,1.38-4,1.9-7.54,3.48-8.45,4.54-7.81,14.14a1.59,1.59,0,0,0,.82,1.23l4.22,2.36a1.43,1.43,0,0,0,.83.21H73.13a2.12,2.12,0,0,0,.83-.21l4.42-2.47a1.82,1.82,0,0,0,.84-1.23c.89-9.17-.68-10.29-7.43-13.57-1.32-.66-2.81-1.41-4.59-2.32a4.62,4.62,0,0,1,.68-2.78,9.69,9.69,0,0,0,.85-2.29c1.58-1.1,2.09-3.6,1.9-5.2a3.16,3.16,0,0,0-1.4-2.5c0-.45-.07-.91-.07-1.32-.08-.9-.07-1.68-.07-2.5a2.52,2.52,0,0,0-.16-.74C67.33,3.49,65.57,0,59.76,0Z"/><path class="cls-1" d="M73.72,111.76a2.86,2.86,0,0,0-2.6-2.4c0-.1,0-4.35,0-4.35,0-2.71-1.84-2.74-2.67-2.74H53.6c-.84,0-2.69,0-2.67,2.74v4.35a2.87,2.87,0,0,0-2.6,2.4c-.52,2.79-2,12.79-2,12.79-.21,2.79,3.08,5.47,5.7,5.45H70.06c2.62,0,5.91-2.69,5.69-5.45C75.75,124.55,74.28,114.58,73.72,111.76Z"/><path class="cls-1" d="M108.77,50.19a11.07,11.07,0,0,0-4.78-1,13,13,0,0,0-5.28,1A11.4,11.4,0,0,0,95,53.18a12.3,12.3,0,0,0-2.33,4.24,15.6,15.6,0,0,0-.75,5.07,17.38,17.38,0,0,0,1.5,7.44c1,2.08,3.12,3.78,6.11,5L104,76.79a9.43,9.43,0,0,1,1.71.83,3.7,3.7,0,0,1,.74.67,3.8,3.8,0,0,1,.38,1.33,23,23,0,0,1,.16,2.7c0,1,0,1.87-.08,2.62a4.62,4.62,0,0,1-.46,1.58,2.73,2.73,0,0,1-.91.91,4.37,4.37,0,0,1-2,.29,2.84,2.84,0,0,1-2.46-.91,3.93,3.93,0,0,1-.83-2.37V82.36a1.2,1.2,0,0,0-1.2-1.2H92.77a1.21,1.21,0,0,0-1.21,1.2v2.37a10.71,10.71,0,0,0,1,4.61,11.56,11.56,0,0,0,6.32,6.12,12.75,12.75,0,0,0,4.69.91,13,13,0,0,0,5.66-1.12,10.14,10.14,0,0,0,3.86-3.12,12.3,12.3,0,0,0,2-4.49,24.83,24.83,0,0,0,.58-5.45c0-1.62-.08-3.11-.21-4.48a12.27,12.27,0,0,0-1-3.79A9.3,9.3,0,0,0,112.06,71a13.1,13.1,0,0,0-3.74-2.08l-4.83-2a5.73,5.73,0,0,1-1.7-.91,3.34,3.34,0,0,1-.75-.75,2.22,2.22,0,0,1-.29-1.13,14.58,14.58,0,0,1-.08-2,15.23,15.23,0,0,1,.16-2,3.27,3.27,0,0,1,.54-1.33,2.7,2.7,0,0,1,.92-.92,2.94,2.94,0,0,1,1.49-.29c1.58,0,2.17.58,2.37,1a5.71,5.71,0,0,1,.83,3V63.2a1.21,1.21,0,0,0,1.21,1.2h6.32a1.2,1.2,0,0,0,1.2-1.2V60.08a10.78,10.78,0,0,0-3.2-7.69A20.61,20.61,0,0,0,108.77,50.19Z"/><path class="cls-1" d="M102.37,0a20.46,20.46,0,0,0-4,.43A1.51,1.51,0,0,0,97.17,2a11.93,11.93,0,0,1-.1,1.68c0,.28-.08.57-.09.94-1.79,1.18-1.64,3.6-1.61,5.64v.58a2.6,2.6,0,0,0-1,1.22,6.47,6.47,0,0,0,1.29,6.2,11.2,11.2,0,0,1,1.55,5.21c-1.58.73-2.83,1.38-4,1.9-7.53,3.48-8.45,4.54-7.81,14.14a1.59,1.59,0,0,0,.82,1.23l4.22,2.36a1.43,1.43,0,0,0,.83.21h24.48a2.17,2.17,0,0,0,.84-.21L121,40.65a1.82,1.82,0,0,0,.84-1.23c.89-9.17-.68-10.29-7.43-13.57-1.32-.66-2.81-1.41-4.59-2.32a4.62,4.62,0,0,1,.68-2.78,9.69,9.69,0,0,0,.85-2.29c1.58-1.1,2.1-3.6,1.9-5.2a3.16,3.16,0,0,0-1.4-2.5c0-.45-.07-.91-.07-1.32-.08-.9-.07-1.68-.07-2.5a2.52,2.52,0,0,0-.16-.74c-1.6-2.71-3.36-6.16-9.17-6.2Z"/><path class="cls-1" d="M116.33,111.76a2.86,2.86,0,0,0-2.59-2.4V105c0-2.71-1.83-2.74-2.67-2.74H96.21c-.84,0-2.69,0-2.67,2.74v4.35a2.87,2.87,0,0,0-2.6,2.4c-.52,2.79-2,12.79-2,12.79C88.7,127.34,92,130,94.61,130h18.06c2.62,0,5.91-2.69,5.69-5.45C118.36,124.55,116.89,114.58,116.33,111.76Z"/><path class="cls-1" d="M155.6,49.58H136.81a1.21,1.21,0,0,0-1.2,1.21v44a1.21,1.21,0,0,0,1.2,1.21h6.36a1.21,1.21,0,0,0,1.21-1.21V77.23h9.68A1.21,1.21,0,0,0,155.27,76V70.08a1.21,1.21,0,0,0-1.21-1.21h-9.68V57.94h11.31a1.21,1.21,0,0,0,1.2-1.21v-6A1.3,1.3,0,0,0,155.6,49.58Z"/><path class="cls-1" d="M145,0A20.46,20.46,0,0,0,141,.43,1.51,1.51,0,0,0,139.78,2a11.93,11.93,0,0,1-.1,1.68c0,.28-.08.57-.09.94C137.8,5.82,138,8.24,138,10.28v.58a2.52,2.52,0,0,0-1,1.22,6.44,6.44,0,0,0,1.28,6.2,11.2,11.2,0,0,1,1.55,5.21c-1.58.73-2.83,1.38-4,1.9-7.53,3.48-8.45,4.54-7.81,14.14a1.59,1.59,0,0,0,.82,1.23L133,43.12a1.43,1.43,0,0,0,.83.21h24.49a2.12,2.12,0,0,0,.83-.21l4.41-2.47a1.82,1.82,0,0,0,.84-1.23c.89-9.17-.68-10.29-7.43-13.57-1.32-.66-2.81-1.41-4.59-2.32a4.62,4.62,0,0,1,.68-2.78,9.69,9.69,0,0,0,.85-2.29c1.58-1.1,2.1-3.6,1.9-5.2a3.14,3.14,0,0,0-1.4-2.5c0-.45-.07-.91-.07-1.32-.08-.9-.07-1.68-.07-2.5a2.52,2.52,0,0,0-.16-.74C152.55,3.49,150.79,0,145,0Z"/><path class="cls-1" d="M159,111.76a2.88,2.88,0,0,0-2.6-2.4V105c0-2.71-1.83-2.74-2.67-2.74H138.82c-.84,0-2.69,0-2.67,2.74v4.35a2.88,2.88,0,0,0-2.6,2.4c-.52,2.79-2,12.79-2,12.79-.22,2.79,3.07,5.47,5.69,5.45h18.06c2.62,0,5.92-2.69,5.69-5.45C161,124.55,159.5,114.58,159,111.76Z"/></g></g></svg>