<?xml version="1.0" encoding="utf-8"?>
<!-- Generator: Adobe Illustrator 25.3.1, SVG Export Plug-In . SVG Version: 6.00 Build 0)  -->
<svg version="1.1" id="Layer_1" xmlns="http://www.w3.org/2000/svg" xmlns:xlink="http://www.w3.org/1999/xlink" x="0px" y="0px"
	 viewBox="0 0 1440 1024" style="enable-background:new 0 0 1440 1024;" xml:space="preserve">
<style type="text/css">
	.st0{fill:#FF7300;}
	.st1{fill:#A92A04;}
</style>
<g>
	<circle class="st0" cx="121.4" cy="6.9" r="6"/>
	<circle class="st0" cx="146.5" cy="6.9" r="6"/>
	<circle class="st0" cx="171.7" cy="6.9" r="6"/>
	<circle class="st0" cx="196.9" cy="6.9" r="6"/>
	<circle class="st0" cx="146.5" cy="32.1" r="6"/>
	<circle class="st0" cx="171.7" cy="32.1" r="6"/>
	<circle class="st0" cx="196.9" cy="32.1" r="6"/>
	<circle class="st0" cx="146.5" cy="57.3" r="6"/>
	<circle class="st0" cx="171.7" cy="57.3" r="6"/>
	<circle class="st0" cx="196.9" cy="57.3" r="6"/>
	<circle class="st0" cx="146.5" cy="82.5" r="6"/>
	<circle class="st0" cx="171.7" cy="82.5" r="6"/>
	<circle class="st0" cx="196.9" cy="82.5" r="6"/>
	<circle class="st0" cx="146.5" cy="107.6" r="6"/>
	<circle class="st0" cx="171.7" cy="107.6" r="6"/>
	<circle class="st0" cx="196.9" cy="107.6" r="6"/>
	<circle class="st0" cx="146.5" cy="132.8" r="6"/>
	<circle class="st0" cx="171.7" cy="132.8" r="6"/>
	<circle class="st0" cx="146.5" cy="158" r="6"/>
	<circle class="st0" cx="171.7" cy="158" r="6"/>
	<circle class="st0" cx="121.4" cy="183.2" r="6"/>
	<circle class="st0" cx="146.5" cy="183.2" r="6"/>
	<circle class="st0" cx="171.7" cy="183.2" r="6"/>
	<circle class="st0" cx="121.4" cy="208.4" r="6"/>
	<circle class="st0" cx="146.5" cy="208.4" r="6"/>
	<circle class="st0" cx="171.7" cy="208.4" r="6"/>
	<circle class="st0" cx="171.7" cy="233.6" r="6"/>
	<circle class="st0" cx="196.9" cy="233.6" r="6"/>
	<circle class="st0" cx="222.1" cy="233.6" r="6"/>
	<circle class="st0" cx="196.9" cy="258.8" r="6"/>
	<circle class="st0" cx="222.1" cy="258.8" r="6"/>
	<circle class="st0" cx="247.3" cy="258.8" r="6"/>
	<circle class="st0" cx="222.1" cy="284" r="6"/>
	<circle class="st0" cx="247.3" cy="284" r="6"/>
	<circle class="st0" cx="272.5" cy="284" r="6"/>
	<circle class="st0" cx="222.1" cy="309.1" r="6"/>
	<circle class="st0" cx="247.3" cy="309.1" r="6"/>
	<circle class="st0" cx="272.5" cy="309.1" r="6"/>
	<circle class="st0" cx="222.1" cy="334.3" r="6"/>
	<circle class="st0" cx="247.3" cy="334.3" r="6"/>
	<circle class="st0" cx="272.5" cy="334.3" r="6"/>
	<circle class="st0" cx="222.1" cy="359.5" r="6"/>
	<circle class="st0" cx="247.3" cy="359.5" r="6"/>
	<circle class="st0" cx="272.5" cy="359.5" r="6"/>
	<circle class="st0" cx="222.1" cy="384.7" r="6"/>
	<circle class="st0" cx="247.3" cy="384.7" r="6"/>
	<circle class="st0" cx="272.5" cy="384.7" r="6"/>
	<circle class="st0" cx="222.1" cy="409.9" r="6"/>
	<circle class="st0" cx="247.3" cy="409.9" r="6"/>
	<circle class="st0" cx="272.5" cy="409.9" r="6"/>
	<circle class="st0" cx="222.1" cy="435.1" r="6"/>
	<circle class="st0" cx="247.3" cy="435.1" r="6"/>
	<circle class="st0" cx="272.5" cy="435.1" r="6"/>
	<circle class="st0" cx="222.1" cy="460.3" r="6"/>
	<circle class="st0" cx="247.3" cy="460.3" r="6"/>
	<circle class="st0" cx="272.5" cy="460.3" r="6"/>
	<circle class="st0" cx="222.1" cy="485.5" r="6"/>
	<circle class="st0" cx="247.3" cy="485.5" r="6"/>
	<circle class="st0" cx="272.5" cy="485.5" r="6"/>
	<circle class="st0" cx="196.9" cy="510.7" r="6"/>
	<circle class="st0" cx="222.1" cy="510.7" r="6"/>
	<circle class="st0" cx="247.3" cy="510.7" r="6"/>
	<circle class="st0" cx="272.5" cy="510.7" r="6"/>
	<circle class="st0" cx="196.9" cy="535.8" r="6"/>
	<circle class="st0" cx="222.1" cy="535.8" r="6"/>
	<circle class="st0" cx="247.3" cy="535.8" r="6"/>
	<circle class="st0" cx="196.9" cy="561" r="6"/>
	<circle class="st0" cx="222.1" cy="561" r="6"/>
	<circle class="st0" cx="247.3" cy="561" r="6"/>
	<circle class="st0" cx="71" cy="586.2" r="6"/>
	<circle class="st0" cx="96.2" cy="586.2" r="6"/>
	<circle class="st0" cx="121.4" cy="586.2" r="6"/>
	<circle class="st0" cx="146.5" cy="586.2" r="6"/>
	<circle class="st0" cx="171.7" cy="586.2" r="6"/>
	<circle class="st0" cx="196.9" cy="586.2" r="6"/>
	<circle class="st0" cx="222.1" cy="586.2" r="6"/>
	<circle class="st0" cx="247.3" cy="586.2" r="6"/>
	<circle class="st0" cx="71" cy="611.4" r="6"/>
	<circle class="st0" cx="96.2" cy="611.4" r="6"/>
	<circle class="st0" cx="121.4" cy="611.4" r="6"/>
	<circle class="st0" cx="146.5" cy="611.4" r="6"/>
	<circle class="st0" cx="171.7" cy="611.4" r="6"/>
	<circle class="st0" cx="196.9" cy="611.4" r="6"/>
	<circle class="st0" cx="222.1" cy="611.4" r="6"/>
	<circle class="st0" cx="247.3" cy="611.4" r="6"/>
	<circle class="st0" cx="71" cy="636.6" r="6"/>
	<circle class="st0" cx="96.2" cy="636.6" r="6"/>
	<circle class="st0" cx="121.4" cy="636.6" r="6"/>
	<circle class="st0" cx="146.5" cy="636.6" r="6"/>
	<circle class="st0" cx="171.7" cy="636.6" r="6"/>
	<circle class="st0" cx="196.9" cy="636.6" r="6"/>
	<circle class="st0" cx="222.1" cy="636.6" r="6"/>
	<circle class="st0" cx="247.3" cy="636.6" r="6"/>
	<circle class="st0" cx="71" cy="661.8" r="6"/>
	<circle class="st0" cx="96.2" cy="661.8" r="6"/>
	<circle class="st0" cx="121.4" cy="661.8" r="6"/>
	<circle class="st0" cx="146.5" cy="661.8" r="6"/>
	<circle class="st0" cx="171.7" cy="661.8" r="6"/>
	<circle class="st0" cx="196.9" cy="661.8" r="6"/>
	<circle class="st0" cx="222.1" cy="661.8" r="6"/>
	<circle class="st0" cx="71" cy="687" r="6"/>
	<circle class="st0" cx="96.2" cy="687" r="6"/>
	<circle class="st0" cx="121.4" cy="687" r="6"/>
	<circle class="st0" cx="146.5" cy="687" r="6"/>
	<circle class="st0" cx="171.7" cy="687" r="6"/>
	<circle class="st0" cx="196.9" cy="687" r="6"/>
	<circle class="st0" cx="71" cy="712.2" r="6"/>
	<circle class="st0" cx="96.2" cy="712.2" r="6"/>
	<circle class="st0" cx="121.4" cy="712.2" r="6"/>
	<circle class="st0" cx="146.5" cy="712.2" r="6"/>
	<circle class="st0" cx="171.7" cy="712.2" r="6"/>
	<circle class="st0" cx="196.9" cy="712.2" r="6"/>
	<circle class="st0" cx="71" cy="737.4" r="6"/>
	<circle class="st0" cx="96.2" cy="737.4" r="6"/>
	<circle class="st0" cx="121.4" cy="737.4" r="6"/>
	<circle class="st0" cx="146.5" cy="737.4" r="6"/>
	<circle class="st0" cx="171.7" cy="737.4" r="6"/>
	<circle class="st0" cx="196.9" cy="737.4" r="6"/>
	<circle class="st0" cx="71" cy="762.5" r="6"/>
	<circle class="st0" cx="96.2" cy="762.5" r="6"/>
	<circle class="st0" cx="121.4" cy="762.5" r="6"/>
	<circle class="st0" cx="146.5" cy="762.5" r="6"/>
	<circle class="st0" cx="171.7" cy="762.5" r="6"/>
	<circle class="st0" cx="196.9" cy="762.5" r="6"/>
	<circle class="st0" cx="71" cy="787.7" r="6"/>
	<circle class="st0" cx="96.2" cy="787.7" r="6"/>
	<circle class="st0" cx="121.4" cy="787.7" r="6"/>
	<circle class="st0" cx="146.5" cy="787.7" r="6"/>
	<circle class="st0" cx="171.7" cy="787.7" r="6"/>
	<circle class="st0" cx="71" cy="812.9" r="6"/>
	<circle class="st0" cx="96.2" cy="812.9" r="6"/>
	<circle class="st0" cx="121.4" cy="812.9" r="6"/>
	<circle class="st0" cx="146.5" cy="812.9" r="6"/>
	<circle class="st0" cx="171.7" cy="812.9" r="6"/>
	<circle class="st0" cx="71" cy="838.1" r="6"/>
	<circle class="st0" cx="96.2" cy="838.1" r="6"/>
	<circle class="st0" cx="121.4" cy="838.1" r="6"/>
	<circle class="st0" cx="146.5" cy="838.1" r="6"/>
	<circle class="st0" cx="171.7" cy="838.1" r="6"/>
	<circle class="st0" cx="71" cy="863.3" r="6"/>
	<circle class="st0" cx="96.2" cy="863.3" r="6"/>
	<circle class="st0" cx="121.4" cy="863.3" r="6"/>
	<circle class="st0" cx="146.5" cy="863.3" r="6"/>
	<circle class="st0" cx="171.7" cy="863.3" r="6"/>
	<circle class="st0" cx="71" cy="888.5" r="6"/>
	<circle class="st0" cx="96.2" cy="888.5" r="6"/>
	<circle class="st0" cx="121.4" cy="888.5" r="6"/>
	<circle class="st0" cx="146.5" cy="888.5" r="6"/>
	<circle class="st0" cx="171.7" cy="888.5" r="6"/>
	<circle class="st0" cx="146.5" cy="913.7" r="6"/>
	<circle class="st0" cx="171.7" cy="913.7" r="6"/>
	<circle class="st0" cx="196.9" cy="913.7" r="6"/>
	<circle class="st0" cx="171.7" cy="938.9" r="6"/>
	<circle class="st0" cx="196.9" cy="938.9" r="6"/>
	<circle class="st0" cx="222.1" cy="938.9" r="6"/>
	<circle class="st0" cx="171.7" cy="964" r="6"/>
	<circle class="st0" cx="196.9" cy="964" r="6"/>
	<circle class="st0" cx="222.1" cy="964" r="6"/>
	<circle class="st0" cx="171.7" cy="989.2" r="6"/>
	<circle class="st0" cx="196.9" cy="989.2" r="6"/>
	<circle class="st0" cx="222.1" cy="989.2" r="6"/>
	<circle class="st0" cx="171.7" cy="1014.4" r="6"/>
	<circle class="st0" cx="196.9" cy="1014.4" r="6"/>
	<circle class="st0" cx="222.1" cy="1014.4" r="6"/>
</g>
<path class="st1" d="M129.3,907.2H82.8c-13.7,0-24.9-11.1-24.9-24.9V603.2c0-13.7,11.1-24.9,24.9-24.9h104.4l32.2-215.1v-49.4
	c0-7.9-1.8-15.7-5.2-22.8c-32.1-66.2-106.4-79.6-106.4-79.6v-24.3c15.8-18.4,26.9-44.1,32.4-73c0.1-0.4,0.1-0.7,0.2-1.1
	c0,0,0,0,0-0.1l0,0c10-51.9-3.1-80.5-3.1-80.5C131.9,18.8,123.8,8.1,114,0H0v1024h160.2v-88.5C160.1,934.7,158,909.2,129.3,907.2z"
	/>
</svg>
