<?xml version="1.0" encoding="utf-8"?>
<!-- Generator: Adobe Illustrator 25.3.1, SVG Export Plug-In . SVG Version: 6.00 Build 0)  -->
<svg version="1.1" id="Layer_1" xmlns="http://www.w3.org/2000/svg" xmlns:xlink="http://www.w3.org/1999/xlink" x="0px" y="0px"
	 viewBox="0 0 1440 1024" style="enable-background:new 0 0 1440 1024;" xml:space="preserve">
<style type="text/css">
	.st0{clip-path:url(#SVGID_2_);}
	.st1{fill:#FD9E57;}
	.st2{fill:#A92A04;}
</style>
<g>
	<g>
		<defs>
			<path id="SVGID_1_" d="M1379.4,1024h-116.1v-67.6v-7.1c0-23.9,18.3-43.4,41.7-45.4l-29.9-216c-22.4-8.1-38.4-29.5-38.4-54.7v0
				l-20-95l-10.1-130.6l-4.8-64.8c0-3.2,0.7-6.3,1.8-9.3c29.7-83,101.4-87.1,101.4-87.1l6.1-30.3c-15.8-18.9-20.2-44.6-25.9-73.8
				c-0.1-0.3-0.1-0.7-0.2-1l0,0.1c-4.9-24.9-4.8-44.7-3.1-58.9c0.4-4.2,1-8.1,1.8-11.9c0-0.1,0.9-15.5,1-15.6
				c9.5-43.3,41.6-47.7,76.8-53.2c2.7-0.6,5.4-1.1,8.2-1.3c2.3-0.2,4.7-0.3,7-0.3c0.1,0,0.2,0,0.3,0c0.4,0,0.7,0,1.1,0
				c0.5,0,1,0,1.5,0c0.2,0,0.5,0,0.7,0c0.3,0,0.5,0,0.8,0c0.5,0,1.2,0,1.6,0c0.3,0,0.6,0,0.8,0c0.1,0,0.2,0,0.3,0
				c2.1,0.1,4.3,0.1,6.4,0.3c2.9,0.3,5.7,0.7,8.6,1.4c31.2,4.9,60.7,20.9,73.6,54.7l0,0c0,0,4.5,6.6,7.8,19.8V1024h-99.9H1379.4z"/>
		</defs>
		<clipPath id="SVGID_2_">
			<use xlink:href="#SVGID_1_"  style="overflow:visible;"/>
		</clipPath>
		<g class="st0">
			<circle class="st1" cx="1609.7" cy="21.4" r="5.8"/>
			<circle class="st1" cx="1585.5" cy="21.4" r="5.8"/>
			<circle class="st1" cx="1561.2" cy="21.4" r="5.8"/>
			<circle class="st1" cx="1537" cy="21.4" r="5.8"/>
			<circle class="st1" cx="1512.8" cy="21.4" r="5.8"/>
			<circle class="st1" cx="1488.5" cy="21.4" r="5.8"/>
			<circle class="st1" cx="1464.3" cy="21.4" r="5.8"/>
			<circle class="st1" cx="1440.1" cy="21.4" r="5.8"/>
			<circle class="st1" cx="1415.9" cy="21.4" r="5.8"/>
			<circle class="st1" cx="1391.6" cy="21.4" r="5.8"/>
			<circle class="st1" cx="1367.4" cy="21.4" r="5.8"/>
			<circle class="st1" cx="1343.2" cy="21.4" r="5.8"/>
			<circle class="st1" cx="1318.9" cy="21.4" r="5.8"/>
			<circle class="st1" cx="1294.7" cy="21.4" r="5.8"/>
			<circle class="st1" cx="1270.5" cy="21.4" r="5.8"/>
			<circle class="st1" cx="1246.2" cy="21.4" r="5.8"/>
			<circle class="st1" cx="1222" cy="21.4" r="5.8"/>
			<circle class="st1" cx="1197.8" cy="21.4" r="5.8"/>
			<circle class="st1" cx="1173.6" cy="21.4" r="5.8"/>
			<circle class="st1" cx="1149.3" cy="21.4" r="5.8"/>
		</g>
		<g class="st0">
			<circle class="st1" cx="1609.7" cy="-2.9" r="5.8"/>
			<circle class="st1" cx="1585.5" cy="-2.9" r="5.8"/>
			<circle class="st1" cx="1561.2" cy="-2.9" r="5.8"/>
			<circle class="st1" cx="1537" cy="-2.9" r="5.8"/>
			<circle class="st1" cx="1512.8" cy="-2.9" r="5.8"/>
			<circle class="st1" cx="1488.5" cy="-2.9" r="5.8"/>
			<circle class="st1" cx="1464.3" cy="-2.9" r="5.8"/>
			<circle class="st1" cx="1440.1" cy="-2.9" r="5.8"/>
			<circle class="st1" cx="1415.9" cy="-2.9" r="5.8"/>
			<circle class="st1" cx="1343.2" cy="-2.9" r="5.8"/>
			<circle class="st1" cx="1318.9" cy="-2.9" r="5.8"/>
			<circle class="st1" cx="1294.7" cy="-2.9" r="5.8"/>
			<circle class="st1" cx="1270.5" cy="-2.9" r="5.8"/>
			<circle class="st1" cx="1246.2" cy="-2.9" r="5.8"/>
			<circle class="st1" cx="1222" cy="-2.9" r="5.8"/>
			<circle class="st1" cx="1197.8" cy="-2.9" r="5.8"/>
			<circle class="st1" cx="1173.6" cy="-2.9" r="5.8"/>
			<circle class="st1" cx="1149.3" cy="-2.9" r="5.8"/>
		</g>
		<g class="st0">
			<circle class="st1" cx="1609.7" cy="45.6" r="5.8"/>
			<circle class="st1" cx="1585.5" cy="45.6" r="5.8"/>
			<circle class="st1" cx="1561.2" cy="45.6" r="5.8"/>
			<circle class="st1" cx="1537" cy="45.6" r="5.8"/>
			<circle class="st1" cx="1512.8" cy="45.6" r="5.8"/>
			<circle class="st1" cx="1488.5" cy="45.6" r="5.8"/>
			<circle class="st1" cx="1464.3" cy="45.6" r="5.8"/>
			<circle class="st1" cx="1440.1" cy="45.6" r="5.8"/>
			<circle class="st1" cx="1415.9" cy="45.6" r="5.8"/>
			<circle class="st1" cx="1391.6" cy="45.6" r="5.8"/>
			<circle class="st1" cx="1367.4" cy="45.6" r="5.8"/>
			<circle class="st1" cx="1343.2" cy="45.6" r="5.8"/>
			<circle class="st1" cx="1318.9" cy="45.6" r="5.8"/>
			<circle class="st1" cx="1294.7" cy="45.6" r="5.8"/>
			<circle class="st1" cx="1270.5" cy="45.6" r="5.8"/>
			<circle class="st1" cx="1246.2" cy="45.6" r="5.8"/>
			<circle class="st1" cx="1222" cy="45.6" r="5.8"/>
			<circle class="st1" cx="1197.8" cy="45.6" r="5.8"/>
			<circle class="st1" cx="1173.6" cy="45.6" r="5.8"/>
			<circle class="st1" cx="1149.3" cy="45.6" r="5.8"/>
		</g>
		<g class="st0">
			<circle class="st1" cx="1609.7" cy="69.8" r="5.8"/>
			<circle class="st1" cx="1585.5" cy="69.8" r="5.8"/>
			<circle class="st1" cx="1561.2" cy="69.8" r="5.8"/>
			<circle class="st1" cx="1537" cy="69.8" r="5.8"/>
			<circle class="st1" cx="1512.8" cy="69.8" r="5.8"/>
			<circle class="st1" cx="1488.5" cy="69.8" r="5.8"/>
			<circle class="st1" cx="1464.3" cy="69.8" r="5.8"/>
			<circle class="st1" cx="1440.1" cy="69.8" r="5.8"/>
			<circle class="st1" cx="1415.9" cy="69.8" r="5.8"/>
			<circle class="st1" cx="1391.6" cy="69.8" r="5.8"/>
			<circle class="st1" cx="1367.4" cy="69.8" r="5.8"/>
			<circle class="st1" cx="1343.2" cy="69.8" r="5.8"/>
			<circle class="st1" cx="1318.9" cy="69.8" r="5.8"/>
			<circle class="st1" cx="1294.7" cy="69.8" r="5.8"/>
			<circle class="st1" cx="1270.5" cy="69.8" r="5.8"/>
			<circle class="st1" cx="1246.2" cy="69.8" r="5.8"/>
			<circle class="st1" cx="1222" cy="69.8" r="5.8"/>
			<circle class="st1" cx="1197.8" cy="69.8" r="5.8"/>
			<circle class="st1" cx="1173.6" cy="69.8" r="5.8"/>
			<circle class="st1" cx="1149.3" cy="69.8" r="5.8"/>
		</g>
		<g class="st0">
			<circle class="st1" cx="1609.7" cy="94" r="5.8"/>
			<circle class="st1" cx="1585.5" cy="94" r="5.8"/>
			<circle class="st1" cx="1561.2" cy="94" r="5.8"/>
			<circle class="st1" cx="1537" cy="94" r="5.8"/>
			<circle class="st1" cx="1512.8" cy="94" r="5.8"/>
			<circle class="st1" cx="1488.5" cy="94" r="5.8"/>
			<circle class="st1" cx="1464.3" cy="94" r="5.8"/>
			<circle class="st1" cx="1440.1" cy="94" r="5.8"/>
			<circle class="st1" cx="1415.9" cy="94" r="5.8"/>
			<circle class="st1" cx="1391.6" cy="94" r="5.8"/>
			<circle class="st1" cx="1367.4" cy="94" r="5.8"/>
			<circle class="st1" cx="1343.2" cy="94" r="5.8"/>
			<circle class="st1" cx="1318.9" cy="94" r="5.8"/>
			<circle class="st1" cx="1294.7" cy="94" r="5.8"/>
			<circle class="st1" cx="1270.5" cy="94" r="5.8"/>
			<circle class="st1" cx="1246.2" cy="94" r="5.8"/>
			<circle class="st1" cx="1222" cy="94" r="5.8"/>
			<circle class="st1" cx="1197.8" cy="94" r="5.8"/>
			<circle class="st1" cx="1173.6" cy="94" r="5.8"/>
			<circle class="st1" cx="1149.3" cy="94" r="5.8"/>
		</g>
		<g class="st0">
			<circle class="st1" cx="1609.7" cy="118.3" r="5.8"/>
			<circle class="st1" cx="1585.5" cy="118.3" r="5.8"/>
			<circle class="st1" cx="1561.2" cy="118.3" r="5.8"/>
			<circle class="st1" cx="1537" cy="118.3" r="5.8"/>
			<circle class="st1" cx="1512.8" cy="118.3" r="5.8"/>
			<circle class="st1" cx="1488.5" cy="118.3" r="5.8"/>
			<circle class="st1" cx="1464.3" cy="118.3" r="5.8"/>
			<circle class="st1" cx="1440.1" cy="118.3" r="5.8"/>
			<circle class="st1" cx="1415.9" cy="118.3" r="5.8"/>
			<circle class="st1" cx="1391.6" cy="118.3" r="5.8"/>
			<circle class="st1" cx="1367.4" cy="118.3" r="5.8"/>
			<circle class="st1" cx="1343.2" cy="118.3" r="5.8"/>
			<circle class="st1" cx="1318.9" cy="118.3" r="5.8"/>
			<circle class="st1" cx="1294.7" cy="118.3" r="5.8"/>
			<circle class="st1" cx="1270.5" cy="118.3" r="5.8"/>
			<circle class="st1" cx="1246.2" cy="118.3" r="5.8"/>
			<circle class="st1" cx="1222" cy="118.3" r="5.8"/>
			<circle class="st1" cx="1197.8" cy="118.3" r="5.8"/>
			<circle class="st1" cx="1173.6" cy="118.3" r="5.8"/>
			<circle class="st1" cx="1149.3" cy="118.3" r="5.8"/>
		</g>
		<g class="st0">
			<circle class="st1" cx="1609.7" cy="142.5" r="5.8"/>
			<circle class="st1" cx="1585.5" cy="142.5" r="5.8"/>
			<circle class="st1" cx="1561.2" cy="142.5" r="5.8"/>
			<circle class="st1" cx="1537" cy="142.5" r="5.8"/>
			<circle class="st1" cx="1512.8" cy="142.5" r="5.8"/>
			<circle class="st1" cx="1488.5" cy="142.5" r="5.8"/>
			<circle class="st1" cx="1464.3" cy="142.5" r="5.8"/>
			<circle class="st1" cx="1440.1" cy="142.5" r="5.8"/>
			<circle class="st1" cx="1415.9" cy="142.5" r="5.8"/>
			<circle class="st1" cx="1391.6" cy="142.5" r="5.8"/>
			<circle class="st1" cx="1367.4" cy="142.5" r="5.8"/>
			<circle class="st1" cx="1343.2" cy="142.5" r="5.8"/>
			<circle class="st1" cx="1318.9" cy="142.5" r="5.8"/>
			<circle class="st1" cx="1294.7" cy="142.5" r="5.8"/>
			<circle class="st1" cx="1270.5" cy="142.5" r="5.8"/>
			<circle class="st1" cx="1246.2" cy="142.5" r="5.8"/>
			<circle class="st1" cx="1222" cy="142.5" r="5.8"/>
			<circle class="st1" cx="1197.8" cy="142.5" r="5.8"/>
			<circle class="st1" cx="1173.6" cy="142.5" r="5.8"/>
			<circle class="st1" cx="1149.3" cy="142.5" r="5.8"/>
		</g>
		<g class="st0">
			<circle class="st1" cx="1609.7" cy="166.7" r="5.8"/>
			<circle class="st1" cx="1585.5" cy="166.7" r="5.8"/>
			<circle class="st1" cx="1561.2" cy="166.7" r="5.8"/>
			<circle class="st1" cx="1537" cy="166.7" r="5.8"/>
			<circle class="st1" cx="1512.8" cy="166.7" r="5.8"/>
			<circle class="st1" cx="1488.5" cy="166.7" r="5.8"/>
			<circle class="st1" cx="1464.3" cy="166.7" r="5.8"/>
			<circle class="st1" cx="1440.1" cy="166.7" r="5.8"/>
			<circle class="st1" cx="1415.9" cy="166.7" r="5.8"/>
			<circle class="st1" cx="1391.6" cy="166.7" r="5.8"/>
			<circle class="st1" cx="1367.4" cy="166.7" r="5.8"/>
			<circle class="st1" cx="1343.2" cy="166.7" r="5.8"/>
			<circle class="st1" cx="1318.9" cy="166.7" r="5.8"/>
			<circle class="st1" cx="1270.5" cy="166.7" r="5.8"/>
			<circle class="st1" cx="1246.2" cy="166.7" r="5.8"/>
			<circle class="st1" cx="1222" cy="166.7" r="5.8"/>
			<circle class="st1" cx="1197.8" cy="166.7" r="5.8"/>
			<circle class="st1" cx="1173.6" cy="166.7" r="5.8"/>
			<circle class="st1" cx="1149.3" cy="166.7" r="5.8"/>
		</g>
		<g class="st0">
			<circle class="st1" cx="1609.7" cy="191" r="5.8"/>
			<circle class="st1" cx="1585.5" cy="191" r="5.8"/>
			<circle class="st1" cx="1561.2" cy="191" r="5.8"/>
			<circle class="st1" cx="1537" cy="191" r="5.8"/>
			<circle class="st1" cx="1512.8" cy="191" r="5.8"/>
			<circle class="st1" cx="1488.5" cy="191" r="5.8"/>
			<circle class="st1" cx="1464.3" cy="191" r="5.8"/>
			<circle class="st1" cx="1440.1" cy="191" r="5.8"/>
			<circle class="st1" cx="1415.9" cy="191" r="5.8"/>
			<circle class="st1" cx="1391.6" cy="191" r="5.8"/>
			<circle class="st1" cx="1367.4" cy="191" r="5.8"/>
			<circle class="st1" cx="1343.2" cy="191" r="5.8"/>
			<circle class="st1" cx="1318.9" cy="191" r="5.8"/>
			<circle class="st1" cx="1270.5" cy="191" r="5.8"/>
			<circle class="st1" cx="1246.2" cy="191" r="5.8"/>
			<circle class="st1" cx="1222" cy="191" r="5.8"/>
			<circle class="st1" cx="1197.8" cy="191" r="5.8"/>
			<circle class="st1" cx="1173.6" cy="191" r="5.8"/>
			<circle class="st1" cx="1149.3" cy="191" r="5.8"/>
		</g>
		<g class="st0">
			<circle class="st1" cx="1609.7" cy="215.2" r="5.8"/>
			<circle class="st1" cx="1585.5" cy="215.2" r="5.8"/>
			<circle class="st1" cx="1561.2" cy="215.2" r="5.8"/>
			<circle class="st1" cx="1537" cy="215.2" r="5.8"/>
			<circle class="st1" cx="1512.8" cy="215.2" r="5.8"/>
			<circle class="st1" cx="1488.5" cy="215.2" r="5.8"/>
			<circle class="st1" cx="1464.3" cy="215.2" r="5.8"/>
			<circle class="st1" cx="1440.1" cy="215.2" r="5.8"/>
			<circle class="st1" cx="1415.9" cy="215.2" r="5.8"/>
			<circle class="st1" cx="1391.6" cy="215.2" r="5.8"/>
			<circle class="st1" cx="1367.4" cy="215.2" r="5.8"/>
			<circle class="st1" cx="1343.2" cy="215.2" r="5.8"/>
			<circle class="st1" cx="1318.9" cy="215.2" r="5.8"/>
			<circle class="st1" cx="1294.7" cy="215.2" r="5.8"/>
			<circle class="st1" cx="1270.5" cy="215.2" r="5.8"/>
			<circle class="st1" cx="1246.2" cy="215.2" r="5.8"/>
			<circle class="st1" cx="1222" cy="215.2" r="5.8"/>
			<circle class="st1" cx="1197.8" cy="215.2" r="5.8"/>
			<circle class="st1" cx="1173.6" cy="215.2" r="5.8"/>
			<circle class="st1" cx="1149.3" cy="215.2" r="5.8"/>
		</g>
		<g class="st0">
			<circle class="st1" cx="1609.7" cy="239.4" r="5.8"/>
			<circle class="st1" cx="1585.5" cy="239.4" r="5.8"/>
			<circle class="st1" cx="1561.2" cy="239.4" r="5.8"/>
			<circle class="st1" cx="1537" cy="239.4" r="5.8"/>
			<circle class="st1" cx="1512.8" cy="239.4" r="5.8"/>
			<circle class="st1" cx="1488.5" cy="239.4" r="5.8"/>
			<circle class="st1" cx="1464.3" cy="239.4" r="5.8"/>
			<circle class="st1" cx="1440.1" cy="239.4" r="5.8"/>
			<circle class="st1" cx="1415.9" cy="239.4" r="5.8"/>
			<circle class="st1" cx="1391.6" cy="239.4" r="5.8"/>
			<circle class="st1" cx="1367.4" cy="239.4" r="5.8"/>
			<circle class="st1" cx="1343.2" cy="239.4" r="5.8"/>
			<circle class="st1" cx="1318.9" cy="239.4" r="5.8"/>
			<circle class="st1" cx="1294.7" cy="239.4" r="5.8"/>
			<circle class="st1" cx="1270.5" cy="239.4" r="5.8"/>
			<circle class="st1" cx="1246.2" cy="239.4" r="5.8"/>
			<circle class="st1" cx="1222" cy="239.4" r="5.8"/>
			<circle class="st1" cx="1197.8" cy="239.4" r="5.8"/>
			<circle class="st1" cx="1173.6" cy="239.4" r="5.8"/>
			<circle class="st1" cx="1149.3" cy="239.4" r="5.8"/>
		</g>
		<g class="st0">
			<circle class="st1" cx="1609.7" cy="263.7" r="5.8"/>
			<circle class="st1" cx="1585.5" cy="263.7" r="5.8"/>
			<circle class="st1" cx="1561.2" cy="263.7" r="5.8"/>
			<circle class="st1" cx="1537" cy="263.7" r="5.8"/>
			<circle class="st1" cx="1512.8" cy="263.7" r="5.8"/>
			<circle class="st1" cx="1464.3" cy="263.7" r="5.8"/>
			<circle class="st1" cx="1440.1" cy="263.7" r="5.8"/>
			<circle class="st1" cx="1415.9" cy="263.7" r="5.8"/>
			<circle class="st1" cx="1391.6" cy="263.7" r="5.8"/>
			<circle class="st1" cx="1367.4" cy="263.7" r="5.8"/>
			<circle class="st1" cx="1343.2" cy="263.7" r="5.8"/>
			<circle class="st1" cx="1318.9" cy="263.7" r="5.8"/>
			<circle class="st1" cx="1294.7" cy="263.7" r="5.8"/>
			<circle class="st1" cx="1270.5" cy="263.7" r="5.8"/>
			<circle class="st1" cx="1246.2" cy="263.7" r="5.8"/>
			<circle class="st1" cx="1222" cy="263.7" r="5.8"/>
			<circle class="st1" cx="1197.8" cy="263.7" r="5.8"/>
			<circle class="st1" cx="1173.6" cy="263.7" r="5.8"/>
			<circle class="st1" cx="1149.3" cy="263.7" r="5.8"/>
		</g>
		<g class="st0">
			<circle class="st1" cx="1609.7" cy="287.9" r="5.8"/>
			<circle class="st1" cx="1585.5" cy="287.9" r="5.8"/>
			<circle class="st1" cx="1561.2" cy="287.9" r="5.8"/>
			<circle class="st1" cx="1537" cy="287.9" r="5.8"/>
			<circle class="st1" cx="1464.3" cy="287.9" r="5.8"/>
			<circle class="st1" cx="1440.1" cy="287.9" r="5.8"/>
			<circle class="st1" cx="1415.9" cy="287.9" r="5.8"/>
			<circle class="st1" cx="1391.6" cy="287.9" r="5.8"/>
			<circle class="st1" cx="1367.4" cy="287.9" r="5.8"/>
			<circle class="st1" cx="1343.2" cy="287.9" r="5.8"/>
			<circle class="st1" cx="1318.9" cy="287.9" r="5.8"/>
			<circle class="st1" cx="1294.7" cy="287.9" r="5.8"/>
			<circle class="st1" cx="1270.5" cy="287.9" r="5.8"/>
			<circle class="st1" cx="1246.2" cy="287.9" r="5.8"/>
			<circle class="st1" cx="1222" cy="287.9" r="5.8"/>
			<circle class="st1" cx="1197.8" cy="287.9" r="5.8"/>
			<circle class="st1" cx="1173.6" cy="287.9" r="5.8"/>
			<circle class="st1" cx="1149.3" cy="287.9" r="5.8"/>
		</g>
		<g class="st0">
			<circle class="st1" cx="1609.7" cy="312.1" r="5.8"/>
			<circle class="st1" cx="1585.5" cy="312.1" r="5.8"/>
			<circle class="st1" cx="1561.2" cy="312.1" r="5.8"/>
			<circle class="st1" cx="1464.3" cy="312.1" r="5.8"/>
			<circle class="st1" cx="1440.1" cy="312.1" r="5.8"/>
			<circle class="st1" cx="1415.9" cy="312.1" r="5.8"/>
			<circle class="st1" cx="1391.6" cy="312.1" r="5.8"/>
			<circle class="st1" cx="1367.4" cy="312.1" r="5.8"/>
			<circle class="st1" cx="1343.2" cy="312.1" r="5.8"/>
			<circle class="st1" cx="1318.9" cy="312.1" r="5.8"/>
			<circle class="st1" cx="1294.7" cy="312.1" r="5.8"/>
			<circle class="st1" cx="1270.5" cy="312.1" r="5.8"/>
			<circle class="st1" cx="1246.2" cy="312.1" r="5.8"/>
			<circle class="st1" cx="1222" cy="312.1" r="5.8"/>
			<circle class="st1" cx="1197.8" cy="312.1" r="5.8"/>
			<circle class="st1" cx="1173.6" cy="312.1" r="5.8"/>
			<circle class="st1" cx="1149.3" cy="312.1" r="5.8"/>
		</g>
		<g class="st0">
			<circle class="st1" cx="1609.7" cy="336.3" r="5.8"/>
			<circle class="st1" cx="1585.5" cy="336.3" r="5.8"/>
			<circle class="st1" cx="1464.3" cy="336.3" r="5.8"/>
			<circle class="st1" cx="1440.1" cy="336.3" r="5.8"/>
			<circle class="st1" cx="1415.9" cy="336.3" r="5.8"/>
			<circle class="st1" cx="1391.6" cy="336.3" r="5.8"/>
			<circle class="st1" cx="1367.4" cy="336.3" r="5.8"/>
			<circle class="st1" cx="1343.2" cy="336.3" r="5.8"/>
			<circle class="st1" cx="1318.9" cy="336.3" r="5.8"/>
			<circle class="st1" cx="1294.7" cy="336.3" r="5.8"/>
			<circle class="st1" cx="1270.5" cy="336.3" r="5.8"/>
			<circle class="st1" cx="1246.2" cy="336.3" r="5.8"/>
			<circle class="st1" cx="1222" cy="336.3" r="5.8"/>
			<circle class="st1" cx="1173.6" cy="336.3" r="5.8"/>
			<circle class="st1" cx="1149.3" cy="336.3" r="5.8"/>
		</g>
		<g class="st0">
			<circle class="st1" cx="1609.7" cy="360.6" r="5.8"/>
			<circle class="st1" cx="1585.5" cy="360.6" r="5.8"/>
			<circle class="st1" cx="1464.3" cy="360.6" r="5.8"/>
			<circle class="st1" cx="1440.1" cy="360.6" r="5.8"/>
			<circle class="st1" cx="1415.9" cy="360.6" r="5.8"/>
			<circle class="st1" cx="1391.6" cy="360.6" r="5.8"/>
			<circle class="st1" cx="1367.4" cy="360.6" r="5.8"/>
			<circle class="st1" cx="1343.2" cy="360.6" r="5.8"/>
			<circle class="st1" cx="1318.9" cy="360.6" r="5.8"/>
			<circle class="st1" cx="1294.7" cy="360.6" r="5.8"/>
			<circle class="st1" cx="1270.5" cy="360.6" r="5.8"/>
			<circle class="st1" cx="1246.2" cy="360.6" r="5.8"/>
			<circle class="st1" cx="1222" cy="360.6" r="5.8"/>
			<circle class="st1" cx="1173.6" cy="360.6" r="5.8"/>
			<circle class="st1" cx="1149.3" cy="360.6" r="5.8"/>
		</g>
		<g class="st0">
			<circle class="st1" cx="1609.7" cy="384.8" r="5.8"/>
			<circle class="st1" cx="1585.5" cy="384.8" r="5.8"/>
			<circle class="st1" cx="1464.3" cy="384.8" r="5.8"/>
			<circle class="st1" cx="1440.1" cy="384.8" r="5.8"/>
			<circle class="st1" cx="1415.9" cy="384.8" r="5.8"/>
			<circle class="st1" cx="1391.6" cy="384.8" r="5.8"/>
			<circle class="st1" cx="1367.4" cy="384.8" r="5.8"/>
			<circle class="st1" cx="1343.2" cy="384.8" r="5.8"/>
			<circle class="st1" cx="1318.9" cy="384.8" r="5.8"/>
			<circle class="st1" cx="1294.7" cy="384.8" r="5.8"/>
			<circle class="st1" cx="1270.5" cy="384.8" r="5.8"/>
			<circle class="st1" cx="1246.2" cy="384.8" r="5.8"/>
			<circle class="st1" cx="1222" cy="384.8" r="5.8"/>
			<circle class="st1" cx="1197.8" cy="384.8" r="5.8"/>
			<circle class="st1" cx="1173.6" cy="384.8" r="5.8"/>
			<circle class="st1" cx="1149.3" cy="384.8" r="5.8"/>
		</g>
		<g class="st0">
			<circle class="st1" cx="1609.7" cy="409" r="5.8"/>
			<circle class="st1" cx="1585.5" cy="409" r="5.8"/>
			<circle class="st1" cx="1464.3" cy="409" r="5.8"/>
			<circle class="st1" cx="1440.1" cy="409" r="5.8"/>
			<circle class="st1" cx="1415.9" cy="409" r="5.8"/>
			<circle class="st1" cx="1391.6" cy="409" r="5.8"/>
			<circle class="st1" cx="1367.4" cy="409" r="5.8"/>
			<circle class="st1" cx="1343.2" cy="409" r="5.8"/>
			<circle class="st1" cx="1318.9" cy="409" r="5.8"/>
			<circle class="st1" cx="1294.7" cy="409" r="5.8"/>
			<circle class="st1" cx="1270.5" cy="409" r="5.8"/>
			<circle class="st1" cx="1246.2" cy="409" r="5.8"/>
			<circle class="st1" cx="1222" cy="409" r="5.8"/>
			<circle class="st1" cx="1197.8" cy="409" r="5.8"/>
			<circle class="st1" cx="1173.6" cy="409" r="5.8"/>
			<circle class="st1" cx="1149.3" cy="409" r="5.8"/>
		</g>
		<g class="st0">
			<circle class="st1" cx="1609.7" cy="433.3" r="5.8"/>
			<circle class="st1" cx="1585.5" cy="433.3" r="5.8"/>
			<circle class="st1" cx="1464.3" cy="433.3" r="5.8"/>
			<circle class="st1" cx="1440.1" cy="433.3" r="5.8"/>
			<circle class="st1" cx="1415.9" cy="433.3" r="5.8"/>
			<circle class="st1" cx="1391.6" cy="433.3" r="5.8"/>
			<circle class="st1" cx="1367.4" cy="433.3" r="5.8"/>
			<circle class="st1" cx="1343.2" cy="433.3" r="5.8"/>
			<circle class="st1" cx="1318.9" cy="433.3" r="5.8"/>
			<circle class="st1" cx="1294.7" cy="433.3" r="5.8"/>
			<circle class="st1" cx="1270.5" cy="433.3" r="5.8"/>
			<circle class="st1" cx="1246.2" cy="433.3" r="5.8"/>
			<circle class="st1" cx="1222" cy="433.3" r="5.8"/>
			<circle class="st1" cx="1197.8" cy="433.3" r="5.8"/>
			<circle class="st1" cx="1173.6" cy="433.3" r="5.8"/>
			<circle class="st1" cx="1149.3" cy="433.3" r="5.8"/>
		</g>
		<g class="st0">
			<circle class="st1" cx="1609.7" cy="457.5" r="5.8"/>
			<circle class="st1" cx="1585.5" cy="457.5" r="5.8"/>
			<circle class="st1" cx="1464.3" cy="457.5" r="5.8"/>
			<circle class="st1" cx="1440.1" cy="457.5" r="5.8"/>
			<circle class="st1" cx="1415.9" cy="457.5" r="5.8"/>
			<circle class="st1" cx="1391.6" cy="457.5" r="5.8"/>
			<circle class="st1" cx="1367.4" cy="457.5" r="5.8"/>
			<circle class="st1" cx="1343.2" cy="457.5" r="5.8"/>
			<circle class="st1" cx="1318.9" cy="457.5" r="5.8"/>
			<circle class="st1" cx="1294.7" cy="457.5" r="5.8"/>
			<circle class="st1" cx="1270.5" cy="457.5" r="5.8"/>
			<circle class="st1" cx="1246.2" cy="457.5" r="5.8"/>
			<circle class="st1" cx="1222" cy="457.5" r="5.8"/>
			<circle class="st1" cx="1197.8" cy="457.5" r="5.8"/>
			<circle class="st1" cx="1173.6" cy="457.5" r="5.8"/>
			<circle class="st1" cx="1149.3" cy="457.5" r="5.8"/>
		</g>
		<g class="st0">
			<circle class="st1" cx="1609.7" cy="481.7" r="5.8"/>
			<circle class="st1" cx="1585.5" cy="481.7" r="5.8"/>
			<circle class="st1" cx="1464.3" cy="481.7" r="5.8"/>
			<circle class="st1" cx="1440.1" cy="481.7" r="5.8"/>
			<circle class="st1" cx="1415.9" cy="481.7" r="5.8"/>
			<circle class="st1" cx="1391.6" cy="481.7" r="5.8"/>
			<circle class="st1" cx="1367.4" cy="481.7" r="5.8"/>
			<circle class="st1" cx="1343.2" cy="481.7" r="5.8"/>
			<circle class="st1" cx="1318.9" cy="481.7" r="5.8"/>
			<circle class="st1" cx="1294.7" cy="481.7" r="5.8"/>
			<circle class="st1" cx="1270.5" cy="481.7" r="5.8"/>
			<circle class="st1" cx="1246.2" cy="481.7" r="5.8"/>
			<circle class="st1" cx="1222" cy="481.7" r="5.8"/>
			<circle class="st1" cx="1197.8" cy="481.7" r="5.8"/>
			<circle class="st1" cx="1173.6" cy="481.7" r="5.8"/>
			<circle class="st1" cx="1149.3" cy="481.7" r="5.8"/>
		</g>
		<g class="st0">
			<circle class="st1" cx="1609.7" cy="506" r="5.8"/>
			<circle class="st1" cx="1585.5" cy="506" r="5.8"/>
			<circle class="st1" cx="1561.2" cy="506" r="5.8"/>
			<circle class="st1" cx="1464.3" cy="506" r="5.8"/>
			<circle class="st1" cx="1440.1" cy="506" r="5.8"/>
			<circle class="st1" cx="1415.9" cy="506" r="5.8"/>
			<circle class="st1" cx="1391.6" cy="506" r="5.8"/>
			<circle class="st1" cx="1367.4" cy="506" r="5.8"/>
			<circle class="st1" cx="1343.2" cy="506" r="5.8"/>
			<circle class="st1" cx="1318.9" cy="506" r="5.8"/>
			<circle class="st1" cx="1270.5" cy="506" r="5.8"/>
			<circle class="st1" cx="1246.2" cy="506" r="5.8"/>
			<circle class="st1" cx="1222" cy="506" r="5.8"/>
			<circle class="st1" cx="1197.8" cy="506" r="5.8"/>
			<circle class="st1" cx="1173.6" cy="506" r="5.8"/>
			<circle class="st1" cx="1149.3" cy="506" r="5.8"/>
		</g>
		<g class="st0">
			<circle class="st1" cx="1609.7" cy="530.2" r="5.8"/>
			<circle class="st1" cx="1585.5" cy="530.2" r="5.8"/>
			<circle class="st1" cx="1561.2" cy="530.2" r="5.8"/>
			<circle class="st1" cx="1464.3" cy="530.2" r="5.8"/>
			<circle class="st1" cx="1440.1" cy="530.2" r="5.8"/>
			<circle class="st1" cx="1415.9" cy="530.2" r="5.8"/>
			<circle class="st1" cx="1391.6" cy="530.2" r="5.8"/>
			<circle class="st1" cx="1367.4" cy="530.2" r="5.8"/>
			<circle class="st1" cx="1343.2" cy="530.2" r="5.8"/>
			<circle class="st1" cx="1318.9" cy="530.2" r="5.8"/>
			<circle class="st1" cx="1294.7" cy="530.2" r="5.8"/>
			<circle class="st1" cx="1270.5" cy="530.2" r="5.8"/>
			<circle class="st1" cx="1246.2" cy="530.2" r="5.8"/>
			<circle class="st1" cx="1222" cy="530.2" r="5.8"/>
			<circle class="st1" cx="1197.8" cy="530.2" r="5.8"/>
			<circle class="st1" cx="1173.6" cy="530.2" r="5.8"/>
			<circle class="st1" cx="1149.3" cy="530.2" r="5.8"/>
		</g>
		<g class="st0">
			<circle class="st1" cx="1609.7" cy="554.4" r="5.8"/>
			<circle class="st1" cx="1585.5" cy="554.4" r="5.8"/>
			<circle class="st1" cx="1561.2" cy="554.4" r="5.8"/>
			<circle class="st1" cx="1464.3" cy="554.4" r="5.8"/>
			<circle class="st1" cx="1440.1" cy="554.4" r="5.8"/>
			<circle class="st1" cx="1415.9" cy="554.4" r="5.8"/>
			<circle class="st1" cx="1391.6" cy="554.4" r="5.8"/>
			<circle class="st1" cx="1367.4" cy="554.4" r="5.8"/>
			<circle class="st1" cx="1343.2" cy="554.4" r="5.8"/>
			<circle class="st1" cx="1318.9" cy="554.4" r="5.8"/>
			<circle class="st1" cx="1294.7" cy="554.4" r="5.8"/>
			<circle class="st1" cx="1270.5" cy="554.4" r="5.8"/>
			<circle class="st1" cx="1246.2" cy="554.4" r="5.8"/>
			<circle class="st1" cx="1197.8" cy="554.4" r="5.8"/>
			<circle class="st1" cx="1173.6" cy="554.4" r="5.8"/>
			<circle class="st1" cx="1149.3" cy="554.4" r="5.8"/>
		</g>
		<g class="st0">
			<circle class="st1" cx="1609.7" cy="578.6" r="5.8"/>
			<circle class="st1" cx="1585.5" cy="578.6" r="5.8"/>
			<circle class="st1" cx="1561.2" cy="578.6" r="5.8"/>
			<circle class="st1" cx="1464.3" cy="578.6" r="5.8"/>
			<circle class="st1" cx="1440.1" cy="578.6" r="5.8"/>
			<circle class="st1" cx="1415.9" cy="578.6" r="5.8"/>
			<circle class="st1" cx="1391.6" cy="578.6" r="5.8"/>
			<circle class="st1" cx="1367.4" cy="578.6" r="5.8"/>
			<circle class="st1" cx="1343.2" cy="578.6" r="5.8"/>
			<circle class="st1" cx="1318.9" cy="578.6" r="5.8"/>
			<circle class="st1" cx="1294.7" cy="578.6" r="5.8"/>
			<circle class="st1" cx="1270.5" cy="578.6" r="5.8"/>
			<circle class="st1" cx="1246.2" cy="578.6" r="5.8"/>
			<circle class="st1" cx="1197.8" cy="578.6" r="5.8"/>
			<circle class="st1" cx="1173.6" cy="578.6" r="5.8"/>
			<circle class="st1" cx="1149.3" cy="578.6" r="5.8"/>
		</g>
		<g class="st0">
			<circle class="st1" cx="1609.7" cy="602.9" r="5.8"/>
			<circle class="st1" cx="1585.5" cy="602.9" r="5.8"/>
			<circle class="st1" cx="1561.2" cy="602.9" r="5.8"/>
			<circle class="st1" cx="1464.3" cy="602.9" r="5.8"/>
			<circle class="st1" cx="1440.1" cy="602.9" r="5.8"/>
			<circle class="st1" cx="1415.9" cy="602.9" r="5.8"/>
			<circle class="st1" cx="1391.6" cy="602.9" r="5.8"/>
			<circle class="st1" cx="1367.4" cy="602.9" r="5.8"/>
			<circle class="st1" cx="1343.2" cy="602.9" r="5.8"/>
			<circle class="st1" cx="1318.9" cy="602.9" r="5.8"/>
			<circle class="st1" cx="1294.7" cy="602.9" r="5.8"/>
			<circle class="st1" cx="1270.5" cy="602.9" r="5.8"/>
			<circle class="st1" cx="1246.2" cy="602.9" r="5.8"/>
			<circle class="st1" cx="1222" cy="602.9" r="5.8"/>
			<circle class="st1" cx="1197.8" cy="602.9" r="5.8"/>
			<circle class="st1" cx="1173.6" cy="602.9" r="5.8"/>
			<circle class="st1" cx="1149.3" cy="602.9" r="5.8"/>
		</g>
		<g class="st0">
			<circle class="st1" cx="1609.7" cy="627.1" r="5.8"/>
			<circle class="st1" cx="1585.5" cy="627.1" r="5.8"/>
			<circle class="st1" cx="1561.2" cy="627.1" r="5.8"/>
			<circle class="st1" cx="1464.3" cy="627.1" r="5.8"/>
			<circle class="st1" cx="1440.1" cy="627.1" r="5.8"/>
			<circle class="st1" cx="1415.9" cy="627.1" r="5.8"/>
			<circle class="st1" cx="1391.6" cy="627.1" r="5.8"/>
			<circle class="st1" cx="1367.4" cy="627.1" r="5.8"/>
			<circle class="st1" cx="1343.2" cy="627.1" r="5.8"/>
			<circle class="st1" cx="1318.9" cy="627.1" r="5.8"/>
			<circle class="st1" cx="1294.7" cy="627.1" r="5.8"/>
			<circle class="st1" cx="1270.5" cy="627.1" r="5.8"/>
			<circle class="st1" cx="1246.2" cy="627.1" r="5.8"/>
			<circle class="st1" cx="1222" cy="627.1" r="5.8"/>
			<circle class="st1" cx="1197.8" cy="627.1" r="5.8"/>
			<circle class="st1" cx="1173.6" cy="627.1" r="5.8"/>
			<circle class="st1" cx="1149.3" cy="627.1" r="5.8"/>
		</g>
		<g class="st0">
			<circle class="st1" cx="1609.7" cy="651.3" r="5.8"/>
			<circle class="st1" cx="1585.5" cy="651.3" r="5.8"/>
			<circle class="st1" cx="1561.2" cy="651.3" r="5.8"/>
			<circle class="st1" cx="1537" cy="651.3" r="5.8"/>
			<circle class="st1" cx="1464.3" cy="651.3" r="5.8"/>
			<circle class="st1" cx="1440.1" cy="651.3" r="5.8"/>
			<circle class="st1" cx="1415.9" cy="651.3" r="5.8"/>
			<circle class="st1" cx="1391.6" cy="651.3" r="5.8"/>
			<circle class="st1" cx="1367.4" cy="651.3" r="5.8"/>
			<circle class="st1" cx="1343.2" cy="651.3" r="5.8"/>
			<circle class="st1" cx="1318.9" cy="651.3" r="5.8"/>
			<circle class="st1" cx="1294.7" cy="651.3" r="5.8"/>
			<circle class="st1" cx="1270.5" cy="651.3" r="5.8"/>
			<circle class="st1" cx="1246.2" cy="651.3" r="5.8"/>
			<circle class="st1" cx="1222" cy="651.3" r="5.8"/>
			<circle class="st1" cx="1197.8" cy="651.3" r="5.8"/>
			<circle class="st1" cx="1173.6" cy="651.3" r="5.8"/>
			<circle class="st1" cx="1149.3" cy="651.3" r="5.8"/>
		</g>
		<g class="st0">
			<circle class="st1" cx="1609.7" cy="675.6" r="5.8"/>
			<circle class="st1" cx="1585.5" cy="675.6" r="5.8"/>
			<circle class="st1" cx="1561.2" cy="675.6" r="5.8"/>
			<circle class="st1" cx="1537" cy="675.6" r="5.8"/>
			<circle class="st1" cx="1512.8" cy="675.6" r="5.8"/>
			<circle class="st1" cx="1464.3" cy="675.6" r="5.8"/>
			<circle class="st1" cx="1440.1" cy="675.6" r="5.8"/>
			<circle class="st1" cx="1415.9" cy="675.6" r="5.8"/>
			<circle class="st1" cx="1391.6" cy="675.6" r="5.8"/>
			<circle class="st1" cx="1367.4" cy="675.6" r="5.8"/>
			<circle class="st1" cx="1343.2" cy="675.6" r="5.8"/>
			<circle class="st1" cx="1318.9" cy="675.6" r="5.8"/>
			<circle class="st1" cx="1294.7" cy="675.6" r="5.8"/>
			<circle class="st1" cx="1270.5" cy="675.6" r="5.8"/>
			<circle class="st1" cx="1246.2" cy="675.6" r="5.8"/>
			<circle class="st1" cx="1222" cy="675.6" r="5.8"/>
			<circle class="st1" cx="1197.8" cy="675.6" r="5.8"/>
			<circle class="st1" cx="1173.6" cy="675.6" r="5.8"/>
			<circle class="st1" cx="1149.3" cy="675.6" r="5.8"/>
		</g>
		<g class="st0">
			<circle class="st1" cx="1609.7" cy="699.8" r="5.8"/>
			<circle class="st1" cx="1585.5" cy="699.8" r="5.8"/>
			<circle class="st1" cx="1561.2" cy="699.8" r="5.8"/>
			<circle class="st1" cx="1537" cy="699.8" r="5.8"/>
			<circle class="st1" cx="1512.8" cy="699.8" r="5.8"/>
			<circle class="st1" cx="1464.3" cy="699.8" r="5.8"/>
			<circle class="st1" cx="1440.1" cy="699.8" r="5.8"/>
			<circle class="st1" cx="1415.9" cy="699.8" r="5.8"/>
			<circle class="st1" cx="1391.6" cy="699.8" r="5.8"/>
			<circle class="st1" cx="1367.4" cy="699.8" r="5.8"/>
			<circle class="st1" cx="1343.2" cy="699.8" r="5.8"/>
			<circle class="st1" cx="1318.9" cy="699.8" r="5.8"/>
			<circle class="st1" cx="1294.7" cy="699.8" r="5.8"/>
			<circle class="st1" cx="1270.5" cy="699.8" r="5.8"/>
			<circle class="st1" cx="1246.2" cy="699.8" r="5.8"/>
			<circle class="st1" cx="1222" cy="699.8" r="5.8"/>
			<circle class="st1" cx="1197.8" cy="699.8" r="5.8"/>
			<circle class="st1" cx="1173.6" cy="699.8" r="5.8"/>
			<circle class="st1" cx="1149.3" cy="699.8" r="5.8"/>
		</g>
		<g class="st0">
			<circle class="st1" cx="1609.7" cy="724" r="5.8"/>
			<circle class="st1" cx="1585.5" cy="724" r="5.8"/>
			<circle class="st1" cx="1561.2" cy="724" r="5.8"/>
			<circle class="st1" cx="1537" cy="724" r="5.8"/>
			<circle class="st1" cx="1512.8" cy="724" r="5.8"/>
			<circle class="st1" cx="1488.5" cy="724" r="5.8"/>
			<circle class="st1" cx="1464.3" cy="724" r="5.8"/>
			<circle class="st1" cx="1440.1" cy="724" r="5.8"/>
			<circle class="st1" cx="1415.9" cy="724" r="5.8"/>
			<circle class="st1" cx="1391.6" cy="724" r="5.8"/>
			<circle class="st1" cx="1367.4" cy="724" r="5.8"/>
			<circle class="st1" cx="1343.2" cy="724" r="5.8"/>
			<circle class="st1" cx="1318.9" cy="724" r="5.8"/>
			<circle class="st1" cx="1294.7" cy="724" r="5.8"/>
			<circle class="st1" cx="1270.5" cy="724" r="5.8"/>
			<circle class="st1" cx="1246.2" cy="724" r="5.8"/>
			<circle class="st1" cx="1222" cy="724" r="5.8"/>
			<circle class="st1" cx="1197.8" cy="724" r="5.8"/>
			<circle class="st1" cx="1173.6" cy="724" r="5.8"/>
			<circle class="st1" cx="1149.3" cy="724" r="5.8"/>
		</g>
		<g class="st0">
			<circle class="st1" cx="1609.7" cy="748.3" r="5.8"/>
			<circle class="st1" cx="1585.5" cy="748.3" r="5.8"/>
			<circle class="st1" cx="1561.2" cy="748.3" r="5.8"/>
			<circle class="st1" cx="1537" cy="748.3" r="5.8"/>
			<circle class="st1" cx="1512.8" cy="748.3" r="5.8"/>
			<circle class="st1" cx="1488.5" cy="748.3" r="5.8"/>
			<circle class="st1" cx="1464.3" cy="748.3" r="5.8"/>
			<circle class="st1" cx="1440.1" cy="748.3" r="5.8"/>
			<circle class="st1" cx="1415.9" cy="748.3" r="5.8"/>
			<circle class="st1" cx="1391.6" cy="748.3" r="5.8"/>
			<circle class="st1" cx="1367.4" cy="748.3" r="5.8"/>
			<circle class="st1" cx="1343.2" cy="748.3" r="5.8"/>
			<circle class="st1" cx="1318.9" cy="748.3" r="5.8"/>
			<circle class="st1" cx="1294.7" cy="748.3" r="5.8"/>
			<circle class="st1" cx="1270.5" cy="748.3" r="5.8"/>
			<circle class="st1" cx="1246.2" cy="748.3" r="5.8"/>
			<circle class="st1" cx="1222" cy="748.3" r="5.8"/>
			<circle class="st1" cx="1197.8" cy="748.3" r="5.8"/>
			<circle class="st1" cx="1173.6" cy="748.3" r="5.8"/>
			<circle class="st1" cx="1149.3" cy="748.3" r="5.8"/>
		</g>
		<g class="st0">
			<circle class="st1" cx="1609.7" cy="772.5" r="5.8"/>
			<circle class="st1" cx="1585.5" cy="772.5" r="5.8"/>
			<circle class="st1" cx="1561.2" cy="772.5" r="5.8"/>
			<circle class="st1" cx="1537" cy="772.5" r="5.8"/>
			<circle class="st1" cx="1512.8" cy="772.5" r="5.8"/>
			<circle class="st1" cx="1488.5" cy="772.5" r="5.8"/>
			<circle class="st1" cx="1464.3" cy="772.5" r="5.8"/>
			<circle class="st1" cx="1440.1" cy="772.5" r="5.8"/>
			<circle class="st1" cx="1415.9" cy="772.5" r="5.8"/>
			<circle class="st1" cx="1391.6" cy="772.5" r="5.8"/>
			<circle class="st1" cx="1367.4" cy="772.5" r="5.8"/>
			<circle class="st1" cx="1343.2" cy="772.5" r="5.8"/>
			<circle class="st1" cx="1318.9" cy="772.5" r="5.8"/>
			<circle class="st1" cx="1294.7" cy="772.5" r="5.8"/>
			<circle class="st1" cx="1270.5" cy="772.5" r="5.8"/>
			<circle class="st1" cx="1246.2" cy="772.5" r="5.8"/>
			<circle class="st1" cx="1222" cy="772.5" r="5.8"/>
			<circle class="st1" cx="1197.8" cy="772.5" r="5.8"/>
			<circle class="st1" cx="1173.6" cy="772.5" r="5.8"/>
			<circle class="st1" cx="1149.3" cy="772.5" r="5.8"/>
		</g>
		<g class="st0">
			<circle class="st1" cx="1609.7" cy="796.7" r="5.8"/>
			<circle class="st1" cx="1585.5" cy="796.7" r="5.8"/>
			<circle class="st1" cx="1561.2" cy="796.7" r="5.8"/>
			<circle class="st1" cx="1537" cy="796.7" r="5.8"/>
			<circle class="st1" cx="1512.8" cy="796.7" r="5.8"/>
			<circle class="st1" cx="1488.5" cy="796.7" r="5.8"/>
			<circle class="st1" cx="1464.3" cy="796.7" r="5.8"/>
			<circle class="st1" cx="1440.1" cy="796.7" r="5.8"/>
			<circle class="st1" cx="1415.9" cy="796.7" r="5.8"/>
			<circle class="st1" cx="1391.6" cy="796.7" r="5.8"/>
			<circle class="st1" cx="1367.4" cy="796.7" r="5.8"/>
			<circle class="st1" cx="1343.2" cy="796.7" r="5.8"/>
			<circle class="st1" cx="1318.9" cy="796.7" r="5.8"/>
			<circle class="st1" cx="1270.5" cy="796.7" r="5.8"/>
			<circle class="st1" cx="1246.2" cy="796.7" r="5.8"/>
			<circle class="st1" cx="1222" cy="796.7" r="5.8"/>
			<circle class="st1" cx="1197.8" cy="796.7" r="5.8"/>
			<circle class="st1" cx="1173.6" cy="796.7" r="5.8"/>
			<circle class="st1" cx="1149.3" cy="796.7" r="5.8"/>
		</g>
		<g class="st0">
			<circle class="st1" cx="1609.7" cy="820.9" r="5.8"/>
			<circle class="st1" cx="1585.5" cy="820.9" r="5.8"/>
			<circle class="st1" cx="1561.2" cy="820.9" r="5.8"/>
			<circle class="st1" cx="1537" cy="820.9" r="5.8"/>
			<circle class="st1" cx="1512.8" cy="820.9" r="5.8"/>
			<circle class="st1" cx="1488.5" cy="820.9" r="5.8"/>
			<circle class="st1" cx="1464.3" cy="820.9" r="5.8"/>
			<circle class="st1" cx="1440.1" cy="820.9" r="5.8"/>
			<circle class="st1" cx="1415.9" cy="820.9" r="5.8"/>
			<circle class="st1" cx="1391.6" cy="820.9" r="5.8"/>
			<circle class="st1" cx="1367.4" cy="820.9" r="5.8"/>
			<circle class="st1" cx="1343.2" cy="820.9" r="5.8"/>
			<circle class="st1" cx="1318.9" cy="820.9" r="5.8"/>
			<circle class="st1" cx="1270.5" cy="820.9" r="5.8"/>
			<circle class="st1" cx="1246.2" cy="820.9" r="5.8"/>
			<circle class="st1" cx="1222" cy="820.9" r="5.8"/>
			<circle class="st1" cx="1197.8" cy="820.9" r="5.8"/>
			<circle class="st1" cx="1173.6" cy="820.9" r="5.8"/>
			<circle class="st1" cx="1149.3" cy="820.9" r="5.8"/>
		</g>
		<g class="st0">
			<circle class="st1" cx="1609.7" cy="845.2" r="5.8"/>
			<circle class="st1" cx="1585.5" cy="845.2" r="5.8"/>
			<circle class="st1" cx="1561.2" cy="845.2" r="5.8"/>
			<circle class="st1" cx="1537" cy="845.2" r="5.8"/>
			<circle class="st1" cx="1512.8" cy="845.2" r="5.8"/>
			<circle class="st1" cx="1488.5" cy="845.2" r="5.8"/>
			<circle class="st1" cx="1464.3" cy="845.2" r="5.8"/>
			<circle class="st1" cx="1440.1" cy="845.2" r="5.8"/>
			<circle class="st1" cx="1415.9" cy="845.2" r="5.8"/>
			<circle class="st1" cx="1391.6" cy="845.2" r="5.8"/>
			<circle class="st1" cx="1367.4" cy="845.2" r="5.8"/>
			<circle class="st1" cx="1343.2" cy="845.2" r="5.8"/>
			<circle class="st1" cx="1318.9" cy="845.2" r="5.8"/>
			<circle class="st1" cx="1270.5" cy="845.2" r="5.8"/>
			<circle class="st1" cx="1246.2" cy="845.2" r="5.8"/>
			<circle class="st1" cx="1222" cy="845.2" r="5.8"/>
			<circle class="st1" cx="1197.8" cy="845.2" r="5.8"/>
			<circle class="st1" cx="1173.6" cy="845.2" r="5.8"/>
			<circle class="st1" cx="1149.3" cy="845.2" r="5.8"/>
		</g>
		<g class="st0">
			<circle class="st1" cx="1609.7" cy="869.4" r="5.8"/>
			<circle class="st1" cx="1585.5" cy="869.4" r="5.8"/>
			<circle class="st1" cx="1561.2" cy="869.4" r="5.8"/>
			<circle class="st1" cx="1537" cy="869.4" r="5.8"/>
			<circle class="st1" cx="1512.8" cy="869.4" r="5.8"/>
			<circle class="st1" cx="1488.5" cy="869.4" r="5.8"/>
			<circle class="st1" cx="1464.3" cy="869.4" r="5.8"/>
			<circle class="st1" cx="1440.1" cy="869.4" r="5.8"/>
			<circle class="st1" cx="1415.9" cy="869.4" r="5.8"/>
			<circle class="st1" cx="1391.6" cy="869.4" r="5.8"/>
			<circle class="st1" cx="1367.4" cy="869.4" r="5.8"/>
			<circle class="st1" cx="1343.2" cy="869.4" r="5.8"/>
			<circle class="st1" cx="1318.9" cy="869.4" r="5.8"/>
			<circle class="st1" cx="1270.5" cy="869.4" r="5.8"/>
			<circle class="st1" cx="1246.2" cy="869.4" r="5.8"/>
			<circle class="st1" cx="1222" cy="869.4" r="5.8"/>
			<circle class="st1" cx="1197.8" cy="869.4" r="5.8"/>
			<circle class="st1" cx="1173.6" cy="869.4" r="5.8"/>
			<circle class="st1" cx="1149.3" cy="869.4" r="5.8"/>
		</g>
		<g class="st0">
			<circle class="st1" cx="1609.7" cy="893.6" r="5.8"/>
			<circle class="st1" cx="1585.5" cy="893.6" r="5.8"/>
			<circle class="st1" cx="1561.2" cy="893.6" r="5.8"/>
			<circle class="st1" cx="1537" cy="893.6" r="5.8"/>
			<circle class="st1" cx="1512.8" cy="893.6" r="5.8"/>
			<circle class="st1" cx="1488.5" cy="893.6" r="5.8"/>
			<circle class="st1" cx="1464.3" cy="893.6" r="5.8"/>
			<circle class="st1" cx="1440.1" cy="893.6" r="5.8"/>
			<circle class="st1" cx="1415.9" cy="893.6" r="5.8"/>
			<circle class="st1" cx="1391.6" cy="893.6" r="5.8"/>
			<circle class="st1" cx="1367.4" cy="893.6" r="5.8"/>
			<circle class="st1" cx="1343.2" cy="893.6" r="5.8"/>
			<circle class="st1" cx="1318.9" cy="893.6" r="5.8"/>
			<circle class="st1" cx="1294.7" cy="893.6" r="5.8"/>
			<circle class="st1" cx="1270.5" cy="893.6" r="5.8"/>
			<circle class="st1" cx="1246.2" cy="893.6" r="5.8"/>
			<circle class="st1" cx="1222" cy="893.6" r="5.8"/>
			<circle class="st1" cx="1197.8" cy="893.6" r="5.8"/>
			<circle class="st1" cx="1173.6" cy="893.6" r="5.8"/>
			<circle class="st1" cx="1149.3" cy="893.6" r="5.8"/>
		</g>
		<g class="st0">
			<circle class="st1" cx="1609.7" cy="917.9" r="5.8"/>
			<circle class="st1" cx="1585.5" cy="917.9" r="5.8"/>
			<circle class="st1" cx="1561.2" cy="917.9" r="5.8"/>
			<circle class="st1" cx="1537" cy="917.9" r="5.8"/>
			<circle class="st1" cx="1512.8" cy="917.9" r="5.8"/>
			<circle class="st1" cx="1464.3" cy="917.9" r="5.8"/>
			<circle class="st1" cx="1440.1" cy="917.9" r="5.8"/>
			<circle class="st1" cx="1415.9" cy="917.9" r="5.8"/>
			<circle class="st1" cx="1391.6" cy="917.9" r="5.8"/>
			<circle class="st1" cx="1367.4" cy="917.9" r="5.8"/>
			<circle class="st1" cx="1343.2" cy="917.9" r="5.8"/>
			<circle class="st1" cx="1318.9" cy="917.9" r="5.8"/>
			<circle class="st1" cx="1294.7" cy="917.9" r="5.8"/>
			<circle class="st1" cx="1246.2" cy="917.9" r="5.8"/>
			<circle class="st1" cx="1222" cy="917.9" r="5.8"/>
			<circle class="st1" cx="1197.8" cy="917.9" r="5.8"/>
			<circle class="st1" cx="1173.6" cy="917.9" r="5.8"/>
			<circle class="st1" cx="1149.3" cy="917.9" r="5.8"/>
		</g>
		<g class="st0">
			<circle class="st1" cx="1609.7" cy="942.1" r="5.8"/>
			<circle class="st1" cx="1585.5" cy="942.1" r="5.8"/>
			<circle class="st1" cx="1561.2" cy="942.1" r="5.8"/>
			<circle class="st1" cx="1537" cy="942.1" r="5.8"/>
			<circle class="st1" cx="1512.8" cy="942.1" r="5.8"/>
			<circle class="st1" cx="1464.3" cy="942.1" r="5.8"/>
			<circle class="st1" cx="1440.1" cy="942.1" r="5.8"/>
			<circle class="st1" cx="1415.9" cy="942.1" r="5.8"/>
			<circle class="st1" cx="1391.6" cy="942.1" r="5.8"/>
			<circle class="st1" cx="1367.4" cy="942.1" r="5.8"/>
			<circle class="st1" cx="1343.2" cy="942.1" r="5.8"/>
			<circle class="st1" cx="1318.9" cy="942.1" r="5.8"/>
			<circle class="st1" cx="1294.7" cy="942.1" r="5.8"/>
			<circle class="st1" cx="1270.5" cy="942.1" r="5.8"/>
			<circle class="st1" cx="1246.2" cy="942.1" r="5.8"/>
			<circle class="st1" cx="1222" cy="942.1" r="5.8"/>
			<circle class="st1" cx="1197.8" cy="942.1" r="5.8"/>
			<circle class="st1" cx="1173.6" cy="942.1" r="5.8"/>
			<circle class="st1" cx="1149.3" cy="942.1" r="5.8"/>
		</g>
		<g class="st0">
			<circle class="st1" cx="1609.7" cy="966.3" r="5.8"/>
			<circle class="st1" cx="1585.5" cy="966.3" r="5.8"/>
			<circle class="st1" cx="1561.2" cy="966.3" r="5.8"/>
			<circle class="st1" cx="1537" cy="966.3" r="5.8"/>
			<circle class="st1" cx="1512.8" cy="966.3" r="5.8"/>
			<circle class="st1" cx="1464.3" cy="966.3" r="5.8"/>
			<circle class="st1" cx="1440.1" cy="966.3" r="5.8"/>
			<circle class="st1" cx="1415.9" cy="966.3" r="5.8"/>
			<circle class="st1" cx="1391.6" cy="966.3" r="5.8"/>
			<circle class="st1" cx="1367.4" cy="966.3" r="5.8"/>
			<circle class="st1" cx="1343.2" cy="966.3" r="5.8"/>
			<circle class="st1" cx="1318.9" cy="966.3" r="5.8"/>
			<circle class="st1" cx="1294.7" cy="966.3" r="5.8"/>
			<circle class="st1" cx="1270.5" cy="966.3" r="5.8"/>
			<circle class="st1" cx="1246.2" cy="966.3" r="5.8"/>
			<circle class="st1" cx="1222" cy="966.3" r="5.8"/>
			<circle class="st1" cx="1197.8" cy="966.3" r="5.8"/>
			<circle class="st1" cx="1173.6" cy="966.3" r="5.8"/>
			<circle class="st1" cx="1149.3" cy="966.3" r="5.8"/>
		</g>
		<g class="st0">
			<circle class="st1" cx="1609.7" cy="990.6" r="5.8"/>
			<circle class="st1" cx="1585.5" cy="990.6" r="5.8"/>
			<circle class="st1" cx="1561.2" cy="990.6" r="5.8"/>
			<circle class="st1" cx="1537" cy="990.6" r="5.8"/>
			<circle class="st1" cx="1512.8" cy="990.6" r="5.8"/>
			<circle class="st1" cx="1464.3" cy="990.6" r="5.8"/>
			<circle class="st1" cx="1440.1" cy="990.6" r="5.8"/>
			<circle class="st1" cx="1415.9" cy="990.6" r="5.8"/>
			<circle class="st1" cx="1391.6" cy="990.6" r="5.8"/>
			<circle class="st1" cx="1367.4" cy="990.6" r="5.8"/>
			<circle class="st1" cx="1343.2" cy="990.6" r="5.8"/>
			<circle class="st1" cx="1318.9" cy="990.6" r="5.8"/>
			<circle class="st1" cx="1294.7" cy="990.6" r="5.8"/>
			<circle class="st1" cx="1270.5" cy="990.6" r="5.8"/>
			<circle class="st1" cx="1246.2" cy="990.6" r="5.8"/>
			<circle class="st1" cx="1222" cy="990.6" r="5.8"/>
			<circle class="st1" cx="1197.8" cy="990.6" r="5.8"/>
			<circle class="st1" cx="1173.6" cy="990.6" r="5.8"/>
			<circle class="st1" cx="1149.3" cy="990.6" r="5.8"/>
		</g>
		<g class="st0">
			<circle class="st1" cx="1609.7" cy="1014.8" r="5.8"/>
			<circle class="st1" cx="1585.5" cy="1014.8" r="5.8"/>
			<circle class="st1" cx="1561.2" cy="1014.8" r="5.8"/>
			<circle class="st1" cx="1537" cy="1014.8" r="5.8"/>
			<circle class="st1" cx="1512.8" cy="1014.8" r="5.8"/>
			<circle class="st1" cx="1464.3" cy="1014.8" r="5.8"/>
			<circle class="st1" cx="1440.1" cy="1014.8" r="5.8"/>
			<circle class="st1" cx="1415.9" cy="1014.8" r="5.8"/>
			<circle class="st1" cx="1391.6" cy="1014.8" r="5.8"/>
			<circle class="st1" cx="1367.4" cy="1014.8" r="5.8"/>
			<circle class="st1" cx="1343.2" cy="1014.8" r="5.8"/>
			<circle class="st1" cx="1318.9" cy="1014.8" r="5.8"/>
			<circle class="st1" cx="1294.7" cy="1014.8" r="5.8"/>
			<circle class="st1" cx="1270.5" cy="1014.8" r="5.8"/>
			<circle class="st1" cx="1246.2" cy="1014.8" r="5.8"/>
			<circle class="st1" cx="1222" cy="1014.8" r="5.8"/>
			<circle class="st1" cx="1197.8" cy="1014.8" r="5.8"/>
			<circle class="st1" cx="1173.6" cy="1014.8" r="5.8"/>
			<circle class="st1" cx="1149.3" cy="1014.8" r="5.8"/>
		</g>
		<g class="st0">
			<circle class="st1" cx="1609.7" cy="1039" r="5.8"/>
			<circle class="st1" cx="1585.5" cy="1039" r="5.8"/>
			<circle class="st1" cx="1561.2" cy="1039" r="5.8"/>
			<circle class="st1" cx="1537" cy="1039" r="5.8"/>
			<circle class="st1" cx="1512.8" cy="1039" r="5.8"/>
			<circle class="st1" cx="1488.5" cy="1039" r="5.8"/>
			<circle class="st1" cx="1464.3" cy="1039" r="5.8"/>
			<circle class="st1" cx="1440.1" cy="1039" r="5.8"/>
			<circle class="st1" cx="1415.9" cy="1039" r="5.8"/>
			<circle class="st1" cx="1391.6" cy="1039" r="5.8"/>
			<circle class="st1" cx="1367.4" cy="1039" r="5.8"/>
			<circle class="st1" cx="1343.2" cy="1039" r="5.8"/>
			<circle class="st1" cx="1318.9" cy="1039" r="5.8"/>
			<circle class="st1" cx="1294.7" cy="1039" r="5.8"/>
			<circle class="st1" cx="1270.5" cy="1039" r="5.8"/>
			<circle class="st1" cx="1246.2" cy="1039" r="5.8"/>
			<circle class="st1" cx="1222" cy="1039" r="5.8"/>
			<circle class="st1" cx="1197.8" cy="1039" r="5.8"/>
			<circle class="st1" cx="1173.6" cy="1039" r="5.8"/>
			<circle class="st1" cx="1149.3" cy="1039" r="5.8"/>
		</g>
	</g>
	<path class="st2" d="M1273.7,322.7v47.2l32,214.3c0,11.6,3.7,22.3,10,31c6.3,8.7,15.1,15.5,25.4,19.2l27.5,198.7
		c-21.5,1.8-38.4,19.8-38.4,41.7V1024H1480V10.4c-8.1-3.5-16.9-5.8-25.7-7.2c-2.5-0.6-5-1-7.5-1.2c-2.1-0.1-4.3-0.2-6.4-0.3h-0.2
		c-0.3,0-0.6,0-1,0c-0.5,0-0.9,0-1.3,0c-0.2,0-0.4,0-0.6,0c-0.2,0-0.5,0-0.7,0c-0.4,0-1.1,0-1.5,0c-0.3,0-0.5,0-0.8,0h-0.2
		c-2,0.1-3.9,0.1-5.9,0.3c-2.7,0.3-5.3,0.7-7.9,1.3c-28.7,4.5-55.8,19.2-67.7,50.3c0,0-12.6,27.4-3,77c0,0,0,0.1,0,0.1
		c0.1,0.4,0.1,0.7,0.2,1.1c2.6,13.8,6.6,26.9,11.8,38.7c5.2,11.8,11.7,22.3,19.2,31.2v23.2c0,0-71.1,12.9-101.8,76.2
		C1275.5,307.7,1273.7,315.1,1273.7,322.7z"/>
</g>
</svg>
