<?xml version="1.0" encoding="utf-8"?>
<!-- Generator: Adobe Illustrator 25.3.1, SVG Export Plug-In . SVG Version: 6.00 Build 0)  -->
<svg version="1.1" id="Layer_1" xmlns="http://www.w3.org/2000/svg" xmlns:xlink="http://www.w3.org/1999/xlink" x="0px" y="0px"
	 viewBox="0 0 1440 1024" style="enable-background:new 0 0 1440 1024;" xml:space="preserve">
<style type="text/css">
	.st0{fill:#FF7300;}
	.st1{fill:#A92A04;}
</style>
<g>
	<circle class="st0" cx="1326.7" cy="6.9" r="6"/>
	<circle class="st0" cx="1301.5" cy="6.9" r="6"/>
	<circle class="st0" cx="1276.3" cy="6.9" r="6"/>
	<circle class="st0" cx="1251.1" cy="6.9" r="6"/>
	<circle class="st0" cx="1301.5" cy="32.1" r="6"/>
	<circle class="st0" cx="1276.3" cy="32.1" r="6"/>
	<circle class="st0" cx="1251.1" cy="32.1" r="6"/>
	<circle class="st0" cx="1301.5" cy="57.3" r="6"/>
	<circle class="st0" cx="1276.3" cy="57.3" r="6"/>
	<circle class="st0" cx="1251.1" cy="57.3" r="6"/>
	<circle class="st0" cx="1301.5" cy="82.5" r="6"/>
	<circle class="st0" cx="1276.3" cy="82.5" r="6"/>
	<circle class="st0" cx="1251.1" cy="82.5" r="6"/>
	<circle class="st0" cx="1301.5" cy="107.6" r="6"/>
	<circle class="st0" cx="1276.3" cy="107.6" r="6"/>
	<circle class="st0" cx="1251.1" cy="107.6" r="6"/>
	<circle class="st0" cx="1301.5" cy="132.8" r="6"/>
	<circle class="st0" cx="1276.3" cy="132.8" r="6"/>
	<circle class="st0" cx="1301.5" cy="158" r="6"/>
	<circle class="st0" cx="1276.3" cy="158" r="6"/>
	<circle class="st0" cx="1326.7" cy="183.2" r="6"/>
	<circle class="st0" cx="1301.5" cy="183.2" r="6"/>
	<circle class="st0" cx="1276.3" cy="183.2" r="6"/>
	<circle class="st0" cx="1326.7" cy="208.4" r="6"/>
	<circle class="st0" cx="1301.5" cy="208.4" r="6"/>
	<circle class="st0" cx="1276.3" cy="208.4" r="6"/>
	<circle class="st0" cx="1276.3" cy="233.6" r="6"/>
	<circle class="st0" cx="1251.1" cy="233.6" r="6"/>
	<circle class="st0" cx="1226" cy="233.6" r="6"/>
	<circle class="st0" cx="1251.1" cy="258.8" r="6"/>
	<circle class="st0" cx="1226" cy="258.8" r="6"/>
	<circle class="st0" cx="1200.8" cy="258.8" r="6"/>
	<circle class="st0" cx="1226" cy="284" r="6"/>
	<circle class="st0" cx="1200.8" cy="284" r="6"/>
	<circle class="st0" cx="1175.6" cy="284" r="6"/>
	<circle class="st0" cx="1226" cy="309.1" r="6"/>
	<circle class="st0" cx="1200.8" cy="309.1" r="6"/>
	<circle class="st0" cx="1175.6" cy="309.1" r="6"/>
	<circle class="st0" cx="1226" cy="334.3" r="6"/>
	<circle class="st0" cx="1200.8" cy="334.3" r="6"/>
	<circle class="st0" cx="1175.6" cy="334.3" r="6"/>
	<circle class="st0" cx="1226" cy="359.5" r="6"/>
	<circle class="st0" cx="1200.8" cy="359.5" r="6"/>
	<circle class="st0" cx="1175.6" cy="359.5" r="6"/>
	<circle class="st0" cx="1226" cy="384.7" r="6"/>
	<circle class="st0" cx="1200.8" cy="384.7" r="6"/>
	<circle class="st0" cx="1175.6" cy="384.7" r="6"/>
	<circle class="st0" cx="1226" cy="409.9" r="6"/>
	<circle class="st0" cx="1200.8" cy="409.9" r="6"/>
	<circle class="st0" cx="1175.6" cy="409.9" r="6"/>
	<circle class="st0" cx="1226" cy="435.1" r="6"/>
	<circle class="st0" cx="1200.8" cy="435.1" r="6"/>
	<circle class="st0" cx="1175.6" cy="435.1" r="6"/>
	<circle class="st0" cx="1226" cy="460.3" r="6"/>
	<circle class="st0" cx="1200.8" cy="460.3" r="6"/>
	<circle class="st0" cx="1175.6" cy="460.3" r="6"/>
	<circle class="st0" cx="1251.3" cy="485.5" r="6"/>
	<circle class="st0" cx="1226" cy="485.5" r="6"/>
	<circle class="st0" cx="1200.8" cy="485.5" r="6"/>
	<circle class="st0" cx="1175.6" cy="485.5" r="6"/>
	<circle class="st0" cx="1251.1" cy="510.7" r="6"/>
	<circle class="st0" cx="1226" cy="510.7" r="6"/>
	<circle class="st0" cx="1200.8" cy="510.7" r="6"/>
	<circle class="st0" cx="1175.6" cy="510.7" r="6"/>
	<circle class="st0" cx="1251.1" cy="535.8" r="6"/>
	<circle class="st0" cx="1226" cy="535.8" r="6"/>
	<circle class="st0" cx="1200.8" cy="535.8" r="6"/>
	<circle class="st0" cx="1251.1" cy="561" r="6"/>
	<circle class="st0" cx="1226" cy="561" r="6"/>
	<circle class="st0" cx="1200.8" cy="561" r="6"/>
	<circle class="st0" cx="1377.1" cy="586.2" r="6"/>
	<circle class="st0" cx="1351.9" cy="586.2" r="6"/>
	<circle class="st0" cx="1326.7" cy="586.2" r="6"/>
	<circle class="st0" cx="1301.5" cy="586.2" r="6"/>
	<circle class="st0" cx="1276.3" cy="586.2" r="6"/>
	<circle class="st0" cx="1251.1" cy="586.2" r="6"/>
	<circle class="st0" cx="1226" cy="586.2" r="6"/>
	<circle class="st0" cx="1200.8" cy="586.2" r="6"/>
	<circle class="st0" cx="1377.1" cy="611.4" r="6"/>
	<circle class="st0" cx="1351.9" cy="611.4" r="6"/>
	<circle class="st0" cx="1326.7" cy="611.4" r="6"/>
	<circle class="st0" cx="1301.5" cy="611.4" r="6"/>
	<circle class="st0" cx="1276.3" cy="611.4" r="6"/>
	<circle class="st0" cx="1251.1" cy="611.4" r="6"/>
	<circle class="st0" cx="1226" cy="611.4" r="6"/>
	<circle class="st0" cx="1200.8" cy="611.4" r="6"/>
	<circle class="st0" cx="1377.1" cy="636.6" r="6"/>
	<circle class="st0" cx="1351.9" cy="636.6" r="6"/>
	<circle class="st0" cx="1326.7" cy="636.6" r="6"/>
	<circle class="st0" cx="1301.5" cy="636.6" r="6"/>
	<circle class="st0" cx="1276.3" cy="636.6" r="6"/>
	<circle class="st0" cx="1251.1" cy="636.6" r="6"/>
	<circle class="st0" cx="1226" cy="636.6" r="6"/>
	<circle class="st0" cx="1200.8" cy="636.6" r="6"/>
	<circle class="st0" cx="1377.1" cy="661.8" r="6"/>
	<circle class="st0" cx="1351.9" cy="661.8" r="6"/>
	<circle class="st0" cx="1326.7" cy="661.8" r="6"/>
	<circle class="st0" cx="1301.5" cy="661.8" r="6"/>
	<circle class="st0" cx="1276.3" cy="661.8" r="6"/>
	<circle class="st0" cx="1251.1" cy="661.8" r="6"/>
	<circle class="st0" cx="1226" cy="661.8" r="6"/>
	<circle class="st0" cx="1377.1" cy="687" r="6"/>
	<circle class="st0" cx="1351.9" cy="687" r="6"/>
	<circle class="st0" cx="1326.7" cy="687" r="6"/>
	<circle class="st0" cx="1301.5" cy="687" r="6"/>
	<circle class="st0" cx="1276.3" cy="687" r="6"/>
	<circle class="st0" cx="1251.1" cy="687" r="6"/>
	<circle class="st0" cx="1377.1" cy="712.2" r="6"/>
	<circle class="st0" cx="1351.9" cy="712.2" r="6"/>
	<circle class="st0" cx="1326.7" cy="712.2" r="6"/>
	<circle class="st0" cx="1301.5" cy="712.2" r="6"/>
	<circle class="st0" cx="1276.3" cy="712.2" r="6"/>
	<circle class="st0" cx="1251.1" cy="712.2" r="6"/>
	<circle class="st0" cx="1377.1" cy="737.4" r="6"/>
	<circle class="st0" cx="1351.9" cy="737.4" r="6"/>
	<circle class="st0" cx="1326.7" cy="737.4" r="6"/>
	<circle class="st0" cx="1301.5" cy="737.4" r="6"/>
	<circle class="st0" cx="1276.3" cy="737.4" r="6"/>
	<circle class="st0" cx="1251.1" cy="737.4" r="6"/>
	<circle class="st0" cx="1377.1" cy="762.5" r="6"/>
	<circle class="st0" cx="1351.9" cy="762.5" r="6"/>
	<circle class="st0" cx="1326.7" cy="762.5" r="6"/>
	<circle class="st0" cx="1301.5" cy="762.5" r="6"/>
	<circle class="st0" cx="1276.3" cy="762.5" r="6"/>
	<circle class="st0" cx="1251.1" cy="762.5" r="6"/>
	<circle class="st0" cx="1377.1" cy="787.7" r="6"/>
	<circle class="st0" cx="1351.9" cy="787.7" r="6"/>
	<circle class="st0" cx="1326.7" cy="787.7" r="6"/>
	<circle class="st0" cx="1301.5" cy="787.7" r="6"/>
	<circle class="st0" cx="1276.3" cy="787.7" r="6"/>
	<circle class="st0" cx="1377.1" cy="812.9" r="6"/>
	<circle class="st0" cx="1351.9" cy="812.9" r="6"/>
	<circle class="st0" cx="1326.7" cy="812.9" r="6"/>
	<circle class="st0" cx="1301.5" cy="812.9" r="6"/>
	<circle class="st0" cx="1276.3" cy="812.9" r="6"/>
	<circle class="st0" cx="1377.1" cy="838.1" r="6"/>
	<circle class="st0" cx="1351.9" cy="838.1" r="6"/>
	<circle class="st0" cx="1326.7" cy="838.1" r="6"/>
	<circle class="st0" cx="1301.5" cy="838.1" r="6"/>
	<circle class="st0" cx="1276.3" cy="838.1" r="6"/>
	<circle class="st0" cx="1377.1" cy="863.3" r="6"/>
	<circle class="st0" cx="1351.9" cy="863.3" r="6"/>
	<circle class="st0" cx="1326.7" cy="863.3" r="6"/>
	<circle class="st0" cx="1301.5" cy="863.3" r="6"/>
	<circle class="st0" cx="1276.3" cy="863.3" r="6"/>
	<circle class="st0" cx="1377.1" cy="888.5" r="6"/>
	<circle class="st0" cx="1351.9" cy="888.5" r="6"/>
	<circle class="st0" cx="1326.7" cy="888.5" r="6"/>
	<circle class="st0" cx="1301.5" cy="888.5" r="6"/>
	<circle class="st0" cx="1276.3" cy="888.5" r="6"/>
	<circle class="st0" cx="1301.5" cy="913.7" r="6"/>
	<circle class="st0" cx="1276.3" cy="913.7" r="6"/>
	<circle class="st0" cx="1251.1" cy="913.7" r="6"/>
	<circle class="st0" cx="1276.3" cy="938.9" r="6"/>
	<circle class="st0" cx="1251.1" cy="938.9" r="6"/>
	<circle class="st0" cx="1226" cy="938.9" r="6"/>
	<circle class="st0" cx="1276.3" cy="964" r="6"/>
	<circle class="st0" cx="1251.1" cy="964" r="6"/>
	<circle class="st0" cx="1226" cy="964" r="6"/>
	<circle class="st0" cx="1276.3" cy="989.2" r="6"/>
	<circle class="st0" cx="1251.1" cy="989.2" r="6"/>
	<circle class="st0" cx="1226" cy="989.2" r="6"/>
	<circle class="st0" cx="1276.3" cy="1014.4" r="6"/>
	<circle class="st0" cx="1251.1" cy="1014.4" r="6"/>
	<circle class="st0" cx="1226" cy="1014.4" r="6"/>
</g>
<path class="st1" d="M1334.1,0c-9.8,8.1-17.9,18.8-23.1,32.5c0,0-13.1,28.6-3.1,80.5l0,0c0,0,0,0,0,0.1c0.1,0.4,0.1,0.8,0.2,1.1
	c5.4,28.9,16.6,54.6,32.3,73v24.3c0,0-74.3,13.5-106.4,79.6c-3.4,7.1-5.3,14.9-5.3,22.8v49.4l32.2,215.1h99.7
	c13.7,0,24.9,11.1,24.9,24.9v279.1c0,13.7-11.1,24.9-24.9,24.9h-41.9c-27.3,1.9-30.6,25-30.9,27.9v88.8H1440V0H1334.1z"/>
</svg>
