<?xml version="1.0" encoding="utf-8"?>
<!-- Generator: Adobe Illustrator 25.3.1, SVG Export Plug-In . SVG Version: 6.00 Build 0)  -->
<svg version="1.1" id="Layer_1" xmlns="http://www.w3.org/2000/svg" xmlns:xlink="http://www.w3.org/1999/xlink" x="0px" y="0px"
	 viewBox="0 0 538.6 496.1" style="enable-background:new 0 0 538.6 496.1;" xml:space="preserve">
<style type="text/css">
	.st0{fill:#FFE600;}
	.st1{fill:#A92A04;}
	.st2{fill:#E24305;}
	.st3{fill:#FFFFFF;}
</style>
<g>
	<g>
		<path class="st0" d="M278.1,383c-1-4-4.5-6.9-8.8-6.9s-7.8,2.9-8.8,6.9h-92.3v4.3h92.3c1,4,4.5,6.9,8.8,6.9s7.8-2.9,8.8-6.9h92.3
			V383H278.1z"/>
		<path class="st0" d="M269.3,477.3c-4.3,0-7.8,2.9-8.8,6.9h-92.3v4.3h92.3c1,4,4.5,6.9,8.8,6.9s7.8-2.9,8.8-6.9h92.3v-4.3h-92.3
			C277.1,480.2,273.5,477.3,269.3,477.3z"/>
	</g>
	<g>
		<path class="st0" d="M129.4,456.8c-1.8-2-2.7-4.9-2.7-8.7v-2.7h7v3.2c0,3,1.3,4.6,3.8,4.6c1.2,0,2.2-0.4,2.8-1.1
			c0.6-0.7,1-1.9,1-3.6c0-2-0.4-3.7-1.3-5.2c-0.9-1.5-2.5-3.3-5-5.4c-3-2.7-5.2-5.1-6.4-7.3c-1.2-2.2-1.8-4.6-1.8-7.3
			c0-3.7,0.9-6.6,2.8-8.6c1.9-2,4.6-3,8.2-3c3.5,0,6.2,1,8,3s2.7,4.9,2.7,8.7v1.9h-7V423c0-1.6-0.3-2.8-0.9-3.5
			c-0.6-0.7-1.5-1.1-2.7-1.1c-2.5,0-3.7,1.5-3.7,4.5c0,1.7,0.5,3.3,1.4,4.8c0.9,1.5,2.6,3.3,5,5.4c3.1,2.7,5.2,5.1,6.4,7.3
			c1.2,2.2,1.7,4.8,1.7,7.7c0,3.8-0.9,6.8-2.8,8.8c-1.9,2.1-4.7,3.1-8.3,3.1C133.9,459.8,131.2,458.8,129.4,456.8z"/>
		<path class="st0" d="M151.9,412.3H172v6.7h-12.7v12.4h10.1v6.7h-10.1v14.4H172v6.7h-20.1V412.3z"/>
		<path class="st0" d="M175.3,412.3h10.8c3.7,0,6.4,1,8.2,2.9c1.8,2,2.7,4.8,2.7,8.6v4.6c0,3.8-0.9,6.7-2.7,8.6
			c-1.8,2-4.6,2.9-8.2,2.9h-3.5v19.1h-7.4V412.3z M186.1,433.4c1.2,0,2.1-0.3,2.7-1c0.6-0.7,0.9-1.8,0.9-3.4v-5.6
			c0-1.6-0.3-2.7-0.9-3.4c-0.6-0.7-1.5-1-2.7-1h-3.5v14.4H186.1z"/>
		<path class="st0" d="M207,419h-7.7v-6.7H222v6.7h-7.7v40.2H207V419z"/>
		<path class="st0" d="M225.1,412.3h20.1v6.7h-12.7v12.4h10.1v6.7h-10.1v14.4h12.7v6.7h-20.1V412.3z"/>
		<path class="st0" d="M248.5,412.3H259l4.7,33.5h0.1l4.7-33.5H279v46.8h-7v-35.5h-0.1l-5.4,35.5h-6.2l-5.4-35.5h-0.1v35.5h-6.4
			V412.3z"/>
		<path class="st0" d="M283.1,412.3h11.1c3.8,0,6.6,0.9,8.3,2.6c1.7,1.8,2.6,4.5,2.6,8.1v1.9c0,2.4-0.4,4.4-1.2,5.9
			c-0.8,1.5-2,2.6-3.6,3.3v0.1c3.7,1.2,5.5,4.5,5.5,9.8v4c0,3.6-0.9,6.4-2.8,8.3c-1.9,1.9-4.7,2.8-8.3,2.8h-11.6V412.3z
			 M293.3,431.4c1.5,0,2.6-0.4,3.3-1.1c0.7-0.8,1.1-2,1.1-3.8v-2.6c0-1.7-0.3-2.9-0.9-3.7c-0.6-0.8-1.6-1.1-2.8-1.1h-3.5v12.4H293.3
			z M294.7,452.5c1.3,0,2.3-0.3,2.9-1c0.6-0.7,0.9-1.9,0.9-3.6v-4.1c0-2.1-0.4-3.6-1.1-4.5c-0.7-0.8-2-1.2-3.6-1.2h-3.3v14.4H294.7z
			"/>
		<path class="st0" d="M309.2,412.3h20.1v6.7h-12.7v12.4h10.1v6.7h-10.1v14.4h12.7v6.7h-20.1V412.3z"/>
		<path class="st0" d="M332.6,412.3h10.9c3.8,0,6.6,0.9,8.3,2.6c1.7,1.8,2.6,4.5,2.6,8.1v2.9c0,4.9-1.6,7.9-4.8,9.2v0.1
			c1.8,0.5,3,1.6,3.8,3.3c0.7,1.7,1.1,3.9,1.1,6.6v8.2c0,1.3,0,2.4,0.1,3.2c0.1,0.8,0.3,1.6,0.7,2.4h-7.5c-0.3-0.8-0.4-1.5-0.5-2.1
			c-0.1-0.7-0.1-1.9-0.1-3.6v-8.6c0-2.1-0.3-3.6-1-4.5c-0.7-0.8-1.9-1.3-3.6-1.3H340v20.1h-7.4V412.3z M342.6,432.4
			c1.5,0,2.6-0.4,3.3-1.1c0.7-0.8,1.1-2,1.1-3.8v-3.6c0-1.7-0.3-2.9-0.9-3.7c-0.6-0.8-1.6-1.1-2.8-1.1H340v13.4H342.6z"/>
		<path class="st0" d="M364.8,454.1c0-3.3,0.5-6.2,1.6-8.6c1.1-2.4,3-5,5.8-7.9c2.7-2.9,4.6-5.4,5.7-7.4c1-2.1,1.6-4.2,1.6-6.4
			c0-2-0.3-3.4-1-4.2c-0.6-0.8-1.6-1.2-2.8-1.2c-2.5,0-3.8,1.5-3.8,4.6v5h-7v-4.6c0-3.8,0.9-6.7,2.8-8.7s4.6-3,8.2-3
			c3.6,0,6.3,1,8.2,3s2.8,4.9,2.8,8.7c0,2.9-0.7,5.6-2,8.4c-1.4,2.7-3.7,5.8-7.1,9.4c-2.2,2.3-3.7,4.2-4.4,5.7
			c-0.8,1.5-1.1,3-1.1,4.7v1h14v6.7h-21.3V454.1z"/>
		<path class="st0" d="M392.8,456.8c-1.9-2-2.8-4.9-2.8-8.6v-3.8h7v4.1c0,3.1,1.3,4.6,3.8,4.6c1.2,0,2.2-0.4,2.8-1.2
			c0.6-0.8,1-2.2,1-4.1V444c0-2.1-0.4-3.7-1.1-4.6c-0.8-0.9-2-1.4-3.7-1.4h-2.5v-6.7h2.7c1.5,0,2.6-0.4,3.3-1.1
			c0.7-0.8,1.1-2,1.1-3.8V423c0-1.6-0.3-2.8-1-3.5c-0.7-0.8-1.6-1.1-2.7-1.1c-2.4,0-3.5,1.5-3.5,4.3v3.1h-7v-2.5
			c0-3.7,0.9-6.6,2.8-8.6c1.9-2,4.5-3,8-3c3.5,0,6.2,1,8,3c1.8,2,2.7,4.9,2.7,8.6v1.7c0,2.5-0.4,4.6-1.3,6.1
			c-0.8,1.5-2.2,2.6-3.9,3.3v0.1c1.9,0.7,3.3,1.9,4.1,3.5s1.3,3.7,1.3,6.2v4.1c0,3.7-0.9,6.6-2.8,8.6s-4.6,3-8.2,3
			C397.4,459.8,394.7,458.8,392.8,456.8z"/>
	</g>
</g>
<g>
	<path class="st1" d="M189,341l18.2-21.8c0.9-1.1,1.6-2,1.9-2.6c0.3-0.6,0.5-1.2,0.5-2c0-0.8-0.3-1.4-0.6-1.9
		c-0.5-0.5-0.9-0.6-1.9-0.6s-1.6,0.3-2,1.1c-0.5,0.8-0.6,2-0.6,3.6h-13.7v-0.3c0-5.1,1.4-9.3,4.4-12.3c1.4-1.4,3.3-2.6,5.3-3.3
		c2-0.8,4.4-1.1,7-1.1c5,0,9,1.4,12,4.2c3,2.6,4.5,6.2,4.5,10.7c0,2.3-0.5,4.5-1.6,6.4c-1.1,1.9-2.8,3.9-5.3,5.9l-3.4,3h10.3v11.2
		H189V341z"/>
	<path class="st1" d="M232,320.9c0-6.5,1.6-11.7,4.8-15.6c1.6-1.9,3.4-3.3,5.6-4.2c2.2-0.9,4.7-1.4,7.3-1.4c5.4,0,9.8,1.9,12.9,5.6
		c3.1,3.7,4.7,8.9,4.7,15.6c0,6.7-1.6,11.8-4.7,15.6c-3.1,3.7-7.3,5.6-12.9,5.6c-5.4,0-9.8-1.9-12.9-5.8
		C233.5,332.6,232,327.5,232,320.9z M246.3,320.9c0,2.8,0.3,5,0.8,6.5c0.5,1.4,1.4,2,2.5,2s2-0.6,2.5-2c0.5-1.4,0.8-3.6,0.8-6.5
		c0-3-0.3-5.1-0.8-6.5c-0.5-1.4-1.4-2-2.5-2c-1.1,0-2,0.6-2.5,2C246.4,315.8,246.3,318,246.3,320.9z"/>
	<path class="st1" d="M272.1,341l18.2-21.8c0.9-1.1,1.6-2,1.9-2.6c0.3-0.6,0.5-1.2,0.5-2c0-0.8-0.2-1.4-0.6-1.9
		c-0.5-0.5-0.9-0.6-1.9-0.6c-0.9,0-1.6,0.3-2,1.1c-0.5,0.8-0.6,2-0.6,3.6h-13.7v-0.3c0-5.1,1.4-9.3,4.4-12.3
		c1.4-1.4,3.3-2.6,5.3-3.3c2-0.8,4.4-1.1,7-1.1c5,0,9,1.4,12,4.2c3,2.6,4.5,6.2,4.5,10.7c0,2.3-0.5,4.5-1.6,6.4s-2.8,3.9-5.3,5.9
		l-3.4,3H307v11.2h-34.9V341z"/>
	<path class="st1" d="M330.1,315.6h0.6c1.2,0,2.3-0.3,3-0.8c0.6-0.5,0.9-1.1,0.9-2c0-0.8-0.2-1.2-0.6-1.7c-0.5-0.5-0.9-0.8-1.7-0.8
		c-0.6,0-1.2,0.3-1.6,0.8c-0.3,0.5-0.6,1.2-0.6,2.2h-13.5c0-4.5,1.6-7.9,4.2-10.3c2.6-2.3,6.7-3.4,11.8-3.4c4.7,0,8.4,1.1,11.2,3.1
		c2.8,2.2,4.2,4.8,4.2,8.2c0,2.2-0.5,3.9-1.4,5.1c-0.9,1.4-2.5,2.3-4.4,3.1c2.3,0.5,4.2,1.6,5.4,3.3c1.2,1.6,1.9,3.7,1.9,6.2
		c0,4-1.6,7.2-4.5,9.6c-3.1,2.3-7.2,3.6-12.3,3.6c-5.4,0-9.8-1.4-13.1-4.2c-3.1-2.8-4.7-6.5-4.7-11.4v-0.2h14.2
		c0,1.4,0.3,2.3,0.8,3.1c0.5,0.8,1.2,1.1,2.2,1.1c0.9,0,1.7-0.3,2.3-0.9c0.6-0.6,0.9-1.4,0.9-2.3c0-1.1-0.3-2-1.1-2.6
		c-0.6-0.6-1.7-0.9-3-0.9h-0.6c-0.2,0-0.3,0-0.5,0v-7.9H330.1z"/>
</g>
<g>
	<path class="st2" d="M180.5,27.1h16.2v5.6h-10.1v10.9h7.9v5.6h-7.9v17h-6.1L180.5,27.1L180.5,27.1z"/>
	<path class="st2" d="M203.7,64c-1.6-1.7-2.4-4.1-2.4-7.2V36.3c0-3.1,0.8-5.5,2.4-7.2c1.6-1.7,3.9-2.6,6.9-2.6s5.3,0.9,6.9,2.6
		c1.6,1.7,2.4,4.1,2.4,7.2v20.5c0,3.1-0.8,5.5-2.4,7.2c-1.6,1.7-3.9,2.6-6.9,2.6C207.6,66.6,205.3,65.8,203.7,64z M213.8,57.2V35.9
		c0-2.6-1.1-3.8-3.2-3.8c-2.1,0-3.2,1.3-3.2,3.8v21.3c0,2.6,1.1,3.8,3.2,3.8S213.8,59.8,213.8,57.2z"/>
	<path class="st2" d="M227.5,64c-1.6-1.7-2.4-4.1-2.4-7.2V36.3c0-3.1,0.8-5.5,2.4-7.2c1.6-1.7,3.9-2.6,6.9-2.6s5.3,0.9,6.9,2.6
		c1.6,1.7,2.4,4.1,2.4,7.2v20.5c0,3.1-0.8,5.5-2.4,7.2c-1.6,1.7-3.9,2.6-6.9,2.6S229.1,65.8,227.5,64z M237.6,57.2V35.9
		c0-2.6-1.1-3.8-3.2-3.8c-2.1,0-3.2,1.3-3.2,3.8v21.3c0,2.6,1.1,3.8,3.2,3.8S237.6,59.8,237.6,57.2z"/>
	<path class="st2" d="M250.9,64.1c-1.5-1.7-2.3-4.1-2.3-7.3v-2.2h5.8v2.7c0,2.5,1.1,3.8,3.2,3.8c1,0,1.8-0.3,2.4-0.9
		c0.5-0.6,0.8-1.6,0.8-3c0-1.6-0.4-3.1-1.1-4.3s-2.1-2.7-4.1-4.5c-2.5-2.2-4.3-4.2-5.3-6s-1.5-3.8-1.5-6.1c0-3.1,0.8-5.5,2.3-7.2
		c1.6-1.7,3.8-2.5,6.8-2.5c2.9,0,5.1,0.8,6.7,2.5c1.5,1.7,2.3,4.1,2.3,7.3V38H261v-2c0-1.3-0.3-2.3-0.8-2.9
		c-0.5-0.6-1.3-0.9-2.3-0.9c-2,0-3.1,1.2-3.1,3.7c0,1.4,0.4,2.7,1.1,4c0.8,1.2,2.1,2.7,4.1,4.5c2.6,2.2,4.3,4.2,5.3,6.1
		c1,1.8,1.4,4,1.4,6.4c0,3.2-0.8,5.6-2.4,7.3c-1.6,1.7-3.9,2.6-6.9,2.6C254.7,66.6,252.5,65.8,250.9,64.1z"/>
	<path class="st2" d="M272.1,27.1h9.2c3.2,0,5.5,0.7,6.9,2.2s2.2,3.7,2.2,6.8v1.6c0,2-0.3,3.6-1,4.9c-0.6,1.3-1.6,2.2-3,2.7v0.1
		c3,1,4.6,3.7,4.6,8.1v3.3c0,3-0.8,5.3-2.4,6.9s-3.9,2.4-6.9,2.4h-9.6L272.1,27.1L272.1,27.1z M280.6,43c1.2,0,2.1-0.3,2.8-0.9
		c0.6-0.6,0.9-1.7,0.9-3.2v-2.2c0-1.4-0.2-2.4-0.8-3.1c-0.5-0.6-1.3-0.9-2.4-0.9h-3V43H280.6z M281.7,60.5c1.1,0,1.9-0.3,2.4-0.9
		c0.5-0.6,0.8-1.6,0.8-3v-3.4c0-1.8-0.3-3-0.9-3.7s-1.6-1-3-1h-2.7v12C278.3,60.5,281.7,60.5,281.7,60.5z"/>
	<path class="st2" d="M301.2,27.1h8.3l6.3,39h-6.1l-1.1-7.7v0.1h-7l-1.1,7.6h-5.7L301.2,27.1z M307.9,53.1l-2.7-19.3h-0.1l-2.7,19.3
		H307.9z"/>
	<path class="st2" d="M320.8,27.1h6.1v33.4H337v5.6h-16.2V27.1z"/>
	<path class="st2" d="M341.9,27.1h6.1v33.4h10.1v5.6h-16.2V27.1z"/>
</g>
<g>
	<path class="st3" d="M219.4,0.7h3.3l5.3,13.6h-3.3l-1.1-2.9h-5.3l-1,2.9h-3.1L219.4,0.7z M221.4,4.7c-0.1-0.2-0.2-0.8-0.4-1.8
		c-0.2,1.1-0.3,1.7-0.4,1.9l-1.5,4.3h3.8L221.4,4.7z"/>
	<path class="st3" d="M236.9,14.3l-3.6-6.4v6.4h-2.9V0.7h4.2c3.3,0,5,1.3,5,3.9c0,1.9-1.3,3.3-3,3.6l3.8,6.2L236.9,14.3L236.9,14.3z
		 M233.8,6.5c1.8,0,2.9-0.2,2.9-1.7c0-1.6-1-1.8-2.9-1.8h-0.4v3.6h0.4V6.5z"/>
	<path class="st3" d="M244.2,0.7h3l2.6,8c0.1,0.3,0.2,0.9,0.4,1.8c0.1-1,0.2-1.6,0.3-1.9l2.7-8h3l2.1,13.6h-2.8l-1-8.2
		c-0.1-0.7-0.2-1.5-0.2-2.2c0-0.2,0-0.3,0-0.5c-0.2,1.1-0.4,1.9-0.5,2.3l-2.9,8.7h-1.6l-2.8-8.7c-0.1-0.2-0.2-0.9-0.5-2.3v0.4
		c0,1-0.1,1.7-0.2,2.4l-1,8.2H242L244.2,0.7z"/>
	<path class="st3" d="M261.4,0.7h8v2.5h-5.1V6h5.1v2.5h-5.1v3.4h5.1v2.5h-8V0.7z"/>
	<path class="st3" d="M273.2,0.7h3l6,7.9c0.3,0.4,0.8,1.2,1.2,2.4c-0.2-1.2-0.2-2-0.2-2.7V0.7h2.8v13.6h-2.9L277,6.2
		c-0.3-0.4-0.8-1.3-1.2-2.4c0.2,1.1,0.2,2,0.2,2.7v7.8h-2.8V0.7z"/>
	<path class="st3" d="M290,0.7h2.9v13.6H290V0.7z"/>
	<path class="st3" d="M300.5,0.7h3.3l5.3,13.6h-3.3l-1.1-2.9h-5.3l-1,2.9h-3.1L300.5,0.7z M302.5,4.7c-0.1-0.2-0.2-0.8-0.4-1.8
		c-0.2,1.1-0.3,1.7-0.4,1.9l-1.5,4.3h3.8L302.5,4.7z"/>
	<path class="st3" d="M311.5,0.7h3l6,7.9c0.3,0.4,0.8,1.2,1.2,2.4c-0.2-1.2-0.2-2-0.2-2.7V0.7h2.8v13.6h-2.9l-6.2-8.1
		c-0.3-0.4-0.8-1.3-1.2-2.4c0.2,1.1,0.2,2,0.2,2.7v7.8h-2.8V0.7H311.5z"/>
</g>
<g>
	<g>
		<path class="st0" d="M209.1,203.7c-2.9-2.9-6.1-5.1-9.5-6.6s-6.8-2.3-10.2-2.3c-5.6,0-10,1.7-13.4,5.2c-3.4,3.4-5.1,8-5.1,13.7
			s1.6,10.2,4.9,13.4c3.2,3.3,7.6,4.9,13,4.9c3.2,0,6.6-0.7,10.1-2.1c3.6-1.6,7.3-3.9,11-6.7l-1.1,35.6c-4,1.6-7.7,2.7-11.1,3.3
			c-3.6,0.8-7.3,1.2-11.1,1.2c-4.6,0-9.1-0.5-13.4-1.6c-4.1-0.9-8-2.3-11.5-4.3c-8.4-5-14.7-11.1-19-18.3
			c-4.3-7.4-6.5-15.9-6.5-25.4c0-7.3,1.2-13.8,3.7-19.6c2.3-5.9,5.9-11.2,10.6-16c4.7-4.7,10.1-8.2,16.3-10.6
			c6.2-2.4,12.9-3.6,20.1-3.6c3.8,0,7.6,0.4,11.5,1.2c3.8,0.9,7.4,2.1,10.8,3.6v35H209.1z"/>
	</g>
	<g>
		<path class="st0" d="M220.3,217.5v-51.4h34.1v51.6c0,6.1,0.7,10.2,2.1,12.4c1.4,2.3,3.9,3.4,7.3,3.4s5.8-1.1,7.3-3.4
			c1.5-2.4,2.3-6.5,2.3-12.4v-51.6h34.1v51.4c0,6.9-0.4,12.4-1.3,16.6c-1,4.6-2.4,8.2-4.3,11c-3.8,6-9,10.5-15.5,13.5
			c-6.7,3.2-14.2,4.8-22.5,4.8c-8.3,0-15.9-1.6-22.6-4.8c-6.5-3.1-11.6-7.6-15.5-13.5c-1.8-2.8-3.2-6.4-4.1-10.9
			C220.8,230,220.3,224.5,220.3,217.5z"/>
	</g>
	<g>
		<path class="st0" d="M320.4,260.8v-94.7h40.7c14.3,0,24.8,2.8,31.4,8.3c6.6,5.4,10,14.2,10,26.2c0,11.1-3,19.3-8.9,24.4
			c-6,5.2-15.5,7.8-28.4,7.8h-10.7v27.9h-34.1V260.8z M354.7,192.5v15.7h5.3c3.3,0,5.8-0.7,7.4-2.1c1.8-1.3,2.7-3.2,2.7-5.7
			c0-2.4-0.9-4.3-2.7-5.8c-1.6-1.4-4.1-2.1-7.4-2.1L354.7,192.5L354.7,192.5z"/>
	</g>
</g>
<g>
	<path class="st3" d="M88.4,72.4c3-0.5,5.6-1.7,7.9-3.7c2.2-2,4-4.3,5.3-6.9c1.3-2.8,2-5.7,2.1-8.8c0.1-3-0.5-6-1.8-8.9
		c-0.7-1.9-1.8-3.6-3.3-5.1s-3.1-2.8-4.8-3.7c-2.2-2-4.6-3.6-7.4-4.7s-5.6-1.7-8.5-1.9c-3.1-0.3-6.1,0-8.9,0.8
		c-2.9,0.8-5.5,1.9-8.1,3.4c-2.5,1.5-4.9,3.2-7.2,5.2c-2.2,2-4.4,4.1-6.3,6.2c-8.4,9.1-15.8,19-22.3,29.5S13,95.3,8.3,106.9
		c-0.2,0.6-0.4,1.1-0.6,1.7s-0.5,1.1-0.8,1.7c0.2-0.7,0.4-1.5,0.6-2.2s0.4-1.5,0.6-2.2c1.4-4.7,3.1-9.2,5-13.6s4-8.7,6.2-12.9
		c4.7-8.5,9.9-16.4,15.8-24c1.5-1.9,3-3.8,4.6-5.7c1.5-1.9,3.1-3.8,4.7-5.7c1.7-2.1,3.4-4,5.3-6c1.8-1.9,3.8-3.6,6-5.1
		c-3.5,2-6.6,4.4-9.3,7.3c-2.8,2.9-5.4,5.9-7.9,8.9c-2.7,3.2-5.3,6.4-7.7,9.6c-2.4,3.2-4.7,6.6-6.9,10.1
		c-4.5,6.7-8.4,13.8-11.8,21.2s-6,15-7.9,23c-0.5,2.2-0.9,4.3-1.3,6.5s-0.7,4.3-1,6.5c-0.2,1.3-0.3,2.6-0.4,3.8
		c0,1.2,0.1,2.4,0.5,3.6c0.8,3.6,2.7,6.5,5.7,8.8c2.9,2.3,6.4,3.7,10.3,4.1h1.5c1.6,0.5,3.2,0.8,4.8,1.1c1.6,0.3,3.2,0.4,4.8,0.3
		c3.8-0.1,7.5-1,11.1-2.7c3-0.7,5.9-2,8.7-3.9c2.8-1.8,5.3-3.7,7.4-5.5c2.9-2.6,5.3-5.5,7.3-8.6s3.6-6.5,4.9-10.2
		c0-0.2-0.1-0.2-0.3,0c-1.3,3.4-3.1,6.5-5.3,9.5c-2.2,2.9-4.7,5.6-7.4,8.1c-0.8,0.7-1.7,1.4-2.6,2.1c-0.9,0.7-1.8,1.3-2.7,1.8
		c0.3-0.2,0.6-0.4,0.8-0.7c0.3-0.3,0.6-0.5,0.8-0.7c3-2.8,5.8-5.8,8.4-9.1c2.6-3.2,4.7-6.8,6.3-10.7c0.7-1.7,1.4-3.6,1.9-5.6
		c0.5-2.1,0.6-4,0.2-5.9s-1.2-3.5-2.5-4.8c-1.3-1.4-2.8-2.4-4.5-3.2c-1.7-0.8-3.6-1.3-5.5-1.5s-3.7-0.1-5.3,0.3
		c-0.7,0.2-1.3,0.6-1.8,1.1c-0.4,0.6-0.6,1.2-0.6,1.8c0.1,0.1,0.1,0.2,0.1,0.4c0.1,0.7,0.4,1.5,0.8,2.2c0.4,0.7,1,1.3,1.6,1.9
		c0,0.4,0,0.7-0.1,0.8c-0.1,0.7-0.2,1.3-0.4,1.9s-0.4,1.2-0.6,1.9c-0.5,1.3-1,2.6-1.5,3.9c-0.6,1.3-1.2,2.6-2,3.9
		c-1.4,2.3-3,4.5-4.7,6.6s-3.5,4-5.4,5.9c-2.2,2.2-4.5,4.2-7.2,6.1c-2.6,1.9-5.4,3.1-8.4,3.6l-0.3-0.3l-0.1-0.1l-0.1-0.3H20
		l-0.3-0.6c-0.2-1.3-0.2-2.6,0-3.9c0.2-1.3,0.5-2.6,0.8-3.9c0.7-2.4,1.6-4.9,2.5-7.3s1.8-4.9,2.9-7.3c1.9-4.8,3.9-9.5,6.2-14.1
		c2.2-4.6,4.6-9.2,7.2-13.7c2.4-4.4,5-8.7,7.8-12.9c2.8-4.2,5.6-8.4,8.6-12.5c3-4.1,6.1-8.1,9.4-11.9c1.5-1.8,3.1-3.5,4.8-5.2
		c1.7-1.7,3.6-3.1,5.8-4.2c0.8-0.6,1.8-1,2.9-1.4s2-0.6,2.9-0.7c0.6-0.1,0.9-0.1,1-0.1s0.4,0,0.8,0c0.1,0,0.2,0,0.2,0.1
		c0,0,0.1,0.1,0.2,0.1c0.3,0,0.5,0,0.8,0.1c0.2,0,0.5,0.1,0.8,0.2c0.1,0.1,0.2,0.1,0.3,0.1c0.1,0,0.2,0,0.4,0.1c0.1,0,0.2,0,0.3,0.1
		c0.3,0.8,0.4,1.8,0.4,2.7c0,1-0.2,2-0.4,3.1c-0.2,1.1-0.4,2.1-0.7,3c-0.3,0.9-0.5,1.7-0.7,2.4c-0.7,2-1.7,3.9-2.9,5.7
		c-1.2,1.8-2.7,3.3-4.5,4.6c0,0.2,0,0.3,0.1,0.3c2.3-1.3,4.2-2.9,5.5-4.7s2.4-4,3.2-6.4c0.5-1.2,0.9-2.7,1.4-4.4s0.7-3.3,0.6-4.9
		c0.2,0.2,0.3,0.3,0.4,0.4c0,0.1,0.2,0.2,0.4,0.4c0.3,1,0.3,2.2,0.1,3.4c-0.3,1.8-0.8,3.6-1.5,5.4c-0.7,1.8-1.4,3.5-2.2,5.1
		c-0.7,1.4-1.5,2.7-2.4,4s-2.1,2.3-3.5,3c-1,0.7-2,1.1-3,1.5c-1,0.3-2,0.7-3,1.1c-0.2-0.1-0.5-0.2-1.1-0.4c-0.5-0.1-0.7,0-0.6,0.5
		V65c-0.2,0.3-0.2,0.5,0,0.7c0.4,0.7,0.7,1.2,0.8,1.8c0.2,0.5,0.6,1,1.3,1.5c1.3,0.9,2.6,1.7,3.9,2.2C81.5,72.4,85,72.9,88.4,72.4z"
		/>
	<path class="st3" d="M127.6,92.1c-0.2-0.2-0.7-0.4-1.5-0.5s-1.1,0.1-0.8,0.8c1.7,3,2.3,6.1,2,9.3c-0.4,3.2-1.4,6.3-2.9,9.3
		c-1.4,2.8-3,5.5-4.7,8.1s-3.7,5.1-5.8,7.4c-4.1,4.5-8.8,8.3-13.9,11.4c-0.6,0.4-1,0.7-1.4,0.8l2.1-1.7c2-1.7,3.9-3.4,5.8-5.1
		c1.9-1.7,3.7-3.5,5.5-5.3c3.1-3.4,5.7-6.9,7.8-10.7c2.1-3.8,3.4-8,3.9-12.7c0.1-0.1,0.1-0.1,0-0.1s-0.1,0-0.1,0.1
		c-0.8,4.4-2.3,8.5-4.8,12.4c-2.4,3.8-5.2,7.3-8.3,10.2c-1.6,1.6-3.2,3.1-4.8,4.6c-1.6,1.5-3.3,2.9-5,4.3c-1,0.8-2,1.6-2.9,2.4
		c-0.9,0.7-1.8,1.5-2.9,2.1c-0.1-0.2-0.2-0.3-0.3-0.4c-0.1,0-0.2-0.1-0.3-0.2c-0.1-0.1-0.1-0.2-0.1-0.4c-0.3-0.5-0.5-0.9-0.7-1.4
		c-0.2-0.7-0.3-1.5-0.4-2.2s-0.1-1.5-0.1-2.2c-0.3-2.6,0-5.3,0.7-8.1c0.7-2.9,1.6-5.7,2.7-8.5c1.2-2.8,2.5-5.5,3.9-8.1
		c2.6-4.8,5.9-9.3,10-13.5c1-1,2.1-2.1,3.2-3.2s2.2-2.1,3.3-3c1-0.7,2-1.4,2.9-2.1s1.7-1.5,2.4-2.5c0.3-0.6,0.3-1.1,0-1.6
		s-0.7-1-1.1-1.4c-0.5-0.4-1-0.8-1.5-1.1c-0.6-0.3-1-0.5-1.3-0.7c-2.2-1-4.5-1.5-6.7-1.5s-4.3,0.4-6.4,1.2c-2.1,0.8-4,1.8-5.9,3.2
		c-1.9,1.3-3.6,2.7-5.2,4.2c-1.8,1.8-3.4,3.6-4.9,5.3c2.6-3.8,5.6-7.2,9-10.1s7.3-5.1,11.8-6.6c-4.9,0.5-9.1,2.3-12.8,5.5
		c-3.7,3.2-6.8,6.8-9.3,10.6c-1.6,2.2-3,4.6-4.2,7s-2.3,4.9-3.4,7.4l-0.1,0.1c-1.6,3.3-2.9,6.7-3.9,10.3c-1,3.6-1.5,7.2-1.5,10.9
		c-0.2,3.8,0.6,7.5,2.2,11.1c0.7,1.3,1.6,2.5,2.5,3.6s2.1,2.1,3.4,2.8c1,0.7,2.2,1.2,3.6,1.8c1.4,0.5,2.7,0.8,4.1,0.9
		c2.9,1.4,5.8,1.7,8.7,0.9c2.9-0.8,5.7-2,8.4-3.7c6.1-3.6,11.2-8.2,15.4-13.6c2-2.5,3.9-5.4,5.7-8.6s3.1-6.6,3.9-10
		c0.8-3.5,0.9-6.9,0.3-10.2C132.1,97.7,130.4,94.7,127.6,92.1z"/>
	<path class="st3" d="M245.3,87.4c-1.4-2.2-3.1-3.9-5.1-5.2c-2.1-1.3-4.3-1.9-6.7-1.9s-4.8,0.8-7,2.5c-3,2.2-5.8,4.7-8.5,7.3
		c-2.7,2.6-5.2,5.4-7.6,8.3c0.5-1.3,0.8-2.6,1-3.9s0.2-2.6,0-4c-0.2-2.4-1-4.7-2.4-6.8c-1.4-2.1-3.3-3.6-5.6-4.6
		c-0.2-0.1-0.3-0.1-0.4-0.1c-0.1,0-0.2,0-0.3-0.1c-0.1,0-0.3-0.1-0.7-0.3c-0.5-0.2-0.9-0.4-1.4-0.5s-0.9-0.3-1.4-0.5
		c-0.7-0.1-1.3-0.1-1.9-0.1c-0.6,0-1.1,0.3-1.6,0.8c-0.5,0.4-0.4,0.7,0.1,1.1s0.9,0.6,1.1,0.7c-0.1,0.5-0.1,0.9-0.1,1.3
		s-0.1,0.9-0.3,1.3c-0.3,0.9-0.5,1.8-0.8,2.5c-0.2,0.7-0.6,1.5-1.1,2.4c-1,1.8-1.9,3.6-2.7,5.5s-1.6,3.8-2.3,5.7
		c-1.6,3.9-3.1,7.7-4.7,11.4c-0.6,0.4-1.2,0.7-1.8,1.1c1.4-3.9,2.9-7.8,4.5-11.6c2.2-5.3,4.4-10.7,6.5-16c0-0.4-0.1-0.4-0.4-0.1
		c-2.9,5-5.5,10.1-7.7,15.4c-2,4.7-3.8,9.5-5.6,14.3c-0.9,0.7-1.8,1.5-2.7,2.3c-3.2,3.1-6.3,6.2-9.3,9.3c-2.1,2.1-4.1,4.2-6,6.3
		c-2,2.2-3.9,4.4-5.8,6.6l1.3-2.5c1-2.3,2.1-4.6,3.1-6.9c1-2.2,2.1-4.5,3.2-6.7c1.1-2.2,2.2-4.3,3.4-6.3c1.1-2.1,2.3-4.2,3.5-6.3
		c0.7-1,1.1-2,1.4-3c0.3-1,0.5-2.1,0.7-3.3c0.1-0.7,0.2-1.3,0.3-1.8c0.1-0.6,0.1-1.1,0-1.7c-0.2-0.8-0.5-1.6-0.9-2.2
		c-0.4-0.7-0.7-1.4-0.9-2.1c-0.5-1.3-1.4-2.4-2.8-3.2c-1.4-0.8-2.8-1.1-4.1-0.8c-1.5,0.3-3,0.6-4.4,1.1c-1.5,0.4-2.9,0.8-4.4,1.2
		c-0.4,0.1-0.8,0.2-1.1,0.3c-0.4,0.1-0.8,0.2-1.3,0.3v-0.4c-0.2-1-0.1-2,0.1-2.9c0.3-0.9,0.7-1.9,1.1-2.8c0.9-2.2,2-4.2,3.2-6.1
		s2.3-3.9,3.3-6c0.5-1,0.9-2.1,1.3-3.2c0.4-1.1,0.5-2.3,0.4-3.5c-0.2-1.6-0.7-2.9-1.5-3.9c-0.6-0.7-1.2-1.3-1.8-1.7
		c-0.3-0.3-0.5-0.4-0.7-0.4c-0.3-0.3-0.6-0.6-0.9-1c-0.3-0.4-0.6-0.6-0.8-0.7c-0.5-0.3-1-0.5-1.5-0.8c-0.5-0.2-1.1-0.4-1.6-0.6
		c-0.7-0.2-1.3-0.3-2-0.2c-0.7,0-1.3,0.3-1.8,0.8c-0.4,0.2-0.5,0.5-0.3,0.8c0.2,0,0.3,0,0.4,0.1c-0.2,0-0.3,0-0.3,0.1
		c0.4,0.6,0.8,0.9,1.3,1.1c-0.5-0.2-0.8-0.4-1.1-0.6c-0.2-0.2-0.4-0.3-0.5-0.4c-1.6,0.7-2.9,1.9-4,3.4s-2,2.9-2.9,4.4
		c-0.5,0.7-0.9,1.5-1.2,2.1c-0.3,0.7-0.7,1.4-1.2,2.1c0.9-2.1,1.9-4.1,2.8-6c0.9-2,1.9-4,2.8-6c0-0.1,0-0.1-0.1,0
		c-1.6,2.4-3,4.9-4.3,7.4s-2.5,5-3.7,7.6c-0.7,1.4-1.3,2.9-2,4.5s-0.9,3.2-0.7,4.8c-0.5,2.2-0.2,4.4,0.8,6.6c1.2,2.4,3.2,4.3,6,5.7
		c2.8,1.4,5.6,2,8.3,1.9c0.7,0.2,1.4,0.3,2,0.4c0.6,0,1.3,0.1,2,0.2c-0.6,0.8-1.1,1.5-1.5,2.4c-0.5,0.8-0.9,1.6-1.4,2.4
		c-3,4.8-5.8,9.9-8.4,15.4c-1.1,2.4-2.3,5-3.6,7.6c-1.3,2.6-1.9,5.3-2,8c0,2.1,0.6,3.9,1.7,5.6c1.1,1.7,2.5,3.1,4.2,4.4
		c1.7,1.2,3.5,2.1,5.5,2.7c2,0.6,4,0.7,5.8,0.6c0.3,0,0.7-0.1,1.3-0.3c0.5,0,0.9-0.2,1.3-0.6c0-0.1,0-0.1,0.1-0.1c0,0,0.1,0,0.1-0.1
		c0.4-0.3,0.7-0.7,0.8-1.1c4.9-6.5,10.1-12.9,15.6-18.9c0.7-0.7,1.4-1.5,2.1-2.2c-0.3,0.9-0.6,1.9-0.9,2.8
		c-1.4,4.6-2.7,9.3-3.7,14.1c-1.6,4.1-3,8.2-4.1,12.4c-1.2,4.1-2,8.4-2.5,12.8c-0.1,0.7,0.3,1.6,1.1,2.5s1.4,1.6,1.9,2
		c0.9,0.7,2,1.4,3.2,2s2.4,1,3.5,1.2c0.8,0.2,1.7,0.3,2.7,0.4c0.9,0.1,1.8,0,2.7-0.1c0.8-0.2,1.6-0.6,2.2-1.1c0.6-0.6,1-1.4,1.2-2.5
		c0.5-4.6,1.5-9.1,3-13.4c1.5-4.4,3.2-8.6,4.8-12.8c1.1-2.7,2.2-5.4,3.3-8.1c1.1-2.7,2.2-5.4,3.3-8.1c0.3-0.5,0.6-1,0.9-1.5
		c0.3-0.6,0.6-1.1,0.9-1.5c1.3-2.3,2.6-4.6,4-6.9c1.4-2.2,2.8-4.4,4.3-6.6c3-4.3,6.2-8.4,9.6-12.3c3.4-3.9,7.1-7.6,11-11
		c0.9-0.8,1.9-1.7,2.8-2.5c0.9-0.8,1.9-1.6,2.9-2.2c0.1,0,0.2,0,0.4-0.1s0.4-0.2,0.6-0.3V86c0.1,0.4,0.1,0.7,0,1.1s-0.1,0.7-0.1,1
		c-0.3,1.3-0.7,2.5-1.2,3.6s-1,2.3-1.5,3.5c-0.6,1.5-1.1,3-1.5,4.4c-0.5,1.5-0.9,2.9-1.4,4.4c-0.9,2.7-1.9,5.5-2.9,8.2
		c-1,2.8-2.2,5.5-3.5,8.1c-1,2.2-2.2,4.2-3.6,6.2c-1.4,2-3.1,3.6-5.1,4.9c-0.8,0.6-1.6,0.9-2.2,1.1c-0.7,0.1-1.4,0.3-2.2,0.5
		c-0.4,0.1-0.7,0.2-1.1,0.3c-0.3,0.1-0.7,0.2-1.1,0.3h-0.3h-1.3h-1.4c-1.3,0.1-2.1,0.6-2.5,1.4c-0.3,0.8-0.1,1.8,0.6,2.8
		c0.9,1.3,2.1,2.4,3.4,3.3c1.3,0.9,2.7,1.6,4.2,2.2c3.4,1.3,6.7,1.8,10.1,1.5c3.4-0.3,6.5-1.5,9.5-3.4c2.1-1.4,3.8-3.2,5.3-5.3
		s2.8-4.2,3.9-6.4c1.3-2.6,2.4-5.3,3.4-8c0.9-2.7,1.8-5.5,2.5-8.4s1.4-5.9,2-9s0.7-6.1,0.6-9.1C247.4,92,246.7,89.6,245.3,87.4z
		 M178.9,124.5c-0.3,0.7-0.6,1.5-0.9,2.2c0.3-1.3,0.7-2.5,1-3.8c0.3-0.3,0.5-0.5,0.8-0.8v0.1C179.5,123,179.2,123.8,178.9,124.5z"/>
	<path class="st3" d="M304.2,92.1c-0.2-0.2-0.7-0.4-1.5-0.5s-1.1,0.1-0.8,0.8c1.7,3,2.3,6.1,2,9.3c-0.4,3.2-1.4,6.3-2.9,9.3
		c-1.4,2.8-3,5.5-4.7,8.1s-3.7,5.1-5.8,7.4c-4.1,4.5-8.8,8.3-13.9,11.4c-0.6,0.4-1,0.7-1.4,0.8l2.1-1.7c2-1.7,3.9-3.4,5.8-5.1
		c1.9-1.7,3.7-3.5,5.5-5.3c3.1-3.4,5.7-6.9,7.8-10.7c2.1-3.8,3.4-8,3.9-12.7c0.1-0.1,0.1-0.1,0-0.1s-0.1,0-0.1,0.1
		c-0.8,4.4-2.3,8.5-4.8,12.4c-2.4,3.8-5.2,7.3-8.3,10.2c-1.6,1.6-3.2,3.1-4.8,4.6c-1.6,1.5-3.3,2.9-5,4.3c-1,0.8-2,1.6-2.9,2.4
		c-0.9,0.7-1.8,1.5-2.9,2.1c-0.1-0.2-0.2-0.3-0.3-0.4c-0.1,0-0.2-0.1-0.3-0.2c-0.1-0.1-0.1-0.2-0.1-0.4c-0.3-0.5-0.5-0.9-0.7-1.4
		c-0.2-0.7-0.3-1.5-0.4-2.2s-0.1-1.5-0.1-2.2c-0.3-2.6,0-5.3,0.7-8.1c0.7-2.9,1.6-5.7,2.7-8.5c1.2-2.8,2.5-5.5,3.9-8.1
		c2.6-4.8,5.9-9.3,10-13.5c1-1,2.1-2.1,3.2-3.2s2.2-2.1,3.3-3c1-0.7,2-1.4,2.9-2.1s1.7-1.5,2.4-2.5c0.3-0.6,0.3-1.1,0-1.6
		s-0.7-1-1.1-1.4c-0.5-0.4-1-0.8-1.5-1.1c-0.6-0.3-1-0.5-1.3-0.7c-2.2-1-4.5-1.5-6.7-1.5s-4.3,0.4-6.4,1.2c-2.1,0.8-4,1.8-5.9,3.2
		c-1.9,1.3-3.6,2.7-5.2,4.2c-1.8,1.8-3.4,3.6-4.9,5.3c2.6-3.8,5.6-7.2,9-10.1s7.3-5.1,11.8-6.6c-4.9,0.5-9.1,2.3-12.8,5.5
		c-3.7,3.2-6.8,6.8-9.3,10.6c-1.6,2.2-3,4.6-4.2,7s-2.3,4.9-3.4,7.4l-0.1,0.1c-1.6,3.3-2.9,6.7-3.9,10.3c-1,3.6-1.5,7.2-1.5,10.9
		c-0.2,3.8,0.6,7.5,2.2,11.1c0.7,1.3,1.6,2.5,2.5,3.6c0.9,1.1,2.1,2.1,3.4,2.8c1,0.7,2.2,1.2,3.6,1.8c1.4,0.5,2.7,0.8,4.1,0.9
		c2.9,1.4,5.8,1.7,8.7,0.9c2.9-0.8,5.7-2,8.4-3.7c6.1-3.6,11.2-8.2,15.4-13.6c2-2.5,3.9-5.4,5.7-8.6c1.8-3.2,3.1-6.6,3.9-10
		c0.8-3.5,0.9-6.9,0.3-10.2C308.7,97.7,307,94.7,304.2,92.1z"/>
	<path class="st3" d="M536.5,111.6c-0.6-0.3-1-0.4-1.2-0.4c-3.1,0.8-6,2-8.8,3.4c-2.8,1.5-5.5,3.1-8.1,4.8c-2.6,1.8-5.2,3.6-7.7,5.5
		s-5.1,3.7-7.7,5.5c-2.5,1.7-5.2,3.3-7.9,4.8c-2.8,1.5-5.6,2.8-8.5,3.8c-0.7,0.3-1.5,0.5-2.2,0.8c-0.7,0.2-1.5,0.4-2.2,0.6v-1
		c0-0.8,0-1.7,0-2.5s0.1-1.7,0.3-2.5c0.2-1.6,0.5-3.2,1-4.7s1-3.1,1.5-4.7c0.1-0.4,0.2-0.7,0.3-1c0.1-0.3,0.2-0.6,0.4-1
		c2.8,0.6,5.6,0.6,8.5,0.1s5.6-1.3,8.2-2.6c2.6-1.3,5.1-2.8,7.4-4.7c2.3-1.9,4.2-3.9,5.8-6.2c3.3-4.6,5.3-9.9,6.2-15.9
		c0.2-1.6,0.2-3.4,0-5.3c-0.2-2-0.9-3.4-2.2-4.4c-0.3-0.4-0.6-0.7-1.1-1c-0.4-0.3-0.8-0.5-1.2-0.7c-1.8-0.8-3.7-1.4-5.7-1.5
		c-2-0.2-4-0.1-6,0.1c-2,0.3-3.9,0.8-5.8,1.5s-3.7,1.5-5.4,2.5c-3.1,1.9-6,4-8.6,6.5c-2.7,2.5-5.1,5.1-7.4,7.9c-2.2,2.9-4.1,5.9-6,9
		c-1.1,1.9-2.2,3.9-3.1,6c-3.3,2.6-6.5,5.3-9.5,8.2c-5.5,5.2-10.6,10.8-15.5,16.7c-0.2-0.9-0.2-1.9,0-2.9c2.7-5.3,5.4-10.7,8-16.1
		s5.3-10.7,8-16.1c2.8-5.5,5.6-11,8.4-16.4s5.4-10.8,8.1-16.4c0.1-0.1,0.1-0.2,0.1-0.2s-0.1,0-0.2,0.1c-3.2,5.2-6.2,10.5-9.1,15.9
		c-2.9,5.3-5.7,10.7-8.5,16.1l-6.7,13.5c1.3-2.9,2.6-5.8,3.9-8.6c1.3-2.8,2.5-5.6,3.9-8.4c1.9-3.9,3.7-7.8,5.6-11.5
		s3.8-7.5,5.8-11.4c0.9-1.8,1.8-3.5,2.7-5.3c0.9-1.7,1.8-3.4,2.7-5.1c0.9-0.1,1.8-0.2,2.7-0.3c0.9-0.1,1.8-0.2,2.9-0.3
		c2.4-0.2,4.8-0.3,7.2-0.4c2.3,0,4.7-0.1,7.2-0.2c1,0,2.1,0,3.1,0s2.1,0.1,3.1,0.3c0.5,0.1,0.8,0.2,1.1,0.4c0.2,0.1,0.5,0.3,0.9,0.5
		c0.1,0,0.1,0,0.1,0.1c0.1,0.7,0,1.3-0.4,1.8c-0.2,0.5-0.1,1.1,0.2,1.8c0.3,0.7,0.8,1,1.5,0.8c1.4-0.7,2.2-1.7,2.2-3.2
		c0.1-1.5-0.1-2.9-0.6-4.1c-0.8-2.1-2.2-3.6-4.2-4.5s-4-1.5-6-1.7c-2.8-0.4-5.6-0.6-8.4-0.7c-2.8-0.1-5.6-0.1-8.4-0.1
		c0.2-0.7,0.3-1.5,0.3-2.2s0-1.4,0.1-2.2c0-0.6-0.2-1.1-0.6-1.6s-0.8-1-1.4-1.5s-1.1-0.9-1.8-1.2c-0.6-0.3-1.1-0.6-1.5-0.8
		c-0.5-0.2-1.1-0.4-1.8-0.6c-0.7-0.2-1.4-0.3-2.1-0.4c-0.7-0.1-1.4-0.1-2,0.1c-0.7,0.1-1.2,0.4-1.5,0.9c-0.2,0.1-0.4,0.3-0.7,0.6
		c-0.5,0.2-1,0.3-1.6,0.3s-1.1,0-1.6,0.1c-2,0.2-3.7,0.7-5.3,1.4c-0.6,0.4-0.5,0.7,0.1,1.1c0.6,0.4,1.1,0.6,1.3,0.6h3.2
		c-0.2,0.2-0.4,0.4-0.5,0.6c-0.1,0.2-0.3,0.4-0.5,0.6c-0.7,0.7-1.2,1.6-1.7,2.5s-0.9,1.8-1.4,2.6c-4,0.2-8,0.4-11.9,0.6
		c-3.9,0.2-7.9,0.4-11.9,0.4c-2.5,0-5.1-0.1-7.6-0.2c-2.6-0.1-5.1-0.4-7.6-0.8c-1.2-0.2-2.4-0.4-3.6-0.6c-1.2-0.2-2.4-0.4-3.6-0.6
		c-0.7-0.2-1.3-0.4-2-0.5s-1.3-0.3-2-0.5c-0.5-0.1-0.8-0.2-1.1-0.3c-0.2-0.1-0.4-0.1-0.5-0.1c-0.8-0.8-1.7-1.3-2.5-1.4
		c-0.7,0-1.2,0.2-1.7,0.6c-0.5,0.4-0.7,1-0.6,1.8c0.2,2.7,1.1,4.9,2.6,6.5c1.5,1.6,3.4,2.8,5.7,3.6s4.6,1.4,7.1,1.8
		c2.5,0.3,4.8,0.6,6.9,0.9c4.7,0.5,9.3,0.7,14,0.6c4.6,0,9.3-0.3,14.1-0.6l-0.8,1.7c-2.2,4.2-4.3,8.4-6.4,12.6s-4.1,8.4-6.1,12.7
		c-3.1,6.7-6.1,13.3-9,20c-1.1,0.8-2.2,1.6-3.2,2.4c-1.9,1.5-3.8,3-5.7,4.6c-1.9,1.6-3.7,3.2-5.6,4.8c-1.9,1.6-3.6,3.3-5.3,5.1
		c0.7-2.2,1.6-4.6,2.8-7c1.3-2.6,2.9-5.3,4.6-8.1c0.9-1.5,1.8-3,2.6-4.5c0.8-1.5,0.6-3.2-0.5-5.1c-1-1.8-2.5-3.1-4.4-3.9
		s-3.9-1.2-6-1.1c-1,0-2.1,0.2-3.2,0.6s-2,0.9-2.7,1.7c-0.7,0.7-1.3,1.4-1.8,2.3c-0.6,0.9-1.1,1.7-1.5,2.5c-1,1.4-2,2.8-2.9,4.3
		s-1.7,3-2.5,4.6c0,0.1,0,0.2-0.1,0.3c-2.4,1.8-4.9,3.6-7.3,5.3c-2.4,1.8-4.9,3.6-7.3,5.5c-1.9,1.4-3.7,2.8-5.5,4.3s-3.6,2.8-5.6,4
		c-0.1,0.1-0.2,0.1-0.3,0.1c-0.1,0-0.2,0-0.3,0.1c0.1-2.8,0.5-5.6,1.3-8.3c0.7-2.7,1.8-5.3,3-7.9c1.3-2.5,2.7-5,4.4-7.3
		c1.6-2.3,3.3-4.6,5.1-6.7c2.1-2.4,4.2-4.8,6.5-7c2.2-2.2,4.7-4.3,7.4-6.2c1.3-0.8,2.6-1.6,4-2.4c1.4-0.7,2.8-1.4,4.3-1.8
		c0.7-0.2,1.4-0.4,2.2-0.5c0.8-0.1,1.6-0.3,2.4-0.5s1.5-0.4,2.2-0.7c0.7-0.3,1.3-0.7,1.8-1.1c0.5-0.6,0.7-1.1,0.7-1.8
		c0-0.6-0.2-1.2-0.6-1.8c-0.4-0.6-0.8-1.1-1.3-1.5c-0.5-0.5-1.1-0.8-1.6-1.1c-4.1-2.2-8.6-3.1-13.3-2.6c-4.8,0.5-9.1,1.8-13.1,4
		c-3.4,1.8-6.5,4-9.3,6.5c-2.8,2.6-5.4,5.3-7.9,8.2c-2.8,3.3-5.4,6.7-7.9,10.3c-1.1,1.6-2,3.2-3,4.9c-0.4,0.3-0.8,0.6-1.1,0.9
		c0.6-1.4,1.2-2.8,1.9-4.2c1.6-3.2,3.5-6.2,5.5-9c4.2-5.9,9.2-11,15-15.3s12-7.8,18.7-10.5c0.1,0,0.1,0,0.1-0.1c0,0,0-0.1-0.1-0.1
		c-7.4,2.1-14.2,5.4-20.4,10c-6.2,4.6-11.5,10-15.9,16.3c-2.3,3.4-4.4,7-6.2,10.8c-0.8,1.7-1.5,3.5-2,5.3c-2.7,2.6-5.3,5.2-7.8,7.8
		c-2.1,2.1-4.1,4.2-6,6.3c-2,2.2-3.9,4.4-5.8,6.6l1.3-2.5c1-2.3,2.1-4.6,3.1-6.9c1-2.2,2.1-4.5,3.2-6.7s2.2-4.3,3.4-6.3
		c1.1-2.1,2.3-4.2,3.5-6.3c0.7-1,1.1-2,1.4-3s0.5-2.1,0.7-3.3c0.1-0.7,0.2-1.3,0.3-1.8c0.1-0.6,0.1-1.1,0-1.7
		c-0.2-0.8-0.5-1.6-0.9-2.2c-0.4-0.7-0.7-1.4-0.9-2.1c-0.5-1.3-1.4-2.4-2.8-3.2c-1.4-0.8-2.8-1.1-4.1-0.8c-1.5,0.3-3,0.6-4.4,1.1
		c-1.5,0.4-2.9,0.8-4.4,1.2c-0.4,0.1-0.7,0.2-1.1,0.3c-0.4,0.1-0.8,0.2-1.3,0.3v-0.4c-0.2-1-0.1-2,0.1-2.9c0.3-0.9,0.7-1.9,1.1-2.8
		c0.9-2.2,2-4.2,3.2-6.1s2.3-3.9,3.3-6c0.5-1,0.9-2.1,1.3-3.2s0.5-2.3,0.4-3.5c-0.2-1.6-0.7-2.9-1.5-3.9c-0.6-0.7-1.2-1.3-1.8-1.7
		c-0.3-0.3-0.5-0.4-0.7-0.4c-0.3-0.3-0.6-0.6-0.9-1s-0.6-0.6-0.8-0.7c-0.5-0.3-1-0.5-1.5-0.8c-0.5-0.2-1.1-0.4-1.6-0.6
		c-0.7-0.2-1.3-0.3-2-0.2c-0.7,0-1.3,0.3-1.8,0.8c-0.4,0.2-0.5,0.5-0.3,0.8c0.2,0,0.3,0,0.4,0.1c-0.2,0-0.3,0-0.3,0.1
		c0.4,0.6,0.8,0.9,1.3,1.1c-0.5-0.2-0.8-0.4-1.1-0.6c-0.2-0.2-0.4-0.3-0.5-0.4c-1.6,0.7-2.9,1.9-4,3.4s-2,2.9-2.9,4.4
		c-0.5,0.7-0.9,1.5-1.2,2.1c-0.3,0.7-0.7,1.4-1.2,2.1c0.9-2.1,1.9-4.1,2.8-6c0.9-2,1.9-4,2.8-6c0-0.1,0-0.1-0.1,0
		c-1.6,2.4-3,4.9-4.3,7.4s-2.5,5-3.7,7.6c-0.7,1.4-1.3,2.9-2,4.5s-0.9,3.2-0.7,4.8c-0.5,2.2-0.2,4.4,0.8,6.6c1.2,2.4,3.2,4.3,6,5.7
		c2.8,1.4,5.6,2,8.3,1.9c0.7,0.2,1.4,0.3,2,0.4c0.6,0,1.3,0.1,2,0.2c-0.6,0.8-1.1,1.5-1.5,2.4c-0.5,0.8-0.9,1.6-1.4,2.4
		c-3,4.8-5.8,9.9-8.4,15.4c-1.1,2.4-2.3,5-3.6,7.6c-1.3,2.6-1.9,5.3-2,8c0,2.1,0.6,3.9,1.7,5.6c1.1,1.7,2.5,3.1,4.2,4.4
		c1.7,1.2,3.5,2.1,5.5,2.7c2,0.6,4,0.7,5.8,0.6c0.3,0,0.7-0.1,1.3-0.3c0.5,0,0.9-0.2,1.3-0.6c0-0.1,0-0.1,0.1-0.1c0,0,0.1,0,0.1-0.1
		c0.4-0.3,0.7-0.7,0.8-1.1c4.9-6.5,10.1-12.9,15.6-18.9c0.1-0.1,0.2-0.2,0.3-0.4c0,1.9,0.2,3.8,0.6,5.7c0,0.7,0,1.3,0,2s0,1.3,0.1,2
		c0.2,1.7,1,3.2,2.5,4.4c1.5,1.3,3.2,2.3,5.2,3c0.5,0.5,1,0.9,1.7,1.2s1.1,0.5,1.4,0.6c2.2,0.7,4.4,0.5,6.7-0.4
		c2.3-0.9,4.4-1.9,6.2-2.9c2.2-1.2,4.1-2.5,6-4c1.8-1.5,3.7-3,5.5-4.6c1-0.8,2-1.7,2.9-2.6c0.9-0.9,1.8-1.8,2.9-2.6
		c-0.4,1.6-0.6,3.2-0.7,4.8s-0.1,3.2,0,4.8c0.2,1.7,1.1,3.2,2.7,4.4c1.6,1.3,3.2,2.1,4.6,2.6c1,0.5,2.5,0.9,4.4,1.3
		c1.9,0.4,3.5,0.2,4.8-0.4c1.1,0,1.8-0.3,2.1-1c0.7-2.1,1.8-4,3.2-5.9c1.4-1.9,2.8-3.6,4.4-5.3s3.3-3.3,5.1-4.9
		c1.5-1.3,2.9-2.6,4.3-3.8c-0.1,0.3-0.3,0.7-0.4,1c-0.7,2.1-1.1,4.2-1,6.3c0,2.7,0.7,5.1,2.2,7.3s3.3,3.9,5.5,5.2
		c1.4,0.8,3,1.5,4.8,2s3.5,0.5,5.1,0.1c0.6-0.2,0.9-0.3,1.1-0.4c0.4-0.2,0.6-0.3,0.7-0.4c0.6-0.5,0.9-1,1.1-1.5
		c5.1-6.5,10.4-12.7,16.1-18.6c1.1-1.2,2.2-2.3,3.4-3.5c-0.4,1.6-0.8,3.3-1.1,5c-0.2,1.1-0.4,2.2-0.5,3.3s-0.2,2.1-0.1,3.2
		c0.1,1.5,0.3,2.7,0.6,3.7c0.3,1,0.9,2.1,1.8,3.3c0.5,0.7,1.1,1.3,2,1.8c0.8,0.8,1.9,1.5,3.1,2s2.3,0.9,3.4,1.2
		c1.7,0.4,3.4,0.5,5.1,0.3s3.4-0.5,5.1-1c3.3-0.9,6.4-2.2,9.4-3.8s5.8-3.4,8.6-5.3c3-2.1,5.8-4.2,8.6-6.5c2.7-2.2,5.5-4.4,8.3-6.6
		c2.7-2.2,5.5-4.2,8.4-6.2s5.7-3.9,8.6-5.8C537.3,112.1,537.1,111.9,536.5,111.6z M491.2,111.3c0.6-1.1,1.3-2.2,2-3.2
		c1.6-2.4,3.4-4.8,5.4-7.2c2-2.3,4.1-4.4,6.4-6.3c1-0.9,2.1-1.8,3.2-2.7c1.1-0.9,2.3-1.7,3.6-2.5c0.5-0.3,1-0.5,1.6-0.8
		c0.6-0.2,1.2-0.4,1.8-0.6c-0.2,0.6-0.3,0.9-0.3,1c-0.4,1-0.7,2-1,2.9s-0.7,1.9-1.1,2.9c-1.9,4.3-4.6,8.1-8.3,11.5
		c-3.6,3.1-7.5,5.5-11.8,7.2c-0.6,0.2-1.1,0.4-1.7,0.6s-1.2,0.4-1.8,0.6C490,113.6,490.6,112.4,491.2,111.3z"/>
</g>
</svg>
