<svg xmlns="http://www.w3.org/2000/svg" viewBox="0 0 90 90"><defs><style>.cls-1{fill:#27a6e5;}.cls-2{fill:#fefefe;}</style></defs><g id="Layer_2" data-name="Layer 2"><g id="Layer_1-2" data-name="Layer 1"><path class="cls-1" d="M45,0h0A45,45,0,0,1,90,45h0A45,45,0,0,1,45,90h0A45,45,0,0,1,0,45H0A45,45,0,0,1,45,0Z"/><path class="cls-2" d="M63,28.35,56.24,63.66a2.48,2.48,0,0,1-3.55,1.27L37.09,52.54l-.07,0c2.11-2,18.45-17.18,19.16-17.87,1.11-1.07.42-1.7-.86-.9L31.18,49.62l-9.32-3.25s-1.46-.54-1.6-1.71,1.65-1.81,1.65-1.81l38-15.42S63,26,63,28.35Z"/></g></g></svg>