<svg xmlns="http://www.w3.org/2000/svg" viewBox="0 0 90 90"><defs><style>.cls-1{fill:#f40000;}.cls-2{fill:#fff;fill-rule:evenodd;}</style></defs><g id="Layer_2" data-name="Layer 2"><g id="Layer_1-2" data-name="Layer 1"><path class="cls-1" d="M45,0h0A45,45,0,0,1,90,45h0A45,45,0,0,1,45,90h0A45,45,0,0,1,0,45H0A45,45,0,0,1,45,0Z"/><path class="cls-2" d="M25.34,60.88A5.79,5.79,0,0,1,23,59.52a5.58,5.58,0,0,1-1.44-2.26c-1.65-4.41-2.14-22.86,1-26.51a6.21,6.21,0,0,1,4.16-2c8.53-.89,34.89-.77,37.92.3A6.09,6.09,0,0,1,67,30.35a5.92,5.92,0,0,1,1.45,2.16c1.81,4.57,1.87,21.17-.24,25.56A5.75,5.75,0,0,1,65.5,60.7c-3.18,1.55-35.94,1.52-40.16.18Zm13.55-8.66,15.29-7.76L38.89,36.63Z"/></g></g></svg>