<svg xmlns="http://www.w3.org/2000/svg" viewBox="0 0 244.32 152.29"><defs><style>.cls-1{fill:#070707;}.cls-2{fill:#009dde;}.cls-3{fill:#f4c758;}.cls-4{fill:#00a951;}.cls-5{fill:#d53745;}.cls-6{fill:#fff;}</style></defs><g id="Layer_2" data-name="Layer 2"><g id="Layer_1-2" data-name="Layer 1"><path class="cls-1" d="M123.16,120c-.46,0-.93,0-1.4,0a23.52,23.52,0,0,1-22.41-16.39,20.15,20.15,0,0,0-6.58-2.17,29.44,29.44,0,0,0,29,24.46c.46,0,.92,0,1.38,0a26.52,26.52,0,0,1,0-5.91"/><path class="cls-1" d="M132.41,123.9A29.47,29.47,0,1,0,92.67,92a32.15,32.15,0,0,1,5.8,1.16A23.53,23.53,0,1,1,133.2,117a20.65,20.65,0,0,0-.79,6.87"/><path class="cls-2" d="M57,66.92a29.48,29.48,0,0,0,0,59c.47,0,.93,0,1.39,0a26.48,26.48,0,0,1,0-5.9c-.46,0-.93,0-1.41,0a23.53,23.53,0,1,1,11.46-3,20.52,20.52,0,0,0-.8,6.88A29.48,29.48,0,0,0,57,66.92"/><path class="cls-3" d="M89.39,93.46c-.46,0-.92,0-1.37,0a26.52,26.52,0,0,1,0,5.91c.46,0,.92,0,1.4,0a23.52,23.52,0,0,1,22.41,16.38,20.07,20.07,0,0,0,6.58,2.17,29.44,29.44,0,0,0-29-24.45"/><path class="cls-3" d="M78.75,95.46a29.48,29.48,0,0,0,8,56.83h5.34a29.47,29.47,0,0,0,26.41-24.89,33.07,33.07,0,0,1-5.8-1.15A23.53,23.53,0,1,1,78,102.33a21,21,0,0,0,.79-6.87"/><path class="cls-4" d="M154.08,93.46c-.46,0-.92,0-1.37,0a27.78,27.78,0,0,1,0,5.91c.46,0,.92,0,1.4,0a23.5,23.5,0,0,1,22.4,16.38,20.21,20.21,0,0,0,6.59,2.17,29.44,29.44,0,0,0-29-24.45"/><path class="cls-4" d="M143.44,95.46a29.48,29.48,0,0,0,8,56.83h5.33a29.48,29.48,0,0,0,26.42-24.89,33.19,33.19,0,0,1-5.81-1.15,23.53,23.53,0,1,1-34.72-23.92,21,21,0,0,0,.79-6.87"/><path class="cls-5" d="M192.43,67.55a29.43,29.43,0,0,0-34.78,22.89c-.09.46-.17.91-.24,1.37A26.94,26.94,0,0,1,163.18,93c.07-.46.15-.93.24-1.39a23.58,23.58,0,1,1,.6,11.84,20.68,20.68,0,0,0-6.56-2.18,29.43,29.43,0,1,0,35-33.75"/><path class="cls-6" d="M0,14.68V.74H2L6.43,7.8a37.74,37.74,0,0,1,2.5,4.53l0,0c-.16-1.86-.2-3.55-.2-5.72V.74h1.69V14.68H8.64L4.22,7.61A45.77,45.77,0,0,1,1.61,3L1.55,3c.1,1.76.15,3.43.15,5.75v5.95Z"/><path class="cls-6" d="M18.93,14.68l-.14-1.26h-.06a3.73,3.73,0,0,1-3.07,1.49A2.86,2.86,0,0,1,12.6,12c0-2.42,2.15-3.75,6-3.73v-.2a2.06,2.06,0,0,0-2.27-2.32,5,5,0,0,0-2.61.75l-.41-1.2a6.16,6.16,0,0,1,3.29-.89c3.06,0,3.8,2.09,3.8,4.09v3.74a13.47,13.47,0,0,0,.17,2.4Zm-.27-5.11c-2,0-4.24.32-4.24,2.26a1.62,1.62,0,0,0,1.72,1.74,2.5,2.5,0,0,0,2.42-1.68,1.91,1.91,0,0,0,.1-.58Z"/><path class="cls-6" d="M25.2,1.8V4.67h2.6V6.06H25.2v5.4c0,1.24.35,1.94,1.36,1.94a4.22,4.22,0,0,0,1.06-.12l.08,1.36a4.32,4.32,0,0,1-1.61.25,2.53,2.53,0,0,1-2-.77,3.66,3.66,0,0,1-.7-2.6V6.06H21.87V4.67h1.55V2.27Z"/><path class="cls-6" d="M31.58,1.86a1.13,1.13,0,0,1-2.26,0A1.11,1.11,0,0,1,30.46.72a1.09,1.09,0,0,1,1.12,1.14m-2,2.81h1.82v10H29.55Z"/><path class="cls-6" d="M43.25,9.6c0,3.7-2.56,5.31-5,5.31-2.71,0-4.8-2-4.8-5.15,0-3.35,2.19-5.31,5-5.31s4.81,2.09,4.81,5.15m-7.94.1c0,2.19,1.26,3.84,3,3.84s3-1.63,3-3.88c0-1.7-.84-3.85-3-3.85s-3.08,2-3.08,3.89"/><path class="cls-6" d="M45.38,7.38c0-1,0-1.88-.08-2.71h1.61L47,6.33h0a3.69,3.69,0,0,1,3.31-1.88c1.39,0,3.54.82,3.54,4.26v6H52.08V8.91c0-1.61-.6-2.95-2.32-2.95a2.58,2.58,0,0,0-2.44,1.86,2.66,2.66,0,0,0-.12.84v6H45.38Z"/><path class="cls-6" d="M62.14,14.68,62,13.42h-.06a3.71,3.71,0,0,1-3.06,1.49A2.85,2.85,0,0,1,55.81,12c0-2.42,2.15-3.75,6-3.73v-.2a2.06,2.06,0,0,0-2.27-2.32,5,5,0,0,0-2.61.75l-.41-1.2a6.21,6.21,0,0,1,3.29-.89c3.06,0,3.8,2.09,3.8,4.09v3.74a13.47,13.47,0,0,0,.17,2.4Zm-.27-5.11c-2,0-4.24.32-4.24,2.26a1.61,1.61,0,0,0,1.71,1.74,2.49,2.49,0,0,0,2.42-1.68,1.92,1.92,0,0,0,.11-.58Z"/><rect class="cls-6" x="66.31" width="1.82" height="14.68"/><path class="cls-6" d="M87.54,7.57c0,4.8-2.91,7.34-6.47,7.34s-6.26-2.85-6.26-7.07c0-4.43,2.75-7.32,6.47-7.32s6.26,2.91,6.26,7.05M76.73,7.8c0,3,1.61,5.64,4.44,5.64s4.47-2.62,4.47-5.79C85.64,4.88,84.19,2,81.19,2S76.73,4.74,76.73,7.8"/><rect class="cls-6" x="89.79" width="1.82" height="14.68"/><path class="cls-6" d="M95.19,4.67l2.19,5.92c.22.66.47,1.44.64,2h0c.19-.6.39-1.36.64-2.08l2-5.88h1.92l-2.73,7.14c-1.3,3.43-2.19,5.19-3.43,6.26a4.86,4.86,0,0,1-2.24,1.18l-.45-1.53a4.71,4.71,0,0,0,1.59-.89,5.39,5.39,0,0,0,1.53-2,1.41,1.41,0,0,0,.15-.44,1.69,1.69,0,0,0-.13-.47L93.2,4.67Z"/><path class="cls-6" d="M104.21,7.38c0-1,0-1.88-.08-2.71h1.59l.09,1.62h.06A3.45,3.45,0,0,1,109,4.45a3,3,0,0,1,2.84,2h0A4.12,4.12,0,0,1,113,5.15a3.39,3.39,0,0,1,2.22-.7c1.32,0,3.28.86,3.28,4.34v5.89h-1.77V9c0-1.93-.71-3.09-2.18-3.09a2.36,2.36,0,0,0-2.15,1.66,3.11,3.11,0,0,0-.14.91v6.18h-1.78v-6c0-1.59-.7-2.75-2.09-2.75a2.49,2.49,0,0,0-2.25,1.83,2.29,2.29,0,0,0-.15.88v6h-1.78Z"/><path class="cls-6" d="M121.19,7.94c0-1.28,0-2.31-.08-3.27h1.63l.09,1.72h0a3.93,3.93,0,0,1,3.56-1.94c2.41,0,4.24,2,4.24,5.08,0,3.6-2.2,5.38-4.55,5.38A3.52,3.52,0,0,1,123,13.34h0v5.44h-1.8Zm1.8,2.67a3.33,3.33,0,0,0,.09.74,2.8,2.8,0,0,0,2.73,2.13c1.92,0,3-1.57,3-3.86,0-2-1-3.73-3-3.73a2.9,2.9,0,0,0-2.75,2.26,3,3,0,0,0-.13.74Z"/><path class="cls-6" d="M134.82,1.86a1.13,1.13,0,0,1-2.26,0A1.11,1.11,0,0,1,133.7.72a1.09,1.09,0,0,1,1.12,1.14m-2,2.81h1.82v10h-1.82Z"/><path class="cls-6" d="M144.53,14.31a6.64,6.64,0,0,1-2.87.58,4.76,4.76,0,0,1-5-5.11,5.08,5.08,0,0,1,5.38-5.31,6.17,6.17,0,0,1,2.52.51l-.41,1.41a4.21,4.21,0,0,0-2.11-.47,3.46,3.46,0,0,0-3.54,3.78A3.43,3.43,0,0,0,142,13.44a5.14,5.14,0,0,0,2.23-.5Z"/><path class="cls-6" d="M160.85,14.23a9,9,0,0,1-3.68.66c-3.93,0-6.89-2.48-6.89-7A6.93,6.93,0,0,1,157.56.52a7.5,7.5,0,0,1,3.31.62l-.44,1.46A6.55,6.55,0,0,0,157.62,2c-3.27,0-5.44,2.08-5.44,5.75,0,3.41,2,5.6,5.36,5.6a7.2,7.2,0,0,0,2.93-.58Z"/><path class="cls-6" d="M171.6,9.6c0,3.7-2.56,5.31-5,5.31-2.71,0-4.8-2-4.8-5.15,0-3.35,2.19-5.31,5-5.31s4.82,2.09,4.82,5.15m-7.94.1c0,2.19,1.26,3.84,3,3.84s3-1.63,3-3.88c0-1.7-.85-3.85-3-3.85s-3.08,2-3.08,3.89"/><path class="cls-6" d="M173.73,7.38c0-1,0-1.88-.09-2.71h1.6l.08,1.62h.06a3.45,3.45,0,0,1,3.14-1.84,3,3,0,0,1,2.84,2h0a4.12,4.12,0,0,1,1.11-1.3,3.39,3.39,0,0,1,2.22-.7c1.32,0,3.28.86,3.28,4.34v5.89h-1.77V9c0-1.93-.71-3.09-2.17-3.09a2.37,2.37,0,0,0-2.16,1.66,3.11,3.11,0,0,0-.14.91v6.18H180v-6c0-1.59-.7-2.75-2.09-2.75a2.49,2.49,0,0,0-2.25,1.83,2.5,2.5,0,0,0-.15.88v6h-1.77Z"/><path class="cls-6" d="M190.71,7.38c0-1,0-1.88-.09-2.71h1.6l.08,1.62h.06a3.45,3.45,0,0,1,3.14-1.84,3,3,0,0,1,2.84,2h0a4.12,4.12,0,0,1,1.11-1.3,3.39,3.39,0,0,1,2.22-.7c1.32,0,3.28.86,3.28,4.34v5.89h-1.77V9c0-1.93-.71-3.09-2.17-3.09a2.34,2.34,0,0,0-2.15,1.66,2.8,2.8,0,0,0-.15.91v6.18H197v-6c0-1.59-.7-2.75-2.09-2.75a2.49,2.49,0,0,0-2.25,1.83,2.5,2.5,0,0,0-.15.88v6h-1.77Z"/><path class="cls-6" d="M209.72,1.86A1.08,1.08,0,0,1,208.56,3a1.09,1.09,0,0,1-1.1-1.12A1.11,1.11,0,0,1,208.6.72a1.08,1.08,0,0,1,1.12,1.14m-2,2.81h1.82v10h-1.82Z"/><path class="cls-6" d="M214.5,1.8V4.67h2.6V6.06h-2.6v5.4c0,1.24.35,1.94,1.36,1.94a4.22,4.22,0,0,0,1.06-.12l.08,1.36a4.32,4.32,0,0,1-1.61.25,2.53,2.53,0,0,1-2-.77,3.71,3.71,0,0,1-.7-2.6V6.06h-1.55V4.67h1.55V2.27Z"/><path class="cls-6" d="M221.62,1.8V4.67h2.61V6.06h-2.61v5.4c0,1.24.35,1.94,1.36,1.94a4.22,4.22,0,0,0,1.06-.12l.08,1.36a4.32,4.32,0,0,1-1.61.25,2.53,2.53,0,0,1-2-.77,3.71,3.71,0,0,1-.7-2.6V6.06h-1.55V4.67h1.55V2.27Z"/><path class="cls-6" d="M226.89,10a3.2,3.2,0,0,0,3.43,3.47,6.71,6.71,0,0,0,2.77-.51l.32,1.3a8.15,8.15,0,0,1-3.33.62c-3.09,0-4.93-2-4.93-5.05s1.78-5.39,4.7-5.39c3.27,0,4.13,2.87,4.13,4.71a7.24,7.24,0,0,1-.06.85Zm5.34-1.3c0-1.16-.48-3-2.53-3-1.84,0-2.64,1.69-2.79,3Z"/><path class="cls-6" d="M237.22,10a3.21,3.21,0,0,0,3.44,3.47,6.78,6.78,0,0,0,2.77-.51l.31,1.3a8.11,8.11,0,0,1-3.33.62c-3.08,0-4.93-2-4.93-5.05s1.78-5.39,4.7-5.39c3.27,0,4.14,2.87,4.14,4.71a6.82,6.82,0,0,1-.07.85Zm5.34-1.3c0-1.16-.48-3-2.52-3-1.85,0-2.65,1.69-2.8,3Z"/><path class="cls-6" d="M34.2,40.52C34.2,50,28.46,55,21.45,55,14.21,55,9.12,49.35,9.12,41.05c0-8.71,5.42-14.41,12.74-14.41,7.49,0,12.34,5.74,12.34,13.88M12.91,41c0,5.86,3.17,11.11,8.75,11.11s8.79-5.17,8.79-11.4c0-5.45-2.85-11.15-8.75-11.15S12.91,34.94,12.91,41"/><polygon class="cls-6" points="40.23 27.09 55.01 27.09 55.01 30.06 43.77 30.06 43.77 39.18 54.15 39.18 54.15 42.11 43.77 42.11 43.77 54.52 40.23 54.52 40.23 27.09"/><path class="cls-6" d="M76.79,45.89l-2.85,8.63H70.28L79.6,27.09h4.27l9.36,27.43H89.45l-2.93-8.63Zm9-2.76-2.68-7.9c-.61-1.79-1-3.42-1.43-5h-.08c-.41,1.63-.85,3.3-1.38,5l-2.69,7.94Z"/><path class="cls-6" d="M98.25,27.45a37.37,37.37,0,0,1,6.79-.57c3.79,0,6.23.7,7.94,2.24a6.82,6.82,0,0,1,2.16,5.21,7.19,7.19,0,0,1-5.17,7v.13c2.12.73,3.38,2.68,4,5.53.9,3.83,1.55,6.47,2.12,7.53h-3.67A36.67,36.67,0,0,1,110.62,48c-.81-3.79-2.28-5.21-5.49-5.33h-3.34V54.52H98.25ZM101.79,40h3.62c3.79,0,6.19-2.08,6.19-5.21,0-3.54-2.57-5.09-6.31-5.13a14.64,14.64,0,0,0-3.5.33Z"/><path class="cls-6" d="M144.72,42.47c-.2-3.82-.44-8.42-.4-11.84h-.13c-.93,3.21-2.07,6.63-3.46,10.42l-4.84,13.31H133.2l-4.43-13.07c-1.31-3.86-2.41-7.41-3.18-10.66h-.08c-.08,3.42-.28,8-.53,12.13l-.73,11.76h-3.38l1.91-27.43h4.52L132,40.36c1.14,3.38,2.08,6.39,2.77,9.24h.12c.69-2.77,1.67-5.78,2.89-9.24l4.89-13.27h4.52l1.7,27.43h-3.46Z"/><polygon class="cls-6" points="169.88 41.66 159.21 41.66 159.21 51.55 171.1 51.55 171.1 54.52 155.67 54.52 155.67 27.09 170.49 27.09 170.49 30.06 159.21 30.06 159.21 38.73 169.88 38.73 169.88 41.66"/><path class="cls-6" d="M176.57,54.52V27.09h3.87L189.23,41a77.53,77.53,0,0,1,4.93,8.91l.08,0c-.33-3.66-.41-7-.41-11.27V27.09h3.34V54.52h-3.58L184.88,40.6a84.12,84.12,0,0,1-5.13-9.16l-.12,0c.2,3.46.28,6.76.28,11.32V54.52Z"/><rect class="cls-6" x="204.65" y="27.09" width="3.54" height="27.44"/><path class="cls-6" d="M219.69,45.89l-2.85,8.63h-3.66l9.32-27.43h4.27l9.37,27.43h-3.79l-2.93-8.63Zm9-2.76L226,35.23c-.61-1.79-1-3.42-1.42-5h-.08c-.41,1.63-.86,3.3-1.39,5l-2.68,7.94Z"/></g></g></svg>