<svg xmlns="http://www.w3.org/2000/svg" viewBox="0 0 90 90"><defs><style>.cls-1{fill:#0b84ee;}.cls-2{fill:#fff;}</style></defs><g id="Layer_2" data-name="Layer 2"><g id="Layer_1-2" data-name="Layer 1"><path class="cls-1" d="M45,0h0A45,45,0,0,1,90,45h0A45,45,0,0,1,45,90h0A45,45,0,0,1,0,45H0A45,45,0,0,1,45,0Z"/><path class="cls-2" d="M48.73,45.82H57.1l1.32-8.56H48.73V32.58c0-3.55,1.15-6.71,4.46-6.71H58.5V18.4a46.2,46.2,0,0,0-6.64-.4c-7.79,0-12.35,4.14-12.35,13.57v5.69h-8v8.56h8V69.35a32.14,32.14,0,0,0,4.84.4,33.32,33.32,0,0,0,4.38-.33Z"/></g></g></svg>